<?xml version="1.0" encoding="utf-8"?>
<!-- Generator: Adobe Illustrator 16.0.0, SVG Export Plug-In . SVG Version: 6.00 Build 0)  -->
<!DOCTYPE svg PUBLIC "-//W3C//DTD SVG 1.1//EN" "http://www.w3.org/Graphics/SVG/1.1/DTD/svg11.dtd">
<svg version="1.1" id="Layer_1" xmlns="http://www.w3.org/2000/svg" xmlns:xlink="http://www.w3.org/1999/xlink" x="0px" y="0px"
	 width="560.642px" height="1013.46px" viewBox="0 0 560.642 1013.46" enable-background="new 0 0 560.642 1013.46"
	 xml:space="preserve">
<path id="austurland" fill="#E88F24" d="M123.032,772.451c-0.313-3.131-1.451-6.297-2.432-9.214
	c-1.373-4.084-6.508-5.503-9.934-7.422c-2.713-1.521-2.852-5.712-5.041-7.846c-1.275-1.244-2.738-2.373-4.35-3.151
	c-1.293-0.625-2.887-0.771-4.059-1.617c-1.432-1.034-1.324-2.7-1.785-4.258c-0.682-2.296-1.754-5.442-3.113-7.421
	c-0.732-1.064-1.957-1.646-2.941-2.439c-1.238-1.002-2.26-2.25-3.568-3.17c-1.596-1.119-3.293-2.104-4.898-3.216
	c-2.115-1.464-4.391-2.666-6.564-4.036c-1.939-1.221-3.711-3.008-5.98-3.582c-2.043-0.519-3.963-1.813-6.018-2.148
	c-5.445-0.893-9.363,5.879-14.643,4.817c-2.102-0.423-3.697-2.125-5.914-2.203c-1.596-0.057-3.195,0.067-4.766,0.362
	c-1.334,0.25-2.914,1.068-4.281,0.943c-2.84-0.26-3.838-4.32-4.607-6.456c-1.189-3.312-2.029-5.668-5.439-7.286
	c-2.018-0.957-4.23-1.422-6.258-2.346c-3.418-1.558-3.213-4.634-3.248-7.909c-0.074-6.871-0.018-13.743,0.09-20.613
	c0.215-13.723,0.639-27.442,0.65-41.168c0.008-8.161,0.014-16.322,0.016-24.484c0.008-21.434,0-42.864-0.008-64.297
	c-0.012-23.074-0.02-46.147-0.018-69.223c0-23.078,0.008-46.156,0.014-69.234c0.004-21.323,0.004-42.646,0.002-63.97
	c-0.004-18.315-0.008-36.634-0.01-54.949c0-12.65,0.002-25.301,0.006-37.95c0-5.569,0.004-11.14,0-16.709
	c0-0.361-0.229-1.936-0.002-2.181c1.283-1.389,2.566-2.776,3.85-4.164c43.32-46.869,87.5-92.957,130.006-140.572
	c11.836-13.257,23.197-22.553,36.063-31.51c6.014-4.188,12.354-8.302,19.229-12.711c18.805-12.065,40.076-13.371,59.73-22.945
	c8.643-4.209,30.383-23.338,40.098-13.294c9.756,10.087-8.582,28.816-7.42,40.169c1.498,14.623,22.154,23.918,32.604,31.749
	c17.592,13.184,53.41,41.73,77.221,35.575c11.146-2.881,18.977-17.96,30.902-5.32c13.904,14.734-16.924,16.726,4.373,22.916
	c9.813,2.851,9.15,0.944,10.912,11.563c0.947,5.716-0.082,14.647,6.918,16.814c5.023,1.555,6.744-2.702,7.824-6.7
	c1.93-7.137,5.928-11.461,12.213-15.126c2.088-1.218,4.854-2.805,7.064-1.02c3.889,3.145,2.244,9.182,2.447,13.295
	c0.059,1.2,0.207,3.412,1.283,4.201c1.375,1.009,3.15-0.141,4.715,0.073c3.344,0.459,3.047,3.483,5.066,5.542
	c2.646,2.701,7.725,2.033,8.855,6.313c0.803,3.037-1.27,6.476-1.867,9.388c-0.883,4.294,3.744,10.877,1.781,14.507
	c-2.072,3.832-9.074,0.604-10.305,6.263c-2.451,11.268,16.973,19,3.305,29.242c-5.592,4.191-4.668,4.704-0.789,9.357
	c2.84,3.406,3.002,6.993,0.826,10.75c-3.221,5.558-8.521,9.583-13.15,13.883c-4.715,4.377-9.988,1.755-15.719,1.263
	c-4.539-0.39-9.932-0.97-14.271,0.795c-11.498,4.677,7.779,10.426,11.77,10.996c5.09,0.729,20.26-0.113,16.703,8.302
	c-3.375,7.985-9.338,14.756-18.223,13.964c-5.01-0.446-10.346-1.665-15.201,0.278c-9.625,3.854-14.514,13.49-24.674,16.638
	c-4.232,1.311-14.094,5.356-13.637,11.311c0.412,5.367,7.225-1.197,9.223-2.638c5.266-3.791,10.547-4.9,16.6-6.793
	c6.211-1.94,10.787-6.399,16.672-8.821c5.877-2.42,11.01,0.421,16.525,2.461c5.482,2.028,10.346,2.774,15.162-1.064
	c3.482-2.776,6.012-7.466,11.074-6.771c6.385,0.877,13.203,6.351,19.408,8.475c6.979,2.39,8.004,5.102,6.875,12.274
	c-0.5,3.18-1.932,6.006-3.506,8.772c-2.658,4.677-4.232,8.616-5.77,13.686c-1.576,5.205-5.889,7.263-10.617,9.431
	c-6.906,3.169-14.199,6.078-21.652,7.646c-14.879,3.131-29.641,0.769-44.336,5.51c-4.025,1.299-8.045,2.638-12.029,4.063
	c-2.078,0.743-7.592,1.842-8.918,3.808c-2.357,3.498,9.883,0.597,11.684,0.169c8.049-1.913,15.918-5.914,24.258-6.359
	c3.773-0.202,7.508,0.423,11.162,1.318c3.436,0.844,6.477,3.146,10.01,3.591c3.572,0.452,6.506-1.281,9.826-2.277
	c4.248-1.274,8.438-1.687,12.818-2.047c4.793-0.396,21.998-9.858,22.529,0.92c0.482,9.666-1.982,24.495-13.953,25.591
	c-3.859,0.353-11.064-0.371-13.479,3.616c-2.215,3.659,1.24,5.577,4.543,5.709c4.395,0.174,10.059-2.917,14.271-0.733
	c4.594,2.378,1.619,6.864-1.193,9.47c-1.434,1.326-8.803,4.681-8.854,6.841c-0.068,2.945,5.166,0.827,6.594,0.316
	c4.582-1.642,15.326-9.139,14.041,1.227c-0.248,1.99-2.943,8.741,1.469,8.131c3.15-0.438,5.346-8.099,6.287-10.478
	c4.438-11.22,6.924-22.396,12.916-32.944c1.518-2.67,6.268-9.52,6.811-3.041c0.248,2.947-1.563,6.411-2.084,9.291
	c-0.643,3.543-0.496,6.823,0.182,10.348c0.695,3.617,1.854,7.157,1.635,10.893c-0.236,4.039-5.18,8.931-3.604,13.098
	c1.359,3.594,5.906,2.701,8.922,3.38c4.977,1.118,5.705,5.563,3.59,9.745c-2.084,4.114-5.367,7.799-7.658,11.871
	c-4.34,7.718-17.773,8.652-19.211,17.718c-0.822,5.196,2.545,9.902,3.178,14.898c1.523,12.059-22.221,11.233-29.9,12.476
	c-4.846,0.783-10.857,2.619-15.658,0.747c-4.662-1.819-7.641-6.939-10.398-10.816c-3.256-4.576-6.436-9.535-10.879-13.072
	c-4.051-3.225-9.051-4.715-13.813-6.553c-3.613-1.396-32.883-17.17-34.529-15.029c-0.992,1.292,4.17,7.475,4.781,8.688
	c1.719,3.417,2.162,6.11-1.205,8.471c-3.869,2.709-9.676,3.67-14.102,5.13c-5.98,1.975-11.945,3.854-18.195,4.771
	c-6.271,0.922-12.773,0.531-18.984,1.733c-3.527,0.684-6.539,2.019-3.139,5.216c9.076,8.537,25.592,2.189,35.701,0.063
	c11.111-2.34,21.273,3.445,32.363,2.945c4.639-0.209,10.582-2.755,14.354,0.906c2.1,2.038,3.559,2.48,6.055,4.138
	c1.645,1.091,4.422,4.21,5.113,6.095c0.785,2.138-0.482,4.411,1.223,6.336c1.939,2.188,6.332,2.909,8.918,4.243
	c3.66,1.89,7.117,4.243,10.299,6.854c3.643,2.987,6.482,7.824,10.963,9.621c3.945,1.58,10.439,2.192,14.67,1.818
	c2.816-0.249,8.057-2.911,10.029,0.321c1.762,2.887-0.293,9.406-2.049,11.803c-3.789,5.166-11.547,5.354-17.311,5.023
	c-7.146-0.405-14.063-2.327-21.146-3.17c-5.229-0.622-10.193,0.013-15.398,0.429c-7.029,0.561-13.955-0.139-20.896-1.273
	c-3.371-0.551-15.164-4.57-18.219-2.144c-3.168,2.518,4.258,5.986,6.252,7c7.053,3.583,14.924,5.446,22.742,6.362
	c7.398,0.867,15.09,0.495,22.291,2.634c5.822,1.729,10.666,5.455,15.604,8.84c2.965,2.031,10.58,4.572,11.52,8.262
	c0.713,2.797-1.521,6.355-2.844,8.643c-3.063,5.296-7.754,9.063-11.43,13.873c-4.438,5.81-5.398,5.991-11.936,2.81
	c-6.293-3.065-13.305-4.165-20.223-4.88c-5.506-0.569-9.963,1.631-3.346,5.614c3.893,2.345,8.684,2.799,12.729,4.98
	c4.088,2.205,7.865,4.839,12.445,5.964c2.455,0.603,7.094,0.954,5.514,4.396c-1.184,2.579-5.248,2.266-7.469,2.558
	c-5.441,0.715-8.814,4.234-13.314,6.574c-4.018,2.09-8.945,0.405-13.172,1.738c-5.766,1.819-11.643,5.223-17.896,3.729
	c-3.211-0.769-7.188-6.279-10.133-1.769c-2.926,4.48,1.732,8.659,5.162,10.525c3.904,2.123,7.078,5.162,10.742,7.614
	c7.691,5.147,15.979,17.428,4.604,23.988c-4.809,2.773-8.07,6.875-12.408,10.109c-3.607,2.688-8.92,3.291-13.221,4.346
	c-4.461,1.095-9.232,3.84-13.426,5.732c-4.902,2.216-10.363,4.039-15.877,3.863c-3.176-0.103-5.82,1.188-8.91,1.169
	c-6.867-0.042-14.455-6.15-19.941-9.848c-5.08-3.422-9.773-9.464-12.203-15.079c-2.443-5.656-6.854-9.101-11.295-13.26
	c-4.908-4.597-8.67-10.711-13.08-15.804c-2.689-3.104-8.631-6.793-13.066-5.581c-3.908,1.069-0.965,3.395,1.59,4.896
	c5.52,3.25,10.502,4.35,5.576,10.717c-4.463,5.768,0.305,8.244,5.617,10.713c4.299,1.998,8.064,4.035,11.17,7.708
	c4.666,5.518,4.127,12.834,7.652,18.754c3.164,5.31,9.52,7.549,12.838,12.772c2.559,4.023,4.926,6.738,9.246,8.849
	c2.275,1.11,4.508,2.443,7.029,2.903c2.523,0.459,5.018,0.247,7.51,1.033c6.98,2.201,10.023,9.055,7.453,15.904
	c-1.432,3.819-6.15,3.063-9.121,1.829c-4.465-1.854-9.084-3.524-13.617-5.328c-3.65-1.452-7.064-3.374-10.889-4.353
	c-4.883-1.25-10.43-3.643-15.48-3.597c-3.826,0.034-7.127,2.302-10.893,2.677c-2.607,0.262-6.596-1.555-8.889-0.021
	c-9.842,6.585,14.328,18.289,18.195,20.021c2.908,1.301,5.678,2.093,6.596,5.465c1.352,4.966-0.553,14.428-6.129,16.334
	c-1.766,0.604-2.537-0.1-4.225-0.334c-2.225-0.312-4.604,0.018-6.836,0.16c-4.889,0.313-9.76,0.815-14.646,1.132
	c-2.467,0.159-7.412-0.706-9.51,0.375c-1.881,0.969-2.848,4.388-4.055,6.021c-3.9,5.284-0.039,7.071,1.625,12.947
	c1.322,4.676-2.906,11.385,0.713,15.104c4.598,4.729,7-2.073,10.852-3.169c2.736-0.778,5.785,1.241,8.498,1.476
	c3.238,0.277,6.949,0.569,6.889,5.003c-0.029,2.243-1.656,3.161-1.914,4.877c-0.32,2.142,1.783,5.471,2.654,7.346
	c2.152,4.628,3.859,8.943,1.473,13.896c-3.15,6.538-6.334,12.411-6,19.901c0.242,5.446,1.635,10.194-0.412,15.48
	c-1.732,4.474-3.891,8.409-5.145,13.083c-3.107,11.567-20.824,9.563-30.369,12.405c-12.409,3.697-23.733,11.567-33.989,19.273
	c-7.141,5.365-14.494,10.493-21.109,16.514c-4.447,4.047-9.236,8.062-12.344,13.292c-4.934,8.307,1.973,12.173,2.291,20.226
	c0.311,7.86-6.691,14.132-11.055,19.892c-2.988,3.947-3.193,8.226-5.5,12.387c-3.916,7.07-13.283,4.826-19.879,4.148
	c-9.699-0.997-18.469,0.199-27.795,2.907c-6.701,1.944-13.289,4.195-20.34,4.253c-8.969,0.071-17.814-1.421-26.818-0.931
	c-8.959,0.489-17.91,1.427-26.871,1.987c-8.627,0.541-14.164,4.566-21.807,7.953c-3.404,1.507-30.311,10.485-30.768,6.57
	c-0.125-1.072,0-2.238,0-3.318c0-3.623,0-7.248,0-10.871c0-10.639,0-21.279,0-31.919c0-1.644-0.426-3.258-0.441-4.905
	c-0.02-2.104,2.143-2.411,3.295-3.773c1.547-1.83,2.393-4.197,3.932-6.083c3.322-4.073,5.203-8.53,5.457-13.798
	c0.223-4.556-0.689-9.206-4.408-12.229c-1.287-1.045-2.76-2.025-4.26-2.74c-2.877-1.365-5.584-2.33-7.143-5.438
	c-1.563-3.117-4.941-5.524-7.928-7.161c-2.824-1.547-4.99-4.357-7.531-6.331c-2.297-1.784-4.557-3.71-6.41-5.961
	c-0.768-0.933-2.346-2.308-2.508-3.575c-0.15-1.179,0.914-2.207,1.916-2.671c1.199-0.556,1.992-0.044,3.09,0.414
	c1.264,0.526,2.512,0.768,3.895,0.73c2.645-0.068,5.059-1.24,7.451-2.249c1.439-0.605,3.002-0.739,4.072-1.979
	c0.943-1.099,1.926-6.468,3.357-6.373c1.244,0.082,1.914,2.666,2.686,3.395c0.787,0.742,1.58,1.323,2.242,2.197
	c1.627,2.146,2.688,3.482,5.408,4.155c2.426,0.6,5.059,1.364,7.566,1.31c1.615-0.034,3.189-0.622,4.813-0.538
	c2.25,0.113,2.43,1.459,3.924,2.735c1.004,0.857,2.471,1.213,3.65,1.758c1.383,0.638,2.83,1.147,4.342,1.371
	c3.021,0.448,6.041-0.326,8.6-1.965c5.438-3.483,7.865-9.74,6.725-16.001c-0.803-4.406-2.771-9.624-5.035-13.501
	c-1.221-2.091-3.096-3.639-4.746-5.37c-1.771-1.857-3.188-3.972-5.078-5.73c-2.043-1.901-4.27-3.632-6.564-5.219
	c-2.131-1.474-4.232-1.309-6.498-2.213c-3.432-1.371-0.988-4.278,0.58-5.985c1.928-2.095,4.641-1.402,7.145-1.121
	c1.848,0.207,3.086-0.119,4.822-0.67c2.969-0.94,6.275-0.044,9.002,1.189c2.375,1.076,5.066,1.309,7.391,2.515
	c3.385,1.755,6.607,4.326,10.488,4.843c1.939,0.257,3.637-0.259,5.484-0.75c2.104-0.561,4.383-0.88,6.379-1.775
	c4.268-1.912,6.443-7.308,5.779-11.633c-0.771-5.04-3.764-9.807-7.867-12.797c-2.65-1.933-5.572-3.349-8.688-4.354
	c-1.002-0.322,1.197-2.358,1.498-2.584c2.174-1.632,4.918-2.145,6.943-4.061c1.928-1.823,3.27-4.163,4.314-6.578
	c0.938-2.156,1.932-4.397,2.143-6.766c0.217-2.444-0.688-4.612-1.531-6.845c-0.779-2.053-0.617-3.726-0.139-5.84
	c0.248-1.094-1.508-3.797,0.576-3.668c1.248,0.077,2.244,1.773,3.35,2.251c1.699,0.734,3.293,0.922,5.111,1.146
	c2.842,0.349,6.242,1.624,9.088,0.827c2.811-0.787,2.238-3.556,3.563-5.53C122.942,777.938,123.307,775.208,123.032,772.451z"/>
</svg>
