<?xml version="1.0" encoding="utf-8"?>
<!-- Generator: Adobe Illustrator 16.0.0, SVG Export Plug-In . SVG Version: 6.00 Build 0)  -->
<!DOCTYPE svg PUBLIC "-//W3C//DTD SVG 1.1//EN" "http://www.w3.org/Graphics/SVG/1.1/DTD/svg11.dtd">
<svg version="1.1" id="Layer_1" xmlns="http://www.w3.org/2000/svg" xmlns:xlink="http://www.w3.org/1999/xlink" x="0px" y="0px"
	 width="560.641px" height="1013.46px" viewBox="0 0 560.641 1013.46" enable-background="new 0 0 560.641 1013.46"
	 xml:space="preserve">
<path id="austurland" fill="#589B19" d="M123.032,772.451c-0.313-3.131-1.451-6.297-2.432-9.213
	c-1.373-4.084-6.508-5.504-9.934-7.422c-2.713-1.521-2.852-5.713-5.041-7.848c-1.275-1.244-2.738-2.373-4.35-3.15
	c-1.293-0.625-2.887-0.771-4.059-1.617c-1.432-1.033-1.324-2.699-1.785-4.258c-0.682-2.297-1.754-5.441-3.113-7.422
	c-0.732-1.063-1.957-1.645-2.941-2.438c-1.238-1.002-2.26-2.25-3.568-3.17c-1.596-1.119-3.293-2.105-4.898-3.217
	c-2.115-1.463-4.391-2.666-6.564-4.035c-1.939-1.223-3.711-3.008-5.98-3.582c-2.043-0.52-3.963-1.814-6.018-2.148
	c-5.445-0.893-9.363,5.879-14.643,4.816c-2.102-0.422-3.697-2.125-5.914-2.203c-1.596-0.057-3.195,0.068-4.766,0.363
	c-1.334,0.25-2.914,1.066-4.281,0.941c-2.84-0.26-3.838-4.318-4.607-6.455c-1.189-3.313-2.029-5.668-5.439-7.285
	c-2.018-0.957-4.23-1.424-6.258-2.348c-3.418-1.557-3.213-4.633-3.248-7.908c-0.074-6.871-0.018-13.742,0.09-20.613
	c0.215-13.723,0.639-27.441,0.65-41.168c0.008-8.16,0.014-16.322,0.016-24.484c0.008-21.434,0-42.863-0.008-64.297
	c-0.012-23.074-0.02-46.147-0.018-69.222c0-23.078,0.008-46.156,0.014-69.234c0.004-21.323,0.004-42.646,0.002-63.97
	c-0.004-18.315-0.008-36.634-0.01-54.949c0-12.65,0.002-25.301,0.006-37.95c0-5.569,0.004-11.14,0-16.709
	c0-0.361-0.229-1.936-0.002-2.181c1.283-1.389,2.566-2.776,3.85-4.164c43.32-46.869,87.5-92.957,130.006-140.572
	c11.836-13.257,23.197-22.553,36.063-31.51c6.014-4.188,12.354-8.302,19.229-12.711c18.805-12.065,40.076-13.371,59.73-22.945
	c8.643-4.209,30.383-23.338,40.098-13.294c9.756,10.087-8.582,28.816-7.42,40.169c1.498,14.623,22.154,23.918,32.604,31.749
	c17.593,13.184,53.41,41.73,77.222,35.575c11.146-2.881,18.978-17.96,30.901-5.32c13.904,14.734-16.924,16.726,4.373,22.916
	c9.814,2.851,9.15,0.944,10.912,11.563c0.947,5.716-0.082,14.647,6.918,16.814c5.023,1.555,6.744-2.702,7.824-6.7
	c1.93-7.137,5.928-11.461,12.213-15.126c2.088-1.218,4.854-2.805,7.064-1.02c3.889,3.145,2.244,9.182,2.447,13.295
	c0.059,1.2,0.207,3.412,1.283,4.201c1.375,1.009,3.15-0.141,4.715,0.073c3.344,0.459,3.047,3.483,5.066,5.542
	c2.645,2.701,7.725,2.033,8.854,6.313c0.805,3.037-1.27,6.476-1.867,9.388c-0.883,4.294,3.744,10.877,1.781,14.507
	c-2.072,3.832-9.074,0.604-10.305,6.263c-2.451,11.268,16.973,19,3.305,29.242c-5.592,4.191-4.668,4.704-0.789,9.357
	c2.84,3.406,3.002,6.993,0.826,10.75c-3.221,5.558-8.52,9.583-13.15,13.883c-4.715,4.377-9.986,1.755-15.719,1.263
	c-4.539-0.39-9.932-0.97-14.27,0.795c-11.498,4.677,7.777,10.426,11.77,10.996c5.09,0.729,20.26-0.113,16.703,8.302
	c-3.375,7.985-9.338,14.756-18.223,13.964c-5.012-0.446-10.348-1.665-15.201,0.278c-9.625,3.854-14.514,13.49-24.674,16.638
	c-4.232,1.312-14.095,5.356-13.638,11.312c0.412,5.366,7.226-1.197,9.224-2.639c5.266-3.791,10.547-4.899,16.6-6.793
	c6.211-1.939,10.787-6.398,16.672-8.82c5.877-2.421,11.01,0.421,16.525,2.461c5.48,2.027,10.346,2.773,15.162-1.064
	c3.48-2.776,6.012-7.466,11.074-6.771c6.385,0.877,13.201,6.351,19.406,8.475c6.98,2.39,8.004,5.102,6.875,12.274
	c-0.5,3.18-1.932,6.006-3.506,8.771c-2.658,4.677-4.23,8.616-5.77,13.687c-1.576,5.205-5.889,7.263-10.617,9.431
	c-6.906,3.169-14.199,6.078-21.652,7.646c-14.879,3.132-29.641,0.77-44.336,5.511c-4.023,1.299-8.045,2.638-12.027,4.063
	c-2.078,0.743-7.593,1.842-8.919,3.809c-2.356,3.498,9.884,0.597,11.685,0.169c8.049-1.913,15.918-5.914,24.258-6.359
	c3.773-0.202,7.508,0.423,11.162,1.318c3.436,0.844,6.477,3.146,10.01,3.591c3.572,0.452,6.506-1.281,9.826-2.277
	c4.248-1.273,8.438-1.687,12.818-2.047c4.793-0.396,21.998-9.858,22.527,0.92c0.482,9.666-1.98,24.495-13.953,25.591
	c-3.857,0.354-11.063-0.371-13.479,3.616c-2.215,3.659,1.24,5.577,4.543,5.709c4.395,0.174,10.059-2.917,14.271-0.732
	c4.594,2.378,1.619,6.863-1.193,9.47c-1.434,1.326-8.803,4.681-8.854,6.841c-0.068,2.945,5.166,0.827,6.594,0.316
	c4.582-1.643,15.326-9.14,14.041,1.227c-0.248,1.99-2.943,8.741,1.469,8.131c3.15-0.438,5.346-8.099,6.287-10.478
	c4.438-11.221,6.924-22.396,12.916-32.944c1.518-2.67,6.268-9.52,6.811-3.041c0.248,2.947-1.563,6.411-2.084,9.291
	c-0.643,3.543-0.496,6.823,0.184,10.348c0.693,3.617,1.854,7.157,1.635,10.894c-0.236,4.039-5.18,8.931-3.605,13.098
	c1.359,3.594,5.906,2.701,8.922,3.38c4.979,1.118,5.705,5.563,3.592,9.745c-2.084,4.114-5.367,7.799-7.658,11.871
	c-4.34,7.718-17.773,8.652-19.211,17.718c-0.822,5.196,2.545,9.902,3.178,14.898c1.523,12.059-22.221,11.233-29.9,12.476
	c-4.846,0.783-10.857,2.619-15.658,0.747c-4.662-1.818-7.641-6.938-10.398-10.815c-3.256-4.576-6.436-9.535-10.879-13.072
	c-4.051-3.225-9.051-4.715-13.813-6.553c-3.613-1.396-32.883-17.17-34.529-15.029c-0.992,1.292,4.17,7.475,4.781,8.688
	c1.719,3.417,2.162,6.109-1.205,8.471c-3.869,2.709-9.676,3.67-14.102,5.13c-5.98,1.975-11.945,3.854-18.195,4.771
	c-6.271,0.923-12.773,0.531-18.984,1.733c-3.526,0.684-6.539,2.02-3.139,5.216c9.076,8.537,25.592,2.189,35.701,0.063
	c11.111-2.34,21.273,3.444,32.363,2.944c4.639-0.209,10.582-2.755,14.354,0.906c2.1,2.038,3.559,2.48,6.055,4.138
	c1.645,1.092,4.422,4.211,5.113,6.096c0.785,2.138-0.482,4.411,1.223,6.336c1.939,2.188,6.332,2.909,8.918,4.243
	c3.66,1.889,7.117,4.243,10.299,6.854c3.645,2.986,6.482,7.824,10.963,9.621c3.945,1.58,10.439,2.191,14.67,1.818
	c2.816-0.25,8.059-2.912,10.029,0.32c1.762,2.887-0.293,9.406-2.049,11.803c-3.789,5.166-11.547,5.354-17.311,5.023
	c-7.146-0.406-14.063-2.328-21.146-3.17c-5.229-0.623-10.193,0.012-15.398,0.428c-7.027,0.563-13.955-0.139-20.895-1.271
	c-3.371-0.551-15.164-4.57-18.219-2.145c-3.168,2.518,4.258,5.986,6.252,7c7.053,3.582,14.924,5.445,22.742,6.361
	c7.396,0.867,15.09,0.496,22.289,2.635c5.822,1.729,10.666,5.455,15.605,8.84c2.965,2.031,10.58,4.572,11.52,8.262
	c0.713,2.797-1.521,6.355-2.844,8.643c-3.063,5.297-7.754,9.064-11.43,13.873c-4.439,5.811-5.398,5.992-11.938,2.811
	c-6.293-3.064-13.305-4.164-20.223-4.881c-5.506-0.568-9.963,1.633-3.346,5.615c3.893,2.344,8.684,2.799,12.729,4.98
	c4.088,2.205,7.865,4.838,12.445,5.963c2.455,0.604,7.094,0.955,5.514,4.396c-1.184,2.578-5.248,2.266-7.469,2.559
	c-5.441,0.715-8.813,4.232-13.313,6.572c-4.02,2.092-8.945,0.406-13.174,1.738c-5.766,1.82-11.643,5.225-17.895,3.73
	c-3.211-0.77-7.189-6.279-10.133-1.77c-2.927,4.48,1.73,8.658,5.162,10.525c3.902,2.123,7.076,5.162,10.74,7.613
	c7.691,5.146,15.98,17.428,4.605,23.988c-4.811,2.773-8.07,6.875-12.408,10.109c-3.607,2.688-8.92,3.291-13.221,4.346
	c-4.461,1.094-9.232,3.84-13.427,5.732c-4.901,2.215-10.362,4.039-15.877,3.861c-3.176-0.102-5.819,1.189-8.91,1.17
	c-6.866-0.041-14.454-6.15-19.94-9.848c-5.08-3.422-9.773-9.465-12.203-15.08c-2.443-5.654-6.854-9.1-11.295-13.26
	c-4.908-4.596-8.67-10.711-13.08-15.803c-2.689-3.105-8.631-6.793-13.066-5.582c-3.908,1.068-0.965,3.395,1.59,4.896
	c5.52,3.25,10.502,4.35,5.576,10.717c-4.463,5.768,0.305,8.244,5.617,10.713c4.299,1.998,8.064,4.035,11.17,7.709
	c4.666,5.518,4.127,12.834,7.652,18.754c3.164,5.309,9.52,7.549,12.838,12.771c2.559,4.023,4.926,6.738,9.246,8.85
	c2.275,1.109,4.508,2.441,7.029,2.902c2.522,0.459,5.018,0.246,7.51,1.033c6.979,2.201,10.022,9.055,7.453,15.904
	c-1.433,3.818-6.15,3.063-9.121,1.828c-4.465-1.854-9.084-3.523-13.617-5.328c-3.65-1.451-7.064-3.373-10.889-4.354
	c-4.883-1.25-10.431-3.643-15.48-3.596c-3.826,0.033-7.127,2.301-10.893,2.676c-2.607,0.264-6.597-1.555-8.89-0.02
	c-9.842,6.584,14.328,18.289,18.195,20.02c2.907,1.301,5.678,2.094,6.596,5.465c1.353,4.967-0.553,14.43-6.129,16.334
	c-1.767,0.605-2.537-0.1-4.226-0.334c-2.225-0.311-4.604,0.02-6.836,0.16c-4.889,0.314-9.76,0.816-14.646,1.133
	c-2.467,0.158-7.412-0.707-9.51,0.375c-1.882,0.969-2.849,4.389-4.056,6.021c-3.899,5.283-0.039,7.07,1.625,12.947
	c1.322,4.676-2.906,11.385,0.713,15.104c4.599,4.729,7-2.074,10.853-3.17c2.735-0.777,5.785,1.242,8.498,1.477
	c3.237,0.277,6.949,0.568,6.89,5.004c-0.029,2.242-1.656,3.16-1.914,4.877c-0.32,2.141,1.782,5.471,2.653,7.346
	c2.151,4.627,3.858,8.943,1.474,13.895c-3.15,6.539-6.334,12.412-6,19.902c0.242,5.445,1.635,10.193-0.412,15.48
	c-1.732,4.473-3.892,8.408-5.146,13.082c-3.106,11.566-20.823,9.563-30.368,12.404c-12.41,3.697-23.734,11.568-33.99,19.273
	c-7.141,5.365-14.494,10.494-21.109,16.514c-4.447,4.047-9.236,8.063-12.344,13.293c-4.934,8.307,1.973,12.172,2.291,20.227
	c0.311,7.859-6.691,14.131-11.055,19.891c-2.988,3.947-3.193,8.227-5.5,12.387c-3.916,7.07-13.283,4.826-19.879,4.148
	c-9.699-0.996-18.469,0.199-27.795,2.908c-6.701,1.943-13.289,4.193-20.34,4.252c-8.969,0.07-17.814-1.42-26.818-0.932
	c-8.959,0.49-17.91,1.428-26.871,1.988c-8.627,0.541-14.164,4.566-21.807,7.953c-3.404,1.506-30.311,10.484-30.768,6.57
	c-0.125-1.072,0-2.238,0-3.318c0-3.623,0-7.248,0-10.871c0-10.639,0-21.279,0-31.92c0-1.643-0.426-3.258-0.441-4.904
	c-0.02-2.104,2.143-2.412,3.295-3.773c1.547-1.83,2.393-4.197,3.932-6.082c3.322-4.074,5.203-8.531,5.457-13.799
	c0.223-4.557-0.689-9.205-4.408-12.229c-1.287-1.045-2.76-2.025-4.26-2.74c-2.877-1.365-5.584-2.33-7.143-5.438
	c-1.563-3.117-4.941-5.525-7.928-7.162c-2.824-1.547-4.99-4.357-7.531-6.33c-2.297-1.785-4.557-3.711-6.41-5.961
	c-0.768-0.934-2.346-2.309-2.508-3.576c-0.15-1.178,0.914-2.207,1.916-2.67c1.199-0.557,1.992-0.045,3.09,0.414
	c1.264,0.525,2.512,0.768,3.895,0.73c2.645-0.068,5.059-1.24,7.451-2.25c1.439-0.605,3.002-0.738,4.072-1.979
	c0.943-1.1,1.926-6.469,3.357-6.373c1.244,0.082,1.914,2.666,2.686,3.395c0.787,0.742,1.58,1.322,2.242,2.197
	c1.627,2.146,2.688,3.482,5.408,4.154c2.426,0.6,5.059,1.365,7.566,1.311c1.615-0.033,3.189-0.621,4.813-0.537
	c2.25,0.111,2.43,1.459,3.924,2.734c1.004,0.857,2.471,1.213,3.65,1.758c1.383,0.639,2.83,1.146,4.342,1.371
	c3.021,0.447,6.041-0.326,8.6-1.965c5.438-3.482,7.865-9.74,6.725-16.002c-0.803-4.406-2.771-9.623-5.035-13.5
	c-1.221-2.092-3.096-3.639-4.746-5.371c-1.771-1.855-3.188-3.971-5.078-5.729c-2.043-1.902-4.27-3.633-6.564-5.221
	c-2.131-1.473-4.232-1.309-6.498-2.213c-3.432-1.371-0.988-4.277,0.58-5.984c1.928-2.096,4.641-1.402,7.145-1.121
	c1.848,0.207,3.086-0.119,4.822-0.67c2.969-0.939,6.275-0.043,9.002,1.189c2.375,1.076,5.066,1.309,7.391,2.516
	c3.385,1.754,6.607,4.326,10.488,4.842c1.939,0.258,3.637-0.258,5.484-0.75c2.104-0.561,4.383-0.879,6.379-1.775
	c4.268-1.912,6.443-7.307,5.779-11.633c-0.771-5.039-3.764-9.807-7.867-12.797c-2.65-1.932-5.572-3.348-8.688-4.354
	c-1.002-0.322,1.197-2.357,1.498-2.584c2.174-1.633,4.918-2.145,6.943-4.061c1.928-1.824,3.27-4.164,4.314-6.578
	c0.938-2.156,1.932-4.396,2.143-6.766c0.217-2.445-0.688-4.613-1.531-6.846c-0.779-2.053-0.617-3.727-0.139-5.84
	c0.248-1.094-1.508-3.797,0.576-3.668c1.248,0.076,2.244,1.773,3.35,2.25c1.699,0.734,3.293,0.922,5.111,1.146
	c2.842,0.35,6.242,1.625,9.088,0.828c2.811-0.787,2.238-3.557,3.563-5.531C122.942,777.937,123.307,775.208,123.032,772.451z"/>
<path fill="#E06700" stroke="#000000" stroke-width="2" stroke-miterlimit="10" d="M214.768,935.65
	c0,8.037-9.796,20.152-14.553,26.4c-5.038-6.438-14.554-18.363-14.554-26.4s6.516-14.553,14.554-14.553
	S214.768,927.613,214.768,935.65z"/>
<path fill="#E06700" stroke="#000000" stroke-width="2" stroke-miterlimit="10" d="M323.768,624.65
	c0,8.037-9.796,20.152-14.553,26.4c-5.038-6.438-14.555-18.363-14.555-26.4s6.517-14.553,14.555-14.553
	C317.252,610.097,323.768,616.613,323.768,624.65z"/>
<path fill="#E06700" stroke="#000000" stroke-width="2" stroke-miterlimit="10" d="M346.768,155.649
	c0,8.038-9.796,20.152-14.553,26.401c-5.038-6.438-14.555-18.363-14.555-26.401c0-8.037,6.517-14.553,14.555-14.553
	C340.252,141.097,346.768,147.612,346.768,155.649z"/>
<path fill="#E06700" stroke="#000000" stroke-width="2" stroke-miterlimit="10" d="M336.768,292.649
	c0,8.038-9.796,20.152-14.553,26.401c-5.038-6.438-14.555-18.363-14.555-26.401c0-8.037,6.517-14.553,14.555-14.553
	C330.252,278.097,336.768,284.612,336.768,292.649z"/>
</svg>
