<?xml version="1.0" encoding="utf-8"?>
<!-- Generator: Adobe Illustrator 16.0.0, SVG Export Plug-In . SVG Version: 6.00 Build 0)  -->
<!DOCTYPE svg PUBLIC "-//W3C//DTD SVG 1.1//EN" "http://www.w3.org/Graphics/SVG/1.1/DTD/svg11.dtd">
<svg version="1.1" id="Layer_1" xmlns="http://www.w3.org/2000/svg" xmlns:xlink="http://www.w3.org/1999/xlink" x="0px" y="0px"
	 width="504.656px" height="379.727px" viewBox="0 0 504.656 379.727" enable-background="new 0 0 504.656 379.727"
	 xml:space="preserve">
<path id="hofurborgarsvaedid" fill="#85B545" d="M414.984,27.338c-3.027,1.356-7.705,0.152-10.922,0.354
	c-4.246,0.266-8.3,1.268-12.232,2.884c-2.625,1.078-6.004,2.688-8.021,4.76c-3.234,3.322-0.843,0.586-1.576,4.536
	c-0.665,3.587,1.669,2.362-2.409,4.669c-6.355,3.597-13.823,0.963-20.008-1.412c-2.893-1.109-5.586-1.486-8.692-1.494
	c-2.857-0.008-7.272,0.698-9.403-1.759c-1.449-1.672-0.626-4.104-1.483-6.127c-2.217-5.227-12.339,0.428-15.385,2.101
	c-3.188,1.751-13.906,5.089-15.065,8.869c-2.404,7.839,15.946,0.683,11.414,9.229c-4.223,7.966-22.804-2.452-29.855,1.238
	c-6.156,3.222-10.551,11.595-15.153,16.587c-4.539,4.923-10.227,8.636-14.701,13.563c-5.194,5.719-5.832,13.855-10.539,19.758
	c-2.104,2.64-6.827,1.586-8.182,5.031c-1.512,3.852,0.41,11.325,5.137,11.127c4.146-0.177,7.015-4.699,11.56-4.839
	c7.711-0.234,8.191,6.042,7.462,12.028c-0.983,8.042,8.54,5.757,14.156,6.517c1.723,0.232,13.313,1.085,13.146,3.994
	c-0.205,3.509-8.326,2.894-10.387,3.824c-3.786,1.712-5.071,5.509-5.361,9.393c-0.271,3.62,0.671,3.574,3.873,3.475
	c2.737-0.087,5.626,0.566,3.456,3.931c-2.175,3.371-8.093,5.883-11.731,7.052c-4.629,1.487-7.768,1.335-9.806,6.071
	c-1.147,2.669,0.183,7.355-3.502,6.356c-3.445-0.935-4.254-8.294-8.212-9.696c-3.376-1.196-7.602,1.258-11.161,1.098
	c-5.12-0.229-10.149-2.707-14.914-4.382c-4.648-1.635-11.373-4.897-16.431-3.83c-4.72,0.998-5.05,3.142-1.484,6.113
	c4.447,3.708,9.646,6.272,14.061,10.072c4.891,4.208,13.346,9.523,13.969,16.63c0.23,2.633-0.977,8.104-3.188,9.849
	c-3.118,2.46-8.309-0.047-11.627-0.848c-2.249-0.542-4.892-0.354-6.765-1.626c-3.178-2.157-4.234-8.141-8.818-8.069
	c-4.199,0.065-3.427,4.968-3.295,7.929c0.173,3.89,1.87,6.039,4.943,8.455c3.181,2.502,7.122,3.286,9.38,7.026
	c3.209,5.313-3.143,8.702-6.772,11.293c-4.396,3.137-9.113,4.188-14.449,3.318c-16.431-2.673-22.584,16.853-37.965,15.859
	c-7.263-0.469-13.574-4.967-21.023-4.702c-7.332,0.263-14.492,4.188-20.893,7.445c-6.021,3.063-11.521,6.24-14.15,12.754
	c-1.981,4.902-1.262,10.604-7.369,12.038c-7.436,1.747-19.166-3.703-25.856-6.468c-7.182-2.968-10.373-5.679-10.681-13.527
	c-0.344-8.806-0.496-16.692-5.132-24.557c-3.891-6.603-9.873-11.641-14.639-17.571c-3.225-4.014-7.787-12.767-13.965-12.243
	c-8.468,0.719-9.768,15.473-10.251,21.56c-0.618,7.754,1.487,17.376-1.863,24.646c-2.726,5.914-8.258,9.628-10.079,16.208
	c-2.532,9.15,1.084,15.434,9.517,19.106c2.521,1.098,10.961,2.61,11.446,5.733c0.354,2.279-3.328,3.291-4.688,4.405
	c-1.934,1.585-3.149,3.762-3.9,6.121c-2.312,7.26-2.701,13.012-8.081,18.896c-4.063,4.444-8.7,7.493-5.2,13.735
	c3.261,5.817,10.455,9.017,9.273,16.78c-0.987,6.484-8.337,9.844-9.362,16.119c-0.807,4.939,3.646,12.277,8.915,12.899
	c6.271,0.74,11.192-7.226,17.448-8.201c8.75-1.364,15.826,6.299,24.249,5.596c6.735-0.563,9.124-8.014,15.626-8.967
	c5.593-0.819,9.962,0.494,14.705-3.366c3.72-3.028,3.618-1.288,5.848,2.129c5.803,8.896,10.418-4.814,14.271-8.453
	c12.788-12.084,24.754,4.763,37.387,8.625c13.672,4.181,30.246,2.46,44.506,3.797c15.697,1.472,32.974,0.226,48.305-3.559
	c13.338-3.292,26.326-17.011,40.854-12.636c12.041,3.627,9.125,18.791,19.485,24.808c11.191,6.496,27.35-2.496,39.131-4.047
	c12.571-1.654,25.317-7.586,37.715-4.254c3.758,1.011,11.451,3.317,13.858-1.309c2.145-4.119-3.02-9.558-1.104-14.298
	c0.798-1.976,2.142-3.628,3.907-4.818c5.744-3.87,14.607-2.854,21.01-1.584c4.821,0.954,9.143,7.498,14.006,6.275
	c5.434-1.367,4.851-5.092,0.551-6.973c-3.481-1.522-7.469-1.596-10.911-3.082c-3.637-1.571-5.391-4.497-8.089-7.137
	c-1.638-1.603-4.438-2.443-5.695-4.37c-4.952-7.591,8.173-5.272,11.054-7.375c1.631-1.191,1.911-3.212,3.236-4.651
	c6.566-7.132,22.451-8.918,31.293-7.025c9.029,1.936,18.624-1.025,27.87-1.504c4.044-0.21,11.294,1.2,14.739-0.748
	c3.198-1.808,5.048-6.374,8.227-8.733c-3.964-29.587-6.663-58.121-9.538-88.033c-0.646-6.734-1.896-14.687-2.824-22.867
	c-0.862-7.604-1.203-15.76-4.749-22.637c-1.896-3.677-4.346-5.998-7.509-8.502c-2.577-2.041-2.737-6.777-3.231-9.794
	c-0.634-3.862-0.954-8.831,0.577-12.514c1.521-3.654,4.828-4.957,7.438-7.688c5.647-5.909,6.479-14.124,8.093-21.74
	c2.06-9.722,4.112-19.444,6.171-29.167c4.531-21.405,9.063-42.812,13.595-64.217c1.03-4.868,2.062-9.737,3.092-14.606
	c-21.325,6.637-42.651,13.271-63.979,19.904c-8.673,2.699-17.347,5.397-26.021,8.096"/>
</svg>
