<?xml version="1.0" encoding="utf-8"?>
<!-- Generator: Adobe Illustrator 16.0.0, SVG Export Plug-In . SVG Version: 6.00 Build 0)  -->
<!DOCTYPE svg PUBLIC "-//W3C//DTD SVG 1.1//EN" "http://www.w3.org/Graphics/SVG/1.1/DTD/svg11.dtd">
<svg version="1.1" id="Layer_1" xmlns="http://www.w3.org/2000/svg" xmlns:xlink="http://www.w3.org/1999/xlink" x="0px" y="0px"
	 width="1512.918px" height="1198.765px" viewBox="0 0 1512.918 1198.765" enable-background="new 0 0 1512.918 1198.765"
	 xml:space="preserve">
<path id="midhalendi_1_" fill="#BAAC3E" d="M505.252,1097.692c0.736,0.231,1.473,1.92,1.915,2.588
	c0.665,1.002,1.495,2.003,2.194,3.079c0.696,1.074,1.364,2.112,1.954,3.223c1.83,3.44,5.283,0.775,7.771-0.434
	c2.559-1.243,5.24-2.214,7.784-3.488c9.343-4.688,17.313-11.949,27.276-15.418c8.131-2.828,17.127-4.793,25.683-5.713
	c6.665-0.716,13.366-0.367,19.938,0.93c4.313,0.851,8.27,2.128,11.687,4.981c3.186,2.66,5.678,6.033,8.73,8.832
	c2.295,2.103,4.863,3.952,6.602,6.58c1.457,2.205,2.328,4.751,3.891,6.895c2.291,3.142,6.08,4.47,9.189,6.591
	c5.361,3.659,8.965,9.682,8.674,16.252c-0.273,6.166-3.539,11.981-10.078,12.813c-2.23,0.285-4.141,0.036-6.275-0.573
	c-2.818-0.807-4.248,2.434-3.732,4.848c0.5,2.342,2.867,3.009,4.859,3.789c2.242,0.877,4.285,1.836,6.271,3.211
	c3.699,2.562,7.813,4.975,9.498,9.412c1.732,4.556-0.33,9.106-2.604,13.062c-1.631,2.839-2.518,5.531-3.455,8.649
	c-1.045,3.479-4.439,6.686,0.223,9.229c2.211,1.206,7.334,3.134,9.109,0.155c0.691-1.162,1.473-2.005,2.459-2.911
	c2.285-2.101,4.055-4.595,5.982-7.011c2.732-3.426,5.465-6.854,8.197-10.281c3.668-4.604,7.338-9.207,11.006-13.809
	c4.457-5.592,8.912-11.185,13.369-16.775c5.018-6.295,10.035-12.59,15.053-18.887c5.396-6.771,10.795-13.543,16.193-20.316
	c5.682-7.127,11.361-14.256,17.045-21.385c5.908-7.41,11.814-14.822,17.723-22.233c6.051-7.591,12.1-15.181,18.148-22.771
	c6.059-7.603,12.115-15.201,18.176-22.803c5.922-7.433,11.846-14.861,17.768-22.293c5.682-7.129,11.365-14.259,17.047-21.388
	c5.381-6.752,10.764-13.504,16.145-20.256c5.014-6.291,10.027-12.58,15.039-18.869c4.502-5.646,9.004-11.295,13.506-16.942
	c3.768-4.728,7.535-9.453,11.303-14.183c2.826-3.545,5.65-7.088,8.479-10.633c3.719-4.665-12.506-8.264-14.697-9.147
	c-2.301-0.932-4.674-2.201-6.605-3.776c-1.725-1.406-3.129-3.038-5.131-4.074c-1.973-1.02-3.721-2.064-5.473-3.445
	c-2.313-1.824-3.25-4-4.041-6.762c-0.559-1.948-0.871-3.965-0.811-5.996c0.061-1.992,0.592-3.967,0.434-5.968
	c-0.158-2.007-1.771-3.207-2.621-4.937c-1.914-3.896-2.865-8.584-2.857-12.906c0.004-2.189,0.344-4.346,0.779-6.486
	c0.336-1.649,0.891-3.514-0.734-4.68c-2.936-2.105-6.473-2.355-9.186-4.964c-2.646-2.546-4.449-5.813-6.271-8.96
	c-2.018-3.482-2.107-7.813-1.568-11.729c0.25-1.816,0.836-3.613,0.285-5.438c-0.533-1.771-1.906-3.094-3.293-4.237
	c-2.795-2.304-6.094-3.852-8.521-6.591c-2.752-3.104-4.674-6.695-5.709-10.712c-1.064-4.134-3.771-7.531-4.791-11.617
	c-0.969-3.892,1.379-7.34,1.848-11.108c0.547-4.404,1.518-8.982,1.084-13.438c-0.416-4.267,0.762-7.706,2.83-11.377
	c2.318-4.11,4.348-8.419,5.748-12.933c0.848-2.729,1.541-5.546,3.623-7.63c2.512-2.518,6.234-4.078,9.303-5.795
	c3.359-1.881,4.313-5.346,7.088-7.762c2.404-2.095,6.625-2.733,7.402-6.346c0.777-3.619-2.037-7.337-2.186-10.949
	c-0.203-4.954,0.898-11.389,4.854-14.851c1.184-1.035,1.525-1.523,1.938-3.058c0.615-2.298,1.619-4.494,2.906-6.49
	c1.191-1.846,2.896-3.33,3.979-5.239c0.963-1.695,1.52-3.593,2.859-5.059c1.289-1.413,2.238-2.727,3.236-4.284
	c0.908-1.421,1.822-2.885,2.967-4.147c1-1.104,3.041-2.354,3.381-3.875c0.396-1.771-1.512-2.653-2.377-3.878
	c-1.23-1.736-1.824-3.881-2.543-5.857c-0.707-1.943-2.021-3.57-2.754-5.537c-1.918-5.157-1.947-10.424-1.252-15.813
	c0.496-3.851,1.594-7.053,2.68-10.729c0.855-2.891,1.568-5.935,3.07-8.571c0.502-0.882,1.072-1.854,1.957-2.391
	c0.902-0.549,1.619-0.655,2.406-1.459c3.584-3.65,6.064-8.034,9.207-12.027c2.266-2.877,3.623-5.423,4.975-8.794
	c0.9-2.246,2.145-4.346,3.602-6.276c2.893-3.837,6.568-6.995,9.797-10.533c5.27-5.771,10.061-10.566,17.994-12.261
	c6.277-1.34,11.822-1.278,17.986,0.438c1.383,0.384,2.715,0.563,4.043,1.104c0.703,0.285,1.311,1.2,2.078,1.193
	c2.021-0.02,3.568-3.85,5.008-4.926c1.65-1.238,2.848-1.504,3.5-3.638c0.611-1.993,0.602-4.154,1.434-6.087
	c0.867-2.014,2.682-4.126,4.254-5.644c1.607-1.552,3.883-1.856,5.555-3.327c1.719-1.512,3.559-3.434,4.873-5.313
	c2.078-2.971,0.459-6.37,0.119-9.604c-0.264-2.485,0.02-4.803,1.121-7.062c2.373-4.86,7.176-7.929,12.521-8.447
	c2.475-0.24,5.363,1.564,7.506-0.421c2.885-2.678,1.771-8.435,5.697-10.236c3.361-1.542,7.078-2.971,9.416-5.989
	c2.426-3.131,3.648-7.146,5.971-10.406c1.367-1.92,2.98-3.667,4.93-5.013c4.064-2.807,8.57-4.681,13.338-5.816
	c3.643-0.869,6.801-3.096,10.422-4.093c4.18-1.15,9.488-0.896,13.77-0.534c1.752,0.147,3.682,0.088,5.307,0.85
	c2.195,1.027,1.313,3.287,3.014,4.508c1.338,0.958,3.229,0.698,4.621,1.671c0.992,0.694,1.727,1.742,2.787,2.342
	c1.346,0.764,6.107,2.807,7.291,1.032c0.732-1.103,0.545-3.348,0.965-4.673c0.52-1.643,0.512-3.078,1.342-4.717
	c1.799-3.552,4.533-5.714,7.178-8.531c1.365-1.453,2.051-3.372,3.578-4.692c3.93-3.396,10.139-4.438,15.143-5.187
	c2.32-0.347,4.273-0.118,6.477-1.242c2.283-1.166,3.082-4.205,5.168-5.694c1.883-1.345,4.342-1.817,6.5-2.541
	c5.068-1.699,9.748-3.548,14.979-1.202c1.084,0.484,2.088,1.118,3.102,1.734c1.146,0.699,2.008,1.685,3.412,1.723
	c1.777,0.049,3.422-1.073,5.184-1.225c1.719-0.146,3.355-0.604,5.035-0.771c1.822-0.18,4.104,0.275,5.904,0.59
	c2.141,0.372,4.02,1.844,6.225,1.893c2.301,0.051,4.268-1.805,6.1-2.945c1.744-1.09,3.551-1.692,5.578-2.01
	c3.279-0.511,6.68-0.678,9.951-0.035c2.74,0.537,6.076,3.073,8.863,2.009c1.98-0.757,4.152-0.509,6.227-0.632
	c1.689-0.102,3.32-0.521,4.992-0.055c3.84,1.073,7.457,3.475,10.432,6.082c2.275,1.995,4.713,3.396,7.332,4.887
	c1.936,1.104,3.146,2.998,4.523,4.691c1.383,1.697,2,3.242,2.648,5.313c0.705,2.241,1.766,4.357,2.416,6.616
	c0.607,2.115,0.721,4.288,0.898,6.47c0.41,5.024,2.033,10.002,1.055,15.063c-0.48,2.484-0.949,5.166-1.998,7.482
	c-1.133,2.498-3.465,3.962-4.811,6.227c1.076,0.34,2.395,0.567,3.537,0.734c2.717,0.395,5.105,0.393,7.258,2.278
	c1.895,1.66,3.293,3.825,4.852,5.781c2.148,2.693,3.836,5.678,4.408,9.113c0.465,2.783,0.441,4.411,2.482,6.49
	c1.842,1.876,3.783,3.663,5.184,5.91c0.639,1.023,1.02,1.949,1.262,3.121c0.143,0.679,0.283,2.99,1.416,2.947
	c0.914-0.034,0.719-1.518,0.871-2.113c0.359-1.398,1.23-2.754,2.018-3.936c1.035-1.551,1.146-3.399,1.977-5.09
	c0.979-1.992,1.891-4.063,3.623-5.524c1.586-1.337,3.674-2.114,4.73-4.008c1.072-1.918,2.18-3.609,3.455-5.4
	c1.063-1.495,1.908-3.229,3.311-4.448c0.766-0.664,1.529-0.892,2.137-1.668c0.652-0.835,1.035-1.848,1.744-2.644
	c0.713-0.8,1.662-1.359,2.426-2.108c1.082-1.062,2.086-2.203,3.316-3.101c2.064-1.503,4.604-2.666,7.084-3.264
	c2.564-0.617,5.316-0.021,7.688-1.385c2.229-1.283,4.709-2.146,6.752-3.739c1.922-1.497,3.412-3.484,4.635-5.573
	c1.504-2.567,2.863-5.373,5.367-7.128c3.955-2.771,7.93-5.021,12.436-6.823c2.379-0.952,4.949-1.146,7.447-1.595
	c2.504-0.449,4.869-1.352,7.33-1.975c2.578-0.654,5.271-0.79,7.918-0.833c2.682-0.043,5.418-0.825,8.08-0.509
	c1.75,0.208,3.57,0.401,5.195,1.125c1.453,0.646,2.523,2.271,4.158,2.398c1.334,0.104,2.645-0.416,3.979-0.323
	c1.801,0.126,3.283,1.042,4.902,1.735c1.828,0.785,3.01,0.544,4.934,0.331c1.316-0.146,2.623-0.296,3.934-0.487
	c2.754-0.404,4.953-0.146,7.59,0.725c2.299,0.76,4.496,1.438,6.309,3.129c1.359,1.269,2.258,2.943,3.592,4.231
	c1.486,1.436,3.221,1.661,5.111,2.306c1.451,0.494,2.881,1.059,4.232,1.793c2.99,1.627,5.563,4.13,6.793,7.355
	c0.49,1.284,1.568,1.718,2.486,2.645c1.189,1.2,1.918,2.78,3.1,3.992c1.541,1.577,3.273,3.012,4.906,4.49
	c1.563,1.413,3.568,1.823,5.318,2.945c3.68,2.358,5.004,7.041,8.754,9.314c1.24,0.752,2.699,1.062,3.895,1.89
	c1,0.691,1.701,1.766,2.75,2.387c2.027,1.2,4.693,0.598,6.93,0.919c2.848,0.41,5.678,1.247,7.939,3.097
	c1.91,1.563,3.164,2.095,5.611,2.376c2.559,0.294,5.092,0.963,7.67,1.03c3.207,0.083,9.049,1.459,11.295-1.577
	c1.322-1.784,2.75-3.576,4.027-5.388c1.199-1.698,1.346-3.812,2.441-5.56c1.301-2.069,3.947-3.121,5.064-5.226
	c1.01-1.896,0.18-4.493,0.18-6.534c0-4.949,0.002-9.9,0.002-14.852c0-15.015,0-30.026,0-45.039c0-11.342,0-22.684,0-34.023
	c0-27.744,0-55.488,0-83.233c0-26.893,0-53.784,0-80.677c0-43.226,0-86.45,0-129.677c0-12.438,0-24.878,0-37.317
	c0-12.49,0-24.981,0-37.474c0-0.032,0-0.063,0-0.097L41.811,211.122c-0.489,1.313-1.217,2.491-1.299,4.29
	c-0.2,4.438-1.604,8.531-2.149,12.896c-0.604,4.84-0.131,9.73,0.026,14.583c0.095,2.917,0.403,5.957-1.245,8.55
	c-1.053,1.656-3.044,2.584-3.95,4.313c-2.537,4.83,1.506,8.001,2.284,12.406c0.579,3.273-0.039,6.66,0.389,9.972
	c0.374,2.901,1.072,6.401,2.626,8.932c4.467,7.272,4.521,12.906,5.331,21.26c0.604,6.237-1.348,12.216-0.987,18.417
	c0.327,5.636,4.453,11.883-0.521,16.39c-4.546,4.118-11.227,6.127-16.217,9.835c-4.604,3.42-10.569,5.302-14.598,9.48
	c-4.034,4.188-4.563,10.311-6.49,15.538c-1.021,2.773-1.821,5.624-2.832,8.41c-1.159,3.182-2.485,5.16-2.114,8.576
	c0.523,4.797,2.079,9.694,3.094,14.417c2.029,9.47,4.068,18.938,6.104,28.406c5.883,27.369,11.766,54.738,17.646,82.107
	c6.079,28.283,12.156,56.566,18.234,84.851c2.313,10.756,4.624,21.512,6.937,32.268c1.205,5.608,1.261,6.125,2.883,12.925
	c1.518,6.362,1.518,6.362,3.833,14.041c7.217,5.121,14.328,8.331,20.451,12.258c10.724,6.88,21.447,13.758,32.173,20.637
	c24.417,15.661,48.835,31.322,73.253,46.983c12.41,7.96,24.82,15.921,37.23,23.88l198.935,190.367"/>
</svg>
