<?xml version="1.0" encoding="utf-8"?>
<!-- Generator: Adobe Illustrator 16.0.0, SVG Export Plug-In . SVG Version: 6.00 Build 0)  -->
<!DOCTYPE svg PUBLIC "-//W3C//DTD SVG 1.1//EN" "http://www.w3.org/Graphics/SVG/1.1/DTD/svg11.dtd">
<svg version="1.1" id="Layer_1" xmlns="http://www.w3.org/2000/svg" xmlns:xlink="http://www.w3.org/1999/xlink" x="0px" y="0px"
	 width="1512.918px" height="1198.765px" viewBox="0 0 1512.918 1198.765" enable-background="new 0 0 1512.918 1198.765"
	 xml:space="preserve">
<path id="midhalendi_1_" fill="#181EB9" d="M505.252,1097.693c0.736,0.23,1.473,1.92,1.915,2.588
	c0.665,1.002,1.495,2.002,2.194,3.078c0.695,1.074,1.363,2.111,1.954,3.223c1.83,3.439,5.282,0.775,7.771-0.434
	c2.56-1.242,5.24-2.215,7.784-3.488c9.343-4.688,17.313-11.949,27.276-15.418c8.131-2.828,17.127-4.793,25.683-5.713
	c6.665-0.715,13.366-0.367,19.938,0.93c4.313,0.852,8.271,2.129,11.688,4.982c3.186,2.658,5.678,6.031,8.729,8.832
	c2.296,2.102,4.863,3.951,6.603,6.578c1.457,2.205,2.328,4.752,3.891,6.896c2.291,3.141,6.08,4.469,9.189,6.59
	c5.361,3.66,8.965,9.682,8.674,16.252c-0.273,6.166-3.539,11.982-10.078,12.814c-2.229,0.283-4.141,0.035-6.275-0.574
	c-2.817-0.807-4.247,2.434-3.731,4.848c0.5,2.342,2.867,3.01,4.859,3.789c2.241,0.877,4.284,1.836,6.271,3.211
	c3.699,2.563,7.813,4.977,9.498,9.412c1.732,4.557-0.33,9.107-2.604,13.063c-1.632,2.84-2.519,5.531-3.455,8.648
	c-1.045,3.48-4.439,6.688,0.223,9.23c2.211,1.205,7.334,3.133,9.109,0.154c0.69-1.162,1.473-2.006,2.459-2.91
	c2.284-2.102,4.055-4.596,5.981-7.012c2.732-3.426,5.465-6.854,8.197-10.281c3.668-4.604,7.338-9.207,11.006-13.809
	c4.457-5.592,8.912-11.186,13.369-16.775c5.018-6.295,10.035-12.59,15.053-18.887c5.396-6.771,10.795-13.543,16.193-20.316
	c5.682-7.127,11.36-14.256,17.045-21.385c5.908-7.41,11.813-14.822,17.723-22.232c6.051-7.592,12.101-15.182,18.148-22.771
	c6.059-7.604,12.114-15.201,18.176-22.803c5.922-7.434,11.846-14.861,17.768-22.293c5.683-7.129,11.365-14.26,17.048-21.389
	c5.381-6.752,10.764-13.504,16.145-20.256c5.014-6.291,10.027-12.58,15.039-18.869c4.502-5.646,9.004-11.295,13.506-16.941
	c3.769-4.729,7.535-9.453,11.303-14.184c2.826-3.545,5.65-7.088,8.479-10.633c3.719-4.664-12.506-8.264-14.697-9.146
	c-2.301-0.932-4.674-2.201-6.604-3.777c-1.726-1.404-3.129-3.037-5.131-4.072c-1.974-1.021-3.722-2.064-5.474-3.445
	c-2.313-1.824-3.25-4-4.041-6.762c-0.559-1.949-0.871-3.965-0.811-5.996c0.061-1.992,0.592-3.967,0.434-5.969
	c-0.158-2.008-1.771-3.207-2.621-4.938c-1.914-3.895-2.864-8.584-2.856-12.906c0.004-2.188,0.344-4.346,0.778-6.484
	c0.336-1.65,0.892-3.516-0.733-4.682c-2.937-2.104-6.474-2.354-9.187-4.963c-2.646-2.547-4.448-5.813-6.271-8.961
	c-2.019-3.48-2.107-7.813-1.568-11.729c0.25-1.816,0.836-3.613,0.285-5.438c-0.533-1.771-1.906-3.094-3.293-4.238
	c-2.795-2.303-6.094-3.852-8.521-6.59c-2.752-3.104-4.674-6.695-5.709-10.713c-1.063-4.133-3.771-7.531-4.791-11.617
	c-0.969-3.891,1.38-7.34,1.849-11.107c0.547-4.404,1.518-8.982,1.084-13.438c-0.416-4.268,0.762-7.707,2.83-11.377
	c2.317-4.109,4.348-8.42,5.748-12.934c0.848-2.729,1.541-5.545,3.623-7.629c2.512-2.52,6.233-4.078,9.303-5.795
	c3.358-1.881,4.313-5.348,7.088-7.764c2.404-2.094,6.625-2.732,7.402-6.346c0.776-3.619-2.037-7.336-2.187-10.949
	c-0.203-4.953,0.898-11.389,4.854-14.85c1.184-1.035,1.524-1.523,1.938-3.059c0.615-2.299,1.619-4.494,2.906-6.49
	c1.19-1.846,2.896-3.33,3.979-5.238c0.964-1.695,1.521-3.594,2.859-5.059c1.289-1.414,2.238-2.729,3.236-4.285
	c0.908-1.42,1.821-2.885,2.967-4.146c1-1.104,3.041-2.354,3.381-3.875c0.396-1.771-1.512-2.652-2.377-3.879
	c-1.229-1.734-1.824-3.881-2.543-5.855c-0.707-1.943-2.021-3.57-2.754-5.537c-1.918-5.158-1.947-10.424-1.252-15.814
	c0.496-3.851,1.594-7.053,2.68-10.729c0.855-2.892,1.568-5.936,3.07-8.571c0.502-0.882,1.071-1.854,1.957-2.391
	c0.901-0.549,1.619-0.655,2.405-1.459c3.584-3.65,6.064-8.034,9.207-12.027c2.267-2.877,3.623-5.423,4.976-8.794
	c0.899-2.246,2.145-4.346,3.602-6.276c2.894-3.837,6.568-6.994,9.797-10.532c5.271-5.771,10.062-10.566,17.994-12.262
	c6.277-1.34,11.822-1.277,17.986,0.438c1.383,0.384,2.715,0.563,4.043,1.104c0.703,0.285,1.311,1.2,2.078,1.193
	c2.021-0.021,3.567-3.85,5.008-4.926c1.65-1.238,2.848-1.504,3.5-3.639c0.611-1.992,0.602-4.153,1.434-6.087
	c0.867-2.014,2.683-4.126,4.255-5.644c1.606-1.552,3.883-1.856,5.555-3.327c1.719-1.512,3.559-3.434,4.873-5.313
	c2.078-2.972,0.459-6.37,0.119-9.604c-0.265-2.485,0.02-4.803,1.121-7.062c2.373-4.86,7.176-7.93,12.521-8.447
	c2.475-0.24,5.363,1.563,7.506-0.421c2.885-2.679,1.771-8.436,5.697-10.236c3.361-1.542,7.078-2.971,9.416-5.989
	c2.426-3.131,3.647-7.146,5.971-10.405c1.367-1.921,2.98-3.667,4.931-5.014c4.063-2.807,8.569-4.681,13.338-5.815
	c3.643-0.869,6.801-3.097,10.422-4.094c4.18-1.149,9.488-0.896,13.77-0.533c1.752,0.146,3.683,0.088,5.308,0.85
	c2.194,1.027,1.313,3.287,3.014,4.508c1.338,0.958,3.229,0.698,4.621,1.671c0.992,0.694,1.727,1.742,2.787,2.343
	c1.346,0.764,6.106,2.807,7.291,1.031c0.731-1.103,0.545-3.348,0.965-4.673c0.52-1.643,0.512-3.078,1.342-4.717
	c1.799-3.552,4.533-5.714,7.178-8.531c1.365-1.453,2.052-3.372,3.578-4.691c3.931-3.396,10.14-4.438,15.144-5.188
	c2.319-0.347,4.272-0.118,6.477-1.242c2.283-1.166,3.082-4.205,5.168-5.693c1.883-1.346,4.342-1.817,6.5-2.541
	c5.068-1.699,9.748-3.548,14.979-1.202c1.084,0.483,2.088,1.118,3.102,1.733c1.146,0.699,2.008,1.686,3.412,1.724
	c1.777,0.049,3.422-1.073,5.184-1.226c1.72-0.146,3.355-0.604,5.035-0.771c1.822-0.18,4.104,0.274,5.904,0.59
	c2.141,0.372,4.021,1.844,6.225,1.893c2.302,0.052,4.269-1.805,6.101-2.944c1.744-1.09,3.551-1.692,5.578-2.01
	c3.278-0.512,6.68-0.679,9.951-0.035c2.739,0.537,6.075,3.072,8.862,2.009c1.98-0.757,4.152-0.509,6.228-0.632
	c1.688-0.103,3.319-0.521,4.992-0.056c3.84,1.073,7.457,3.476,10.432,6.082c2.275,1.995,4.713,3.396,7.332,4.888
	c1.936,1.104,3.146,2.998,4.522,4.69c1.384,1.697,2,3.242,2.648,5.313c0.705,2.241,1.766,4.356,2.416,6.616
	c0.606,2.114,0.721,4.287,0.897,6.47c0.41,5.023,2.033,10.002,1.056,15.063c-0.48,2.484-0.949,5.166-1.998,7.482
	c-1.134,2.498-3.465,3.962-4.812,6.227c1.076,0.341,2.396,0.567,3.537,0.734c2.717,0.395,5.105,0.393,7.258,2.278
	c1.896,1.66,3.293,3.824,4.853,5.78c2.147,2.693,3.836,5.679,4.408,9.113c0.465,2.783,0.44,4.411,2.481,6.49
	c1.842,1.876,3.783,3.663,5.185,5.91c0.639,1.022,1.02,1.948,1.262,3.121c0.143,0.679,0.283,2.989,1.416,2.946
	c0.914-0.033,0.719-1.518,0.871-2.112c0.358-1.398,1.229-2.754,2.018-3.937c1.035-1.551,1.146-3.398,1.978-5.09
	c0.979-1.992,1.891-4.063,3.623-5.524c1.586-1.337,3.674-2.113,4.729-4.008c1.072-1.918,2.181-3.608,3.455-5.399
	c1.063-1.495,1.908-3.229,3.312-4.448c0.766-0.664,1.528-0.892,2.137-1.668c0.651-0.835,1.035-1.848,1.744-2.645
	c0.713-0.8,1.662-1.358,2.426-2.107c1.082-1.063,2.086-2.203,3.316-3.102c2.063-1.503,4.604-2.666,7.084-3.264
	c2.563-0.617,5.315-0.021,7.688-1.385c2.229-1.283,4.709-2.146,6.752-3.739c1.922-1.497,3.412-3.484,4.635-5.573
	c1.504-2.566,2.863-5.373,5.367-7.128c3.955-2.771,7.93-5.021,12.436-6.823c2.38-0.951,4.949-1.146,7.447-1.595
	c2.504-0.449,4.869-1.352,7.33-1.975c2.578-0.654,5.271-0.79,7.918-0.833c2.682-0.043,5.418-0.825,8.08-0.509
	c1.75,0.208,3.57,0.4,5.195,1.125c1.453,0.646,2.522,2.271,4.157,2.397c1.334,0.104,2.646-0.416,3.979-0.323
	c1.801,0.126,3.283,1.042,4.902,1.735c1.827,0.785,3.01,0.544,4.934,0.331c1.316-0.146,2.623-0.296,3.934-0.487
	c2.754-0.403,4.953-0.146,7.59,0.726c2.299,0.76,4.496,1.438,6.31,3.129c1.358,1.269,2.258,2.942,3.592,4.23
	c1.486,1.437,3.221,1.661,5.111,2.307c1.45,0.493,2.881,1.059,4.231,1.793c2.99,1.627,5.563,4.13,6.793,7.354
	c0.49,1.284,1.568,1.718,2.486,2.646c1.188,1.199,1.918,2.779,3.1,3.991c1.541,1.577,3.273,3.013,4.906,4.49
	c1.563,1.413,3.568,1.823,5.318,2.945c3.68,2.358,5.004,7.041,8.754,9.313c1.24,0.752,2.699,1.063,3.895,1.891
	c1,0.69,1.701,1.766,2.75,2.387c2.027,1.2,4.693,0.598,6.931,0.919c2.848,0.41,5.678,1.247,7.938,3.097
	c1.91,1.563,3.164,2.096,5.611,2.377c2.559,0.294,5.092,0.963,7.67,1.029c3.207,0.083,9.049,1.459,11.295-1.577
	c1.322-1.783,2.75-3.575,4.027-5.388c1.198-1.698,1.346-3.812,2.44-5.56c1.302-2.069,3.947-3.121,5.064-5.227
	c1.01-1.896,0.18-4.493,0.18-6.534c0-4.948,0.002-9.899,0.002-14.852c0-15.015,0-30.026,0-45.039c0-11.342,0-22.684,0-34.023
	c0-27.743,0-55.487,0-83.232c0-26.893,0-53.784,0-80.677c0-43.226,0-86.45,0-129.677c0-12.438,0-24.878,0-37.317
	c0-12.49,0-24.981,0-37.474c0-0.032,0-0.063,0-0.097L41.811,211.122c-0.489,1.313-1.217,2.491-1.299,4.29
	c-0.2,4.438-1.604,8.531-2.149,12.896c-0.604,4.84-0.131,9.73,0.026,14.583c0.095,2.917,0.403,5.957-1.245,8.55
	c-1.053,1.656-3.044,2.584-3.95,4.313c-2.537,4.83,1.506,8.001,2.284,12.406c0.579,3.273-0.039,6.66,0.389,9.972
	c0.374,2.901,1.072,6.401,2.626,8.932c4.467,7.272,4.521,12.906,5.331,21.26c0.604,6.236-1.348,12.216-0.987,18.417
	c0.327,5.636,4.453,11.883-0.521,16.39c-4.546,4.118-11.227,6.127-16.217,9.835c-4.604,3.42-10.569,5.302-14.598,9.48
	c-4.034,4.188-4.563,10.311-6.49,15.538c-1.021,2.772-1.821,5.624-2.832,8.41c-1.159,3.182-2.485,5.159-2.114,8.575
	c0.523,4.797,2.079,9.694,3.094,14.417c2.029,9.471,4.068,18.938,6.104,28.406c5.883,27.369,11.766,54.738,17.646,82.107
	c6.079,28.282,12.156,56.565,18.234,84.851c2.313,10.756,4.624,21.512,6.937,32.268c1.205,5.607,1.261,6.125,2.883,12.926
	c1.518,6.361,1.518,6.361,3.833,14.041c7.217,5.121,14.328,8.33,20.451,12.258c10.724,6.879,21.447,13.758,32.173,20.637
	c24.417,15.66,48.835,31.322,73.253,46.982c12.41,7.961,24.82,15.922,37.23,23.881l198.935,190.367"/>
<circle fill="#D00049" cx="411.065" cy="826.96" r="11.5"/>
<circle fill="#D00049" cx="267.074" cy="754.964" r="11.5"/>
<circle fill="#D00049" cx="540.06" cy="513.477" r="11.5"/>
</svg>
