<?xml version="1.0" encoding="utf-8"?>
<!-- Generator: Adobe Illustrator 16.0.0, SVG Export Plug-In . SVG Version: 6.00 Build 0)  -->
<!DOCTYPE svg PUBLIC "-//W3C//DTD SVG 1.1//EN" "http://www.w3.org/Graphics/SVG/1.1/DTD/svg11.dtd">
<svg version="1.1" id="Layer_1" xmlns="http://www.w3.org/2000/svg" xmlns:xlink="http://www.w3.org/1999/xlink" x="0px" y="0px"
	 width="1692.708px" height="881.954px" viewBox="0 0 1692.708 881.954" enable-background="new 0 0 1692.708 881.954"
	 xml:space="preserve">
<path id="nordurland" fill="#CBC956" d="M995.527,289.356c-0.07,0.042-0.143,0.083-0.213,0.125c-4.037,2.318-7.342,2.61-9.465,7.019
	c-2.367,4.916-4.813,10.59-3.85,16.114c1.088,6.244,4.406,12.001,1.537,18.362c-1.809,4.007-5.061,7.135-6.896,11.117
	c-1.979,4.293-1.379,9.5-4.221,13.428c-8.059,11.133-27.941,11.738-40.113,10.656c-6.926-0.616-15.256-3.002-21.104-6.949
	c-8.137-5.489-6.895-14.339-10.221-22.69c-2.91-7.307-7.102-14.125-11.994-20.269c-9.734-12.222-22.537-22.4-36.641-29.125
	c-12.729-6.07-11.01-21.153-26.106-26.127c-6.541-2.155-11.352-2.161-17.586,0.464c-4.227,1.779-7.84,5.486-12.09,1.883
	c-2.965-2.516-1.016-8.478-5.443-9.688c-3.9-1.066-6.109,4.936-9.195,3.865c-1.016-0.353-2.291-3.402-3.283-4.254
	c-1.125-0.965-2.686-1.452-3.92-2.266c-4.234-2.788-7.775-4.899-13.018-5.201c-9.334-0.538-19.994,4.041-24.713,12.395
	c-5.59,9.899-3.438,20.58-0.721,30.974c2.73,10.438,1.918,18.794,2.883,29.27c0.449,4.892,3.461,6.688,4.879,11.555
	c1.627,5.587,0.248,11.764,1.695,17.452c2.381,9.361,7.777,20.471,14.1,27.833c2.77,3.225,9.084,7.278,9.646,11.879
	c0.639,5.212-4.723,8.984-3.893,15.075c1.381,10.15,9.342,11.937,17.189,15.664c5.043,2.395,7.482,5.89,10.352,10.618
	c5.971,9.852,8.912,20.029,9.363,31.514c0.225,5.67,2.391,11.251,1.672,16.958c-0.695,5.498-3.895,10.217-5.998,15.232
	c-9.17,21.872,5.252,44.612,7.891,66.15c0.551,4.496,0.75,15.598-5.707,8.016c-4.822-5.659-4.072-15.336-7.691-21.827
	c-4.824-8.656-10.631-14.371-12.082-24.694c-1.934-13.765-6.793-26.484-9.4-39.995c-1.486-7.702,0.256-15.787-1.008-23.576
	c-0.545-3.351-1.15-8.92-3.83-11.364c-4.477-4.079-10.252,0.687-14.363-1.52c-3.645-1.955-3.334-15.484-4.254-19.22
	c-1.494-6.075-4.344-10.104-6.92-15.441c-2.266-4.695-1.988-13.056-6.746-15.905c-2.264-1.354-5.393-0.09-7.814-0.725
	c-2.094-0.55-4.488-2.783-6.301-3.097c-4.699-0.813-5.82,3.17-10.316,2.854c-6.449-0.451-4.322-8.79-8.518-10.923
	c-8.941-4.545-18.141,6.101-19.082-9.634c-0.58-9.68,3.598-18.912,3.277-28.555c-0.367-11.044-2.928-23.41-6.66-33.781
	c-3.463-9.62-7.936-12.018-16.176-6.121c-2.869,2.054-9.582,9.362-13.799,7.622c-7.277-3.014,6.59-15.202,8.285-18.387
	c3.992-7.483,1.385-13.129-3.002-19.943c-3.484-5.417-5.475-13.933-12.25-16.207c-7.871-2.641-15.697,4.633-19.391,10.916
	c-1.156,1.968-5.398,11.229-8.137,10.131c-4.484-1.798,2.584-17.894,3.387-20.846c1.109-4.087,4.863-8.007,3.842-12.444
	c-1.303-5.66-12.598-12.606-18.395-10.481c-3.652,1.338-5.23,11.709-6.477,15.2c-1.123,3.145-9.371,28.039-15.623,21.653
	c-0.127-0.129,3.824-17.324,3.629-19.77c-0.502-6.323-3.203-11.512-10.437-10.433c-9.415,1.406-22.635,13.048-28.109,20.433
	c-6.484,8.748-9.612,22.576-8.081,33.301c0.854,5.965,4.041,11.138,6.91,16.31c1.119,2.018,7.19,11.061,3.339,12.133
	c-3.862,1.076-9.628-9.648-11.636-12.045c-1.964-2.343-6.014-7.833-9.618-7.457c-4.534,0.475-1.908,5.217-0.876,7.858
	c0.728,1.856,2.287,5.494-0.51,6.453c-3.729,1.276-8.725-5.729-11.354-7.381c-4.668-2.932-9.984-3.893-15.422-3.174
	c-8.521,1.125-16.163,3.753-24.798,3.798c-6.886,0.035-10.804,7.77-15.946,11.859c-4.723,3.756-9.315,7.866-9.171,14.417
	c0.217,9.771,5.45,18.72,5.044,28.659c-0.231,5.666,0.414,11.435-0.377,17.069c-0.75,5.331-2.601,7.204-6.479,10.318
	c-1.636,1.314-4.313,3.907-4.021,6.314c0.122,1.009,1.729,2.407,2.367,3.492c1.626,2.762,2.104,6.18,3.192,9.163
	c1.174,3.22,2.008,7.301,3.987,10.15c6.048,8.693,4.498,19.135,8.598,28.75c2.2,5.162,4.948,9.558,3.457,15.352
	c-1.273,4.942-3.802,6.273-3.11,11.813c0.76,6.095,3.771,9.602,1.087,15.741c-2.046,4.684-4.549,7.562-5.914,12.718
	c-1.954,7.387-9.806,18.54-18.495,17.315c-6.685-0.942-15.68-24.422-22.184-16.858c-3.107,3.615-0.728,9.911-5.854,12.893
	c-4.454,2.589-10.831-0.162-14.674-2.747c-10.259-6.904-6.155-18.835-7.098-29.499c-1.292-14.632-7.831-36.876-16.02-49.27
	c-4.419-6.688-5.794-5.16-12.732-8.479c-4.391-2.101-6.513-9.142-11.098-10.061c-4.9-0.982-6.913,5.438-11.104,0.813
	c-2.538-2.8-1.144-11.648-2.439-15.383c-2.107-6.069-7.296-9.293-10.811-14.322c-4.87-6.969-1.209-10.986-1.933-18.395
	c-1.34-13.684-14.752-23.501-19.521-35.877c-3.646-9.466-5.508-22.858-10.894-31.042c-3.845-5.84-8.429-10.235-11.725-16.651
	c-3-5.842-1.188-3.489-5.788-5.438c-3.17-1.341-11.465-5.393-14.812-5.064c-6.246,0.614-9.195,9.277-14.952,11.616
	c-6.96,2.828-13.849-1.906-20.717,1.319c-5.116,2.404-9.125,6.446-14.833,7.464c-4.216,0.752-11.493-2.015-11.979,4.446
	c-0.3,3.979,3.822,7.249,3.237,11.92c-1.229,9.816-8.269,19.237-4.308,29.326c1.834,4.671,3.155,9.879,4.917,14.767
	c2.299,6.382,2.077,11.207,1.524,17.809c-0.622,7.438,1.522,9.558,3.844,16.109c3.849,10.868,3.65,23.004,7.98,34.015
	c2.049,5.211,4.825,10.188,5.995,15.711c1.379,6.514-0.809,10.929-1.513,17.131c-0.674,5.94,2.567,9.452,3.498,15.263
	c0.97,6.055,4.473,10.74,6.139,16.465c1.765,6.065,0.01,12.292,1.316,18.405c2.744,12.838-0.521,24.457-5.658,36.095
	c-3.38,7.656,0.393,12.018-1.283,19.497c-1.741,7.767-4.587,16.542-7.079,24.036c-6.004,18.052-40.673,19.443-55.726,19.55
	c-8.58,0.062-21.44,0.967-25.701-8.424c-4.692-10.344,10.351-46.839-10.948-48.154c-10.163-0.628-18.346,10.038-23.931,16.981
	c-9.805,12.19-23.688,20.216-34.536,31.362c-13.987,14.371-13.171,30.766-19.204,48.782c-3.104,9.271-7.46,18.408-8.496,28.237
	c-0.938,8.917,3.193,16.58,3.346,25.312c0.127,7.288,2.922,10.876,4.571,17.345c1.622,6.359,1.788,12.631,3.965,19.144
	c2.192,6.569,9.401,13.736,5.174,21.398c-3.22,5.83-7.722,4.126-11.523-0.204c-7.517-8.559-9.328-22.729-12.693-33.261
	c-2.652-8.296-4.432-17.006-8.058-24.668c-5.655-11.96-12.396-11.431-11.148,2.231c0.734,8.061-0.771,15.552-0.335,23.449
	c0.951,17.242,8.175,42.066-0.728,57.898c-2.791,4.965-5.078,7.238-5.217,13.169c-0.134,5.703-1.71,7.036-3.505,11.985
	c-2.52,6.947,0.724,9.619,3.354,16.084c2.214,5.443,3.631,11.407,4.917,17.137c2.159,9.616-3.396,25.949,3.706,33.918
	c6.038,6.772,18.01,1.558,25.508,0.489c5.814-0.828,11.628-1.655,17.441-2.483c6.684-0.952,13.367-1.903,20.051-2.855
	c7.735-1.102,15.471-2.203,23.206-3.305c8.896-1.268,17.791-2.534,26.688-3.801c10.09-1.438,20.181-2.874,30.271-4.312
	c11.256-1.604,22.512-3.206,33.768-4.81c12.343-1.758,24.685-3.517,37.025-5.272c13.315-1.896,26.631-3.793,39.947-5.688
	c14.162-2.018,28.323-4.034,42.484-6.052c14.881-2.118,29.762-4.237,44.642-6.356c15.479-2.205,30.96-4.409,46.438-6.614
	c15.976-2.274,31.95-4.55,47.926-6.825c16.38-2.332,32.76-4.665,49.14-6.998c16.706-2.379,33.413-4.759,50.118-7.138
	c16.96-2.415,33.918-4.83,50.877-7.246c17.141-2.439,34.281-4.882,51.422-7.323c17.25-2.456,34.5-4.913,51.748-7.369
	c17.283-2.462,34.566-4.923,51.852-7.385c17.24-2.455,34.482-4.911,51.727-7.366c17.129-2.438,34.258-4.88,51.389-7.318
	c16.953-2.414,33.906-4.828,50.859-7.243c16.719-2.381,33.438-4.762,50.156-7.143c16.438-2.342,32.873-4.683,49.309-7.022
	c16.107-2.294,32.213-4.588,48.318-6.881c15.723-2.239,31.443-4.479,47.168-6.718c15.271-2.177,30.547-4.352,45.818-6.525
	c14.736-2.099,29.473-4.197,44.207-6.296c14.084-2.006,28.168-4.012,42.252-6.019c13.289-1.893,26.58-3.784,39.871-5.679
	c12.34-1.757,24.68-3.515,37.02-5.271c11.225-1.6,22.449-3.197,33.674-4.796c9.963-1.419,19.926-2.839,29.891-4.258
	c8.596-1.224,17.188-2.447,25.781-3.672c7.18-1.021,14.359-2.045,21.537-3.066c5.799-0.825,11.598-1.651,17.396-2.479
	c4.545-0.646,9.088-1.294,13.631-1.939c3.508-0.5,7.014-0.999,10.521-1.499c2.771-0.396,5.541-0.789,8.311-1.185
	c2.301-0.327,4.602-0.655,6.906-0.988c18.639-20.058,37.279-40.112,55.918-60.172c29.34-31.575,58.693-63.14,88.021-94.728
	c6.58-7.087,13.818-13.719,19.721-21.391c-11.271-4.858-1.084-16.592,3.709-22.39c3.178-3.844,7.734-7.521,6.156-13.056
	c-1.15-4.034-5.271-6.511-6.865-10.384c-2.547-6.189-0.893-13.565,3.568-18.445c3.902-4.27,9.641-6.458,13.814-10.435
	c4.713-4.484,1.223-6.742,1.529-12.031c0.592-10.209,14.313-15.51,17.727-24.411c7.199-18.765,13.322-36.046,8.527-56.465
	c-1.855-7.9-6.693-7.233-10.451-12.425c-6.506-8.997-3.52-23.424-15.582-28.978c-10.1-4.649-22.182,2.935-27.361,11.679
	c-3.303,5.578-5.646,20.377-15.242,16.234c-5.609-2.422-6.627-12.443-12.912-14.168c-5.473-1.503-10.389,3.29-15.887,2.478
	c-5.896-0.872-8.928-6.762-15.256-6.265c-3.201,0.251-10.414,6.822-13.051,2.616c-1.775-2.829,4.154-9.213,4.934-11.967
	c1.316-4.644,2.369-11.646,0.684-16.288c-2.9-7.973-7.332-4.842-13.836-2.808c-11.107,3.472-27.063-9.135-16.252-19.081
	c7.521-6.921,19.92-7.289,27.785-13.621c5.219-4.2,8.129-10.662,13.355-14.875c8.617-6.947,15.264-10.695,17.209-22.288
	c1.541-9.187,0.361-15.068-5.346-22.456c-4.836-6.259-12.844-12.672-11.779-21.438c1.314-10.854,13.158-11.498,20.779-16.125
	c5.959-3.618,11.311-7.991,16.574-12.537c10.609-9.165,20.813-16.554,33.602-22.458c9.014-4.161,32.137-11.313,36.086-21.692
	c3.6-9.467-18.164,2.625-21.898,4.227c-7.66,3.288-16.311,7.289-24.869,6.717c-5.838-0.391-12.951-5.293-17.545-8.701
	c-4.986-3.697-7.336-10.295-14.43-7.215c-5.084,2.207-8.535,7.704-13.256,10.559c-4.965,3.006-7.016,8.545-11.607,11.83
	c-4.26,3.044-9.717,2.729-11.469,8.613c-1.412,4.744-0.076,8.686-2.377,13.627c-1.857,3.99-3.414,8.185-5.697,11.961
	c-2.176,3.598-5.066,5.235-7.877,8.044c-4.877,4.875-3.576,11.901-11.02,15.522c-5.768,2.805-12.371,3.722-18.02,6.719
	c-7.1,3.766-12.406,6.167-20.949,4.588c-6.205-1.147-8.484-5.424-14.701-1.377c-1.9,15.066,1.176,26.084,4.158,40.493
	c1.549,7.484-4.563,19.625-11.402,22.815c-9.604,4.477-11.482-3.819-14.707-10.713c-4.602-9.841-13.791-5.628-19.141-13.325
	c-1.641-2.359-1.859-6.208-4.152-8.051c-2.791-2.244-6.756-1.161-9.797-3.236c-2.891-1.971-3.828-7.559-8.066-7.758
	c-3.217-0.152-3.391,3.188-6.037,4.246c-4.16,1.654-11.408,1.529-15.689,0.601c-14.531-3.151,0.961-17.194-6.242-22.76
	c-3.67-2.835-10.682-1.079-15.154-3.437c-2.92-1.539-8.777-5.306-6.047-9.303c2.188-3.203,7.828-3.479,10.561-8.061
	c5.955-9.981,14.148-20.767,12.877-33.158c-0.826-8.077-2.348-25.279-9.992-29.857c-8.75-5.239-21.52,1.459-29.514-4.597
	c-2.551-1.932-2.502-5.869-5.115-7.564c-3.803-2.464-8.988,1.169-13.02,0.981c-3.1-0.145-6.811-5.188-8.268-7.68
	c-2.576-4.401-2.955-10.922-3.471-15.889c-0.627-6.018,2.813-10.249,3.283-15.898c1.119-13.475-13.908-18.985-21.803-26.162
	c-3.949-3.592-2.521-5.552-8.143-5.02c-3.318,0.314-4.93,2.893-8.766,3.068c-5.047,0.229-12.793-0.982-17.314-3.069
	c-3.283-1.515-5.865-5.981-9.836-5.144c-6.988,1.474-6.916,12.526-9.664,17.666c-1.707,3.195-3.422,3.687-6.557,5.116
	c-4.043,1.843-3.277,4.002-5.184,7.674c-2.318,4.465-7.24,10.853-13.441,8.754c-6.32-2.14-4.813-12.939-11.328-16.456
	c-4.348-2.346-7.896,0.124-11.572,2.411c-2.758,1.716-2.699,2.26-4.666,0.082c-1.592-1.762-1.543-4.356-3.818-5.753
	c-3.865-2.372-9.953,1.21-14.104,1.398c-5.396,0.245-9.25,0.852-12.699,5.688c-2.764,3.874-5.959,9.805-5.693,14.539
	c0.324,5.771,6.547,14.628,9.021,19.914c1.77,3.776,11.539,16.508,10.541,20.149c-0.785,2.861-3.885,1.046-5.053,2.96
	c-3.799,6.229,2.727,13.531,3.939,19.563c1.572,7.82,1.4,15.7,5.063,23.01c3.988,7.965,2.025,18.165,7.471,24.928
	c5.51,6.84,8.563,10.677,10.363,20.116c9.828,51.438-44.4,64.518-77.543,85.994c-9.281,6.014-18.865,11.027-29.953,12.704
	c-25.305,3.829-26.143-19.774-33.33-37.604c-2.336-5.79-5.42-10.394-11.664-12.218c-5.24-1.531-13.047,1.094-18.387,1.504
	c-2.375,0.182-7.539-0.849-8.762,1.017c-1.635,2.498,1.625,6.109-1.258,8.648c-5.855,5.156-12.17-4.862-18.697-1.189
	c-4.578,2.582-14.234,14.684-14.172,20.163c0.047,4.21,4.211,8.55,5.223,12.649C1008.877,272.648,1003.574,284.581,995.527,289.356z
	"/>
</svg>
