<?xml version="1.0" encoding="utf-8"?>
<!-- Generator: Adobe Illustrator 16.0.0, SVG Export Plug-In . SVG Version: 6.00 Build 0)  -->
<!DOCTYPE svg PUBLIC "-//W3C//DTD SVG 1.1//EN" "http://www.w3.org/Graphics/SVG/1.1/DTD/svg11.dtd">
<svg version="1.1" id="Layer_1" xmlns="http://www.w3.org/2000/svg" xmlns:xlink="http://www.w3.org/1999/xlink" x="0px" y="0px"
	 width="1549.166px" height="664.934px" viewBox="0 0 1549.166 664.934" enable-background="new 0 0 1549.166 664.934"
	 xml:space="preserve">
<path id="sudurland_2_" fill="#181EB9" d="M1222.744,280.997c0.516,0.63,1.094,1.194,1.771,1.634
	c3.229,2.097,6.869-1.447,7.875,3.684c0.316,1.619,1.242,2.963,2.17,4.306c0.888,1.28,1.519,2.743,2.746,3.755
	c2.531,2.084,6.492,3.715,9.787,3.798c1.476,0.037,2.863-0.26,4.318,0.095c1.52,0.369,2.551,0.634,4.137,0.281
	c1.197-0.267,2.313-0.956,3.578-0.771c3.127,0.458,5.895,2.451,9.146,2.802c2.881,0.311,5.907,0.082,8.813,0.188
	c2.986,0.111,5.254-1.23,8.051-1.997c2.254-0.618,4.726-0.613,6.607-2.16c1.869-1.535,3.047-3.57,5.35-4.59
	c1.334-0.59,2.666-1.775,4.16-1.93c1.789-0.186,1.68,1.417,2.961,2.188c3.314,1.992,7.232,2.969,10.812,4.376
	c1.731,0.682,2.557,0.94,4.317,0.271c4.168-1.582,8.533-2.135,11.75-5.571c2.677-2.86,3.22-7.033,2.394-10.777
	c-0.572-2.602-1.457-5.446-3.207-7.516c-1.611-1.905-3.994-2.542-6.222-3.431c-1.332-0.531-3.354-0.979-4.325-2.09
	c-1.423-1.625,0.502-2.648,1.479-3.782c1.08-1.25,1.809-3.019,3.396-3.736c1.582-0.716,3.078-1.022,4.586-2.044
	c1.33-0.898,1.815-2.456,2.938-3.529c1.201-1.147,2.787-0.997,4.211-1.681c1.521-0.73,2.765-2.101,4.263-2.948
	c1.815-1.029,3.6-2.203,5.02-3.748c1.568-1.705,1.943-3.41,2.582-5.541c1.084-3.618,1.271-7.312,0.156-10.953
	c-0.74-2.425-0.769-4.992-1.404-7.438c-0.521-2.004-2.012-3.5-1.088-5.631c0.559-1.288,1.566-2.268,2.361-3.398
	c0.725-1.029,0.94-2.353,1.774-3.31c0.818-0.941,2.078-1.454,3.221-1.871c1.617-0.589,2.88-2.407,4.617-2.635
	c1.553-0.203,2.92,1.086,4.433,1.198c2.416,0.182,4.168,0.332,6.467,1.198c4.147,1.563,7.229-2.087,10.229-4.342
	c2.363-1.777,4.566-3.883,6.078-6.444c1.295-2.188,1.457-3.753,4.033-4.628c2.676-0.91,5.367-1.764,7.146-4.096
	c2.008-2.631,3.278-5.765,4.817-8.668c1.756-3.312,2.164-6.707,1.678-10.4c-0.436-3.3-1.651-6.421-3.18-9.362
	c-0.51-0.98-1.066-1.861-1.799-2.691c-0.303-0.345-1.773-1.465-1.64-2.006c0.214-0.857,2.912-0.378,3.507-0.345
	c2.754,0.155,4.782-0.744,7.323-1.671c1.562-0.567,3.107-1.214,4.511-2.114c2.928-1.886,4.709-4.793,5.942-7.986
	c1.527-3.952,2.396-8.173,3.23-12.315c0.832-4.123,1.748-8.468,1.26-12.69c-0.404-3.502-2.408-6.287-4.666-8.867
	c-2.539-2.896-4.656-6.03-7.059-9.029c-1.47-1.831-2.504-4.023-1.584-6.369c0.768-1.96,2.326-2.681,4.266-3
	c1.906-0.313,3.166-1.102,4.842-2.031c1.773-0.983,4.111-1.619,6.146-1.297c1.938,0.31,3.219,1.743,4.545,3.054
	c1.588,1.566,3.396,2.821,5.156,4.187c1.582,1.229,2.916,2.669,4.922,3.171c1.973,0.494,4.11,1.104,6.108,1.435
	c1.849,0.305,3.658-0.58,5.525-0.322c1.978,0.271,3.742,1.358,5.695,1.74c1.832,0.357,3.735,0.063,5.563-0.186
	c2.521-0.344,4.953-1.156,7.48-1.458c3.873-0.463,7.045,1.189,10.221-1.809c1.399-1.323,2.021-3.196,4.248-2.99
	c3.061,0.283,4.557,3.301,7.326,4.203c1.948,0.635,4.471,0.528,6.508,0.59c2.402,0.072,4.791-1.043,7.146-1.43
	c2.019-0.331,3.563-0.812,4.164-2.98c0.709-2.543,0.461-4.708,3.015-6.228c2.457-1.463,5.373-1.548,8.084-2.195
	c2.854-0.682,5.649-1.855,8.401-2.871c4.354-1.604,7.724-5.113,9.601-9.308c2.131-4.761,1.895-9.509,1.977-14.595
	c0.043-2.646,0.855-5.385-0.264-7.924c-1.492-3.395-4.906-4.535-7.871-6.275c-5.728-3.361-11.762-6.092-17.611-9.219
	c-2.715-1.452-5.133-3.073-8.104-3.987c-2.574-0.792-4.654-1.79-6.715-3.54c-2.324-1.975-4.892-2.983-7.494-4.485
	c-1.959-1.129-3.646-2.682-5.205-4.302c-1.107-1.149-3.422-3.021-3.584-4.706c-0.123-1.263,2.299-0.979,3.072-1.146
	c1.66-0.354,3.014-1.428,4.479-2.215c1.326-0.71,2.658-1.235,3.939-2.05c1.789-1.14,3.694-2.858,5.877-3.129
	c2.904-0.358,3.338,2.479,4.813,4.216c2.832,3.331,7.146,4.662,10.244,7.626c3.17,3.033,4.631,7.459,8.178,10.151
	c3.64,2.759,8.382,3.688,11.714,6.914c1.846,1.79,4.01,2.304,6.131,3.6c1.885,1.148,3.721,3.126,5.274,4.693
	c1.937,1.947,1.08,4.951,1.775,7.366c0.539,1.874,0.627,3.956,0.535,5.893c-0.172,3.589-0.367,6.894-0.025,10.466
	c0.935,9.743,0.34,19.552-0.149,29.302c-0.117,2.356,0.832,5.96,0.096,8.151c-2.084,6.197-8.453,9.305-13.711,12.375
	c-9.722,5.678-17.049,14.604-25.996,21.353c-9.068,6.843-18.881,12.612-28.156,19.159c-12.443,8.784-21.803,19.792-32.127,30.825
	c-8.242,8.809-17.744,16.458-26.533,24.714c-9.184,8.625-18.432,17.188-27.354,26.083c-4.918,4.903-9.736,9.908-14.377,15.076
	c-10.476,11.668-19.781,24.598-29.512,37.071c-9.984,12.804-17.75,28.768-29.763,39.6c-6.561,5.915-13.889,11.174-18.969,18.51
	c-5.129,7.405-8.945,15.748-14.01,23.228c-2.588,3.821-4.563,7.71-6.715,11.822c-1.509,2.883-2.808,9.912-4.354,11.891
	c-6.764,8.628-24.566,6.631-34.244,7.605c-17.869,1.801-35.205,6.735-53.258,8.125c-18.686,1.438-37.434,1.672-56.141,2.719
	c-31.185,1.745-61.974,5.267-91.502,15.979c-26.963,9.784-53.83,24.198-72.976,46.001c-19.471,22.17-26.934,50.285-39.108,76.477
	c-6.658,14.322-15.226,27.527-27.322,37.854c-15.074,12.869-36.484,22.849-54.521,31.006c-10.694,4.837-23.53,7.179-35.02,9.234
	c-23.771,4.255-46.854,12.144-69.213,20.045c-16.449,5.813-31.937,13.522-49.765,13.438c-18.271-0.091-35.883-5.947-53.51-10.039
	c-8.203-1.903-20.358-5.615-27.95-0.905c-2.747,1.704-3.366,4.521-6.77,5.417c-3.811,1.004-9.109-1.612-13.111-1.541
	c-11.942,0.214-17.111,1.115-28.066-5.078c-8.76-4.952-17.699-9.806-26.678-14.349c-9.795-4.956-19.797-9.813-30.35-12.894
	c-9.637-2.814-16.456-7.712-25.32-12.148c-33.148-16.596-66.877-30.985-103.563-37.412c-19.042-3.337-40.271-4.541-59.359-0.854
	c-17.98,3.473-34.838,1.082-48.259-11.739c-14.391-13.748-28.919-27.287-43.56-40.763c-14.105-12.98-25.85-28.211-39.405-41.729
	c-16.583-16.534-33.889-32.406-52.381-46.795c-17.458-13.582-36.641-24.526-53.873-38.365c-7.94-6.377-16.567-6.799-25.646-10.723
	c-8.857-3.829-18.581-8.844-26.844-13.853c-6.774-4.105-18.951-11.487-23.188-18.112c-2.279-3.564-1.634-6.722-2.021-10.73
	c-0.649-6.73-8.638-21.102-0.472-25.969c5.423-3.23,14.524,1.335,20.276,1.516c9.346,0.292,19.279-2.688,28.702-3.288
	c16.955-1.086,17.663-17.033,15.364-30.427L54.085,156.713c-1.95-6.44-8.063-10.454-8.711-17.771
	c-0.493-5.584,1.51-10.496,4.56-14.784c0.96-1.351,2.023-2.64,3.146-3.866c2.801-3.065,2.447-5.771,3.221-9.593
	c1.648-8.145,2.872-16.269,4.676-24.444c5.155-23.393,10.097-46.84,15.048-70.277C76.269,14.815,80.252,0.524,79.437,0
	c0.016,0.01,165.667,106.261,165.667,106.261l187.652,179.991c0.15,0.252,0.302,0.506,0.451,0.759
	c1.053,1.768,2.104,3.533,3.156,5.3c2.313,3.885,4.625,7.769,6.938,11.651c3.45,5.794,6.9,11.589,10.354,17.384
	c4.04,6.785,8.08,13.572,12.121,20.357c4.313,7.247,8.631,14.494,12.943,21.74c4.402,7.395,8.808,14.788,13.209,22.184
	c4.198,7.053,8.397,14.104,12.599,21.156c3.578,6.012,7.158,12.021,10.738,18.032c2.604,4.37,5.204,8.739,7.808,13.11
	c0.952,1.604,1.903,3.203,2.856,4.806c0.572,0.964,1.207,3.618,2.313,4c0.943,0.323,3.561-1.179,4.243-1.875
	c4.396-4.531,5.843-6.682,12.765-3.254c4.859,2.406,9.028,7.465,11.033,12.433c1.732,4.292,7.34,24.689,11.089,11.021
	c3.246-11.831-10.801-13.392-12.676-22.57c-1.807-8.842,10.883-15.642,17.498-18.25c10.814-4.266,51.432-20.845,43.169,5.174
	c3.979-0.381,4.347-4.79,8.163-6.235c4.508-1.708,11.886,0.11,14.974,3.531c3.643,4.036,4.15,10.813,8.295,14.884
	c3.197,3.132,18.068,7.958,11.789,13.541c-3.951,3.515-12.779-2.098-16.836,0.568c-4.008,2.634-1.521,11.844-3.264,16.138
	c-0.525,1.293-1.849,1.599-2.605,2.646c-0.582,0.807-0.785,2.646-1.131,3.653c-1.162,3.381,2.348,1.444,4.106,1.521
	c1.521,0.065,3.035,0.229,4.537,0.466c3.115,0.488,6.22,1.284,9.127,2.519c4.377,1.857,9.729,5.586,7.771,11.066
	c-3.574,9.982-8.885-1.645-14.1-1.247c-10.945,0.833,3.03,10.546,6.608,12.099c-1.664,3.5-3,11.284-8.045,9.264
	c-1.848-0.741-1.356-5.479-4.338-6.417c-3.559-1.119-7.117,3.147-9.331,5.36c4.381,7.916,15.038,10.142,22.963,12.419
	c4.221,1.213,8.459,2.264,12.549,3.896c2.33,0.931,4.826,1.983,6.732,3.66c0.854,0.753,1.768,2.664,2.963,1.979
	c1.244-0.711,2.588-3.619,3.477-4.805c11.625-15.521,24.724-29.848,36.802-45.002c5.018-6.295,10.035-12.59,15.053-18.887
	c5.396-6.771,10.795-13.543,16.193-20.316c5.682-7.127,11.362-14.256,17.045-21.385c5.907-7.41,11.814-14.822,17.723-22.234
	c6.051-7.59,12.103-15.18,18.148-22.77c6.059-7.604,12.116-15.201,18.176-22.804c5.922-7.432,11.846-14.86,17.768-22.293
	c5.685-7.13,11.365-14.259,17.05-21.388c5.381-6.752,10.764-13.504,16.145-20.256c5.014-6.29,10.025-12.58,15.039-18.869
	c4.502-5.646,9.004-11.295,13.504-16.941c3.771-4.729,7.537-9.454,11.305-14.183c2.822-3.542,5.646-7.084,8.47-10.626
	c0.229-0.288,0.442-0.586,0.657-0.886c1.439-2.012,2.748-4.113,4.229-6.098c1.469-1.971,3.035-4.184,5.486-4.914
	c1.086-0.324,2.008-0.59,2.895-1.35c0.467-0.397,0.746-0.979,1.193-1.361c2.397-2.064,7.524-1.381,10.473-2.315
	c3.369-1.069,6.742-0.828,10.133-1.621c8.314-1.943,16.039-8.415,21.729-14.536c4.082-4.394,6.108-9.958,5.533-15.975
	c-0.103-1.042-0.554-2.006-0.189-3.038c0.422-1.196,1.699-1.985,2.348-3.051c0.746-1.229,1.074-2.698,1.478-4.065
	c0.555-1.888,1.088-3.791,1.381-5.74c0.207-1.384-0.279-3.674,1.521-3.957c2.709-0.429,5.619-0.021,8.365-0.248
	c2.313-0.19,3.938-1.104,5.943-2.177c2.156-1.153,4.572-1.361,6.734-2.398c1.946-0.937,2.479-3.085,4.252-4.245
	c2.399-1.575,4.553-3.486,6.854-5.2c1.309-0.976,2.439-2.255,3.959-2.914c0.623-0.27,2.861,0.703,3.527,0.907
	c1.092,0.334,2.151,0.742,3.207,1.181c2.106,0.878,4.174,1.79,6.422,2.262c3.924,0.821,9.117,1.006,12.553-1.421
	c2.092-1.479,3.531-4.199,4.176-6.642c0.935-3.528-0.135-6.743-0.315-10.222c-0.027-0.52,4.291,0.065,4.762,0.395
	c1.232,0.858,1.85,2.486,2.822,3.598c1.596,1.816,5.059,1.981,5.854,4.526c0.955,3.046-2.031,5.427-3.279,7.854
	c-1.147,2.234-1.459,4.869-1.771,7.332c-0.318,2.501-0.18,4.542,1.18,6.719c1.773,2.84,2.521,5.672,2.212,9.022
	c-0.281,3.066-0.246,6.146-0.511,9.218c-0.254,2.962-1.299,5.734-1.537,8.674c-0.227,2.813-1.469,5.223-1.612,8.045
	c-0.273,5.334-0.859,10.681-0.793,16.025c0.035,2.832,0.516,5.769-0.121,8.563c-1.234,5.406-6.285,7.054-9.769,10.739
	c-2.975,3.15-5.323,6.368-6.481,10.591c-1.135,4.122-1.109,7.867,1.178,11.607c1.266,2.069,2.467,4.378,4.451,5.854
	c2.598,1.933,5.719,2.2,8.846,2.23c3.559,0.034,6.979,0.327,10.322,1.638c3.897,1.527,8,2.386,11.766,4.261
	c5.201,2.59,10.703-0.006,16.092,1.023c1.882,0.357,3.601,1.267,5.517,1.59c4.352,0.733,9.471,0.975,13.211-1.775
	c1.188-0.873,2.021-2.291,3.346-2.974c2.472-1.272,5.537-0.012,8.152-0.025c2.084-0.012,4.356-0.09,6.279-0.979
	c1.754-0.813,3.104-2.264,4.795-3.185c2.276-1.237,4.5-2.657,6.803-3.844c2.402-1.238,3.627-2.272,4.807-4.732
	c1.354-2.813,3.505-3.552,5.779-5.354c2.15-1.702,2.824-4.606,4.277-6.821c3.854-5.859,3.646-15.646-2.328-20.08
	c-1.301-0.965-2.791-0.911-3.955-1.979c-1.305-1.195-2.635-2.456-4.162-3.379c-1.608-0.972-4.203-0.569-5.479-1.905
	c-1.072-1.127-0.994-3.175-1.371-4.594c-0.336-1.265-1.047-2.466-1.104-3.796c-0.076-1.8,1.402-2.135,2.666-2.897
	c1.541-0.935,2.924-2.278,3.955-3.756c1.021-1.464,1.865-3.278,2.316-5.002c0.322-1.232,0.162-4.188,1.143-5.088
	c0.893-0.82,4.463,0.681,5.699,1.025c2.549,0.712,4.049,2.12,6.742,1.091c2.326-0.891,4.848,0.319,7.373-0.135
	c1.348-0.24,2.498-0.512,3.896-0.345c1.252,0.15,2.426,0.662,3.674,0.823c1.15,0.147,2.324-0.073,3.468,0.106
	c0.334,0.054,1.42,7.525,1.713,8.325c0.496,1.355,1.209,2.55,2.26,3.549c1.799,1.715,0.279,2.841-0.486,4.78
	c-0.563,1.423-0.936,3.008-1.135,4.522c-0.33,2.514-0.441,5.063-1.762,7.302c-1.426,2.415-3.426,4.308-4.281,7.063
	c-1.225,3.929-0.799,8.456,0.719,12.224c1.566,3.883,4.166,5.787,7.935,7.313c2.35,0.949,5.625,1.636,7.012,3.998
	c0.877,1.495,0.319,3.673,0.932,5.338c0.744,2.021,2,3.808,2.767,5.818c1.26,3.306,2.955,6.354,6.391,7.732
	c2.334,0.936,4.332,1.998,6.939,1.867c1.577-0.078,3.084-1.192,4.688-0.92c3.217,0.547,3.715,4.652,5.096,6.991
	C1221.264,278.826,1221.924,279.993,1222.744,280.997z"/>
<circle fill="#D00049" cx="549.268" cy="551.791" r="11.5"/>
<circle fill="#D00049" cx="477.268" cy="467.291" r="11.5"/>
<circle fill="#D00049" cx="451.583" cy="533.467" r="11.5"/>
<circle fill="#D00049" cx="469.083" cy="410.467" r="11.5"/>
<circle fill="#D00049" cx="325.583" cy="444.291" r="11.5"/>
<circle fill="#D00049" cx="902.083" cy="404.467" r="11.5"/>
<circle fill="#D00049" cx="621.592" cy="649.331" r="11.5"/>
<circle fill="#D00049" cx="1176.583" cy="284.467" r="11.5"/>
<circle fill="#D00049" cx="1421.083" cy="192.967" r="11.5"/>
</svg>
