<?xml version="1.0" encoding="utf-8"?>
<!-- Generator: Adobe Illustrator 16.0.0, SVG Export Plug-In . SVG Version: 6.00 Build 0)  -->
<!DOCTYPE svg PUBLIC "-//W3C//DTD SVG 1.1//EN" "http://www.w3.org/Graphics/SVG/1.1/DTD/svg11.dtd">
<svg version="1.1" id="Layer_1" xmlns="http://www.w3.org/2000/svg" xmlns:xlink="http://www.w3.org/1999/xlink" x="0px" y="0px"
	 width="794.945px" height="556.442px" viewBox="0 0 794.945 556.442" enable-background="new 0 0 794.945 556.442"
	 xml:space="preserve">
<path id="vatnajokull" fill="#589B19" d="M349.35,5.648c1.783-1.348,2.703-2.93,4.318-4.068c3.498-2.467,9.314-1.645,12.951-0.243
	c2.352,0.903,4.299,1.479,6.988,1.375c2.309-0.089,3.877-0.896,5.744-1.263c5.256-1.032,7.652,2.84,11.063,5.201
	c3.9,2.701,6.877,3.24,8.942,7.816c1.651,3.666,1.217,7.924,2.701,11.807c1.338,3.496,0.854,8.312,0.299,12.185
	c-0.418,2.901-2.074,3.146-3.631,5.262c-1.119,1.522-1.637,3.223-2.87,4.811c-1.242,1.603-2.797,2.604-3.699,4.229
	c-1.09,1.963-0.5,4.516-1.744,6.479c-0.844,1.329-2.732,2.527-3.758,3.786c-1.355,1.668-1.621,4.117-3.506,5.23
	c-0.049,0.848,0.215,2.147-0.043,2.957c-0.34,1.057-0.992,1.18-1.563,2.133c-0.971,1.627-1.58,3.664-1.992,5.367
	c-0.666,2.752,0.357,9.5,2.305,11.25c3.551,3.188,9.402-1.171,11.695-4.068c1.607-2.036,2.916-4.088,5.006-5.756
	c1.48-1.183,3.645-1.981,4.311-3.913c1.439-4.169-5.35-7.196-1.064-10.074c1.271-0.853,4.855-2.042,6.306-2.188
	c2.259-0.229,4.072,1.729,5.513,3.25c2.899,3.061,3.621,8.179,3.225,12.238c-0.277,2.844-0.715,3.737,1.953,5.067
	c2.072,1.033,3.957,0.568,5.504,2.5c4.561,5.697,0.086,10.474-1.748,16.201c-0.879,2.744-1.066,5.416-2.508,7.918
	c-1.473,2.556-4.377,5.29-5.473,8.04c-2.73,0.938-8.705,5.471-6.972,9.098c2.678,5.591,8.405-1.657,11.229-2.882
	c2.443-1.059,5.141-1.376,7.191-2.75c2.012-1.348,3.303-2.604,5.025-4.256c2.695-2.58,6.402-5.222,8.361-8.219
	c2.188-3.353,4.797-6.277,7.125-9.275c2.738-3.523,3.67-8.53,5.832-12.438c0.992-1.79,2.125-3.669,3-5.493
	c0.625-1.297,0.479-1.752,1.496-2.867c0.689-0.759,1.613-1.154,2.438-1.883c2.646-2.349,4.693-6.15,6.609-9.055
	c1.191-1.808,2.639-2.706,4.275-4.14c1.391-1.217,1.854-2.832,2.898-4.313c2.689-3.793,6.34-3.909,10.771-3.994
	c4.451-0.084,7.156-3.732,10.932-5.306c3.689-1.538,6.416-3.616,8.631-6.951c0.398-0.602,0.611-0.945,1.145-1.284
	c0.32-1.203,2.285-4.611,3.1-5.672c1.135-1.479,3.637-2.9,5.256-3.73c1.846-0.944,3.982-1.834,5.953-2.11
	c2.188-0.31,4.348-1.47,6.457-1.771c2.064-0.295,2.549,0.621,4.529,1.074c2.246,0.514,3.125-1.828,5.705-1.849
	c0.023-0.209,0.051-0.416,0.086-0.621c1.957,0.103,3.791-0.662,5.951-0.53c2.68,0.165,2.619,1.107,4.313,2.752
	c1.98,1.922,4.004,1.918,6.389,1.167c2.031-0.641,3.252-1.741,4.699,0.644c1.033,1.697,0.086,5.205,1.352,6.688
	c1.605,1.884,4.18,0.16,5.314-1.5c1.553-2.262,0.879-3.354,3.689-4.236c1.627-0.512,4.543-1.137,6.262-0.762
	c2.162,0.47,2.66,2.053,2.521,4.199c0.861,0.657,2.076,1.03,3.182,0.843c0.961,1.024,2.73,1.889,3.543,2.95
	c1.264,1.653,0.635,2.701,3.438,2.506c1.746-0.121,3.391-1.34,4.807-0.181c1.512,1.236,0.771,3.017,1.002,4.681
	c0.248,1.809,0.65,3.809,2.484,4.248c2.305,0.553,2.689-1.541,4.322,1.184c0.697,1.163,0.668,2.916,1.387,4.123
	c0.49,0.826,2.811,3.502,3.094,0.982c2.602-0.508,1.674,3.549,1.742,5.176c2.201,0.393,3.504-1.451,5.73-0.725
	c1.83,0.596,3.197,2.797,3.916,4.375c0.818,1.796,0.797,3.834,1.625,5.442c0.926,1.806,0.369,1.468,2.654,1.693
	c1.189,0.119,2.357,0.116,3.541,0.25c2.551,0.29,3.082,0.61,4.617,2.669c0.85,1.138,2.732,4.521,3.885,4.837
	c1.271,0.347,1.785-0.7,2.707-1.059c0.744-0.289,1.613-0.644,2.785-0.697c1.633-0.074,4.906-0.375,5.555,1.216
	c1.527,1.094,2.207,3.073,4.201,3.854c2.033,0.795,4.674,0.438,6.764,0.938c4.229,1.009,8.961,0.744,13.543,0.744
	c2.428,0,4.85-0.043,7.137,0.307c2.619,0.401,3.225,0.193,5.434-1.688c3.32-2.83,4.805-5.918,7.947-8.558
	c1.199-1.004,3.049-2.444,3.627-3.916c0.871-2.204,0.02-3.641,1.736-5.215c2.574-2.356,8.217-2.672,10.021,0.308
	c2.379,3.926-0.102,9.041-0.955,13.012c-0.646,3.004-2.785,9.186-0.334,12.063c0.873,1.021,2.998,2.168,4.082,2.927
	c1.578,1.102,3.107,2.599,4.75,3.899c3.275,2.599,7.184,4.015,6.969-2.113c-4.354-0.147-5.439-0.98-7.219-4.829
	c-1.459-3.15-1.113-5.5,1.063-8.134c2.266-2.733,4.145-2.321,7.939-2.313c2.965,0.008,6.604-2.842,8.957-0.457
	c0.404,1.904,0.43,4.022,0.566,5.933c2.48-0.095,4.637,1.022,6.521-0.731c1.322-1.229,1.967-2.83,3.58-4.063
	c2.637-2.014,7.863-5.582,11.445-3.492c0.811,0.474,1.025,1.506,1.629,2.062c0.977,0.896,2.033,0.879,3.115,1.444
	c1.639,0.859,2.945,1.854,4.439,3.055c2.75,2.21,6.24,4.499,8.438,7.058c2.059,2.398,1.553,6.17-1,8.151
	c-2.258,1.751-6.842,0.565-8.176,3.3c-1.852,3.795,6.006,3.522,7.838,3.502c4.363-0.051,11.564-1.643,14.893,1.99
	c1.744,1.905,0.678,4.785,2.551,6.744c2.838,2.966,12.465,3.232,11.168,9.218c-2.742-0.138-4.523-3.479-6.916-4.27
	c-2.197-0.725-6.322-0.925-8.76-0.387c-0.623,0.137-3.365,1.028-3.797,1.438c-1.209,1.147-0.574,2.52-0.996,4.006
	c-0.746,2.634-2.832,3.108-5.707,3.294c-0.768,1.479-0.996,4.193,0.006,5.656c1.082,1.574,3.67,1.037,2.928,3.763
	c-2.426-0.186-4.074,1.09-6.17,1.594c-1.768,0.424-4.709,0.68-3.822,3.456c0.428,1.337,3.863,3.151,5.072,4.156
	c2.154,1.791,3.4,1.702,6.414,1.875c3.006,4.488-4.094,4.665-6.178,5.749c-0.838,1.272-1.305,2.172-2.043,3.457
	c-1.045,1.815-1.471,2.099-3.748,2.25c-2.096,0.141-2.736-0.879-4.295-1.263c-2.273-0.561-3.031,0.931-4.414,1.807
	c-0.139,2.63,1.006,4.146,1.463,6.45c0.586,2.948,0.018,3.973,2.008,6.194c2.498,2.786,6.326,4.674,9.451,6.604
	c0.063,0.233-0.004,0.436,0.078,0.665c2.41,1.229,4.209,2.558,6.701,3.298c2.445,0.727,5.898,1.873,2.561,4.022
	c-2.268,1.461-4.611,0.118-6.996-1.021c-1.555-0.742-7.344-2.785-7.852-4.229c-2.381-0.145-6.322-1.671-8.65-2.835
	c-2.67-1.336-4.359-3.328-5.908-5.701c-1.445-2.217-3.416-4.604-4.943-6.932c-1.623-2.474-3.383-5.992-7.156-5.269
	c-1.15,2.626,1.123,3.837,2.461,5.693c1.646,2.286,2.346,5.025,3.287,7.498c0.949,2.492,2.873,4.812-0.934,5.265
	c-2.408,0.287-4.166-1.203-5.674-2.992c-1.496-1.776-1.971-4.303-4.693-3.521c-1.977,0.566-3.648,3.188-3.992,5.007
	c-0.521,2.762-0.465,4.691-1.758,7.313c-1.049,2.12-3.209,4.057-4.314,6.375c-2.014,4.229-2.082,11.692,1.484,15.219
	c3.035,3,7.795,2.791,11.391,4.744c2.656,1.444,4.279,3.752,6.146,6.16c0.723,0.932,1.504,2.244,2.551,3.146
	c1.016,0.875,2.242,1.036,2.793,2.257c2.023,0.538,2.834,3.027,2.957,5.042c0.059,0.965-0.141,2.041,0.104,2.932
	c0.23,0.834,1.396,1.824,1.639,2.563c0.717,2.214-0.619,3.869-2.807,2.068c-1.402-1.158-1.592-3.174-2.994-4.256
	c-3.492-2.693-7.854-0.662-11.492-0.105c-2.082,0.317-4.617,0.229-6.398-0.77c-2.225-1.248-2.648-3.624-4.105-5.375
	c-1.74-2.093-4.469-3.119-5.566-5.488c-1.412-3.043,0.621-6.998-2.402-8.812c-2.396-1.439-4.879-2.396-7.217-4.299
	c-1.813-1.475-5.104-5.501-7.715-4.921c-1.875,3.069-5.168,5.06-6.793,8.477c-0.994,2.088-3.275,9.57-5.961,9.273
	c-0.127,2.849,7.854,1.287,9.643,2.264c1.576,0.857,5.076,5.059,4.086,7.191c-1.771,3.832-14.523-2.904-16.061-5.199
	c-0.58-0.395-1.43-0.674-2.168-0.754c-0.135,2.542-0.039,5.141-0.039,7.698c0,1.277,0.141,2.608-0.318,3.693
	c-0.439,1.044-1.742,1.537-1.705,2.795c-3.707-0.233-9.582,0.063-10.738,4.506c-1.084,4.16,3.219,7.938,5.824,10.453
	c1.373,1.326,3.121,2.146,4.5,3.502c1.482,1.461,2.67,3.222,3.994,4.295c1.748,1.416,3.771,2.263,5.484,3.722
	c1.574,1.342,3.381,3.135,4.949,4.743c2.158,2.212,5.195,3.438,7.689,5.548c2.373,2.007,3.752,4.567,5.367,7.2
	c1.932,3.146,4.508,2.509,7.438,4.067c3.756,2,1.492,3.75,0.977,7.199c-1.125,0.056-2.346-0.006-3.426,0.131
	c-0.063,1.354-1.381,3.793-2.018,5.164c-0.824,1.777-1.221,4.113-3.729,3.756c-3.371-0.479-6.104-6.047-8.605-8.213
	c-1.543-1.336-3.164-2.409-4.77-3.598c-1.898-1.404-3.93-1.509-5.918-2.466c-3.48-1.674-4.879-4.789-5.75-8.737
	c-0.262-1.175-0.375-1.683-0.787-2.707c-2.648-1.894-6.139-4.624-9.17-5.828c-0.313-1.269-1.793-3.13-2.553-4.222
	c-1.156-1.668-2.08-2.808-3.99-3.924c-3.43-2.002-8.58-2.715-12.764-1.582c-1.67,0.451-2.711,1.938-4.037,2.699
	c-1.557,0.896-3.641,1.281-5.262,2.014c-1.48,0.669-9.244,2.865-8.965,3.986c-4.428,1.51-7.773,1.648-11.723,4.369
	c-4.438,3.057-2.615,8.615,0.74,11.582c1.646,1.453,3.613,2.25,5.502,3.117c1.814,0.834,3.191,2.058,4.813,3.469
	c3.061,2.666,5.357,5.74,9.182,7.539c3.986,1.875,7.789,4.797,12.256,6.418c2.49,0.904,5.244,0.938,7.758,1.818
	c2.438,0.857,4.027,2.266,6.051,3.75c3.26,2.395,7.512,5.09,11.506,6.262c2.213,0.65,4.408-0.172,6.375,1.363
	c1.709,1.332,2.395,4.516,0.367,5.93c-4.143,2.883-9.967-2.6-13.986-3.504c-2.283-0.514-4.5-0.697-6.736-1.361
	c-2.096-0.623-3.791-1.328-6.02-1.688c-5.119-0.822-8.531-2.895-12.873-5.752c-2.83-1.861-8.211-3.926-10.328,0.012
	c-3.357,6.248,3.371,6.57,6.633,9.281c3.719,3.088,7.146,6.453,10.715,9.242c2.537,3.938,6.859,3.469,10.529,0.977
	c3.432-2.328,8.287-3.613,12.27-4.762c1.152-0.332,5.656-0.908,6.707-0.207c1.838,1.229,0.586,4.348-0.4,5.709
	c-2.506,3.465-6.199,6.047-10.805,6.75c-2.215,0.338-3.406,1.705-5.189,2.492c-2.082,0.916-3.963,0.383-6.307,0.758
	c-2.977,0.477-3.689,2.076-4.748,4.555c-0.764,1.789-2.393,3.508-2.781,5.156c-5.67,0.943-4.693-5.602-8.051-7.9
	c-1.455-0.996-4.508-0.67-6.432-0.566c-1.965,0.104-4.852-1.014-6.756-0.506c-2.307,0.611-2.398,2.594-2.488,4.648
	c-0.135,3.1,0.154,3.99-2.992,4.605c-2.232,0.438-4.521-0.063-6.77,0.25c-2.023,0.279-3.457,1.354-5.738,1.006
	c-3.115-0.475-3.625-3.506-5.988-4.4c-2.559-0.969-4.154,1.973-6.375,2.328c-2.295,0.371-3.924-1.633-5.648-3.141
	c-1.438-1.254-3.271-2.117-4.75-3.285c-3.057-2.418-4.744-5.535-8.932-5.752c-2.271-0.117-4.123,0.572-6.307,0.764
	c-2.207,0.193-4.594-0.23-6.75,0.236c-2.51,0.547-2.824,2.512-4.611,3.441c-0.684,0.357-2.379,0.529-2.938,0.746
	c-1.215,0.475-1.35,1.145-2.951,1.063c-1.514-0.076-2.578-0.994-4.207-0.705c-2.535,1.902-1.932,6.645-2.586,9.418
	c-1.617,1.629-3.135,3.646-1.707,5.795c0.42,0.633,1.773,1.299,2.012,1.98c0.717,2.035-1.049,3.305-1.805,4.725
	c-3.334,0.154-4.135-0.832-6.395-2.967c-1.512-1.426-3.98-2.633-6.27-1.203c-0.607,2.676-1.418,3.717,0.648,5.775
	c1.334,1.326,3.314,2.93,5.559,2.938c2.467,0.01,4.865-1.324,7.506-0.754c2.039,0.438,3.578,1.805,5.072,3.203
	c1.439,1.348,2.871,3.131,4.424,4.6c1.449,1.377,3.723,2.688,4.51,4.678c0.709,1.789,0.363,5.068-0.316,6.807
	c-0.287,0.736-1.354,1.465-1.582,2.264c-0.285,0.992-0.111,2.346-0.111,3.438c-0.002,4.83-1.031,10.275-6.5,11.822
	c-2.299,0.648-4.365-0.25-5.439-2.373c-1.057-2.094-1.156-2.666-3.049-4.201c-1.07-0.867-1.188,0.041-1.512-1.734
	c-0.18-0.971,0.781-1.822,0.455-3.057c-0.541-2.035-3.332-2.914-4.949-3.459c-1.506-0.506-3.666-0.629-4.264-2.479
	c-0.619-1.922,0.484-4.881,0.256-7.006c-0.346-3.229-2.256-2.256-4.813-3.633c-1.477-0.797-3.691-2.461-4.23-4.076
	c-8.467-4.789-6.523,13.93-7.146,18.207c-0.229,1.586-1.52,3.158-1.572,4.488c-0.088,2.277,1.941,2.787,3.516,3.762
	c1.904,1.186,2.875,1.787,2.748,4.445c-0.117,2.473-0.609,2.742-3.215,2.594c-0.41,2.367,1.277,4.982,2.223,6.967
	c0.992,2.09,2.785,4.168,4.754,5.752c4.432,3.563,10.318,4.738,13.531,9.449c0.229,0.059,0.441-0.006,0.666,0.086
	c2.5,3.455,1.113,9.65-1.902,12.457c-1.059,0.984-0.807,1.336-2.563,1.25c-1.572-0.076-1.518-1.182-2.73-1.518
	c-1.922-0.533-4.879,1.561-6.48,2.367c-0.342,1.318-0.137,2.846-0.525,4.146c-0.215,0.717-0.924,1.258-1.088,1.969
	c-0.211,0.902,0.418,1.439,0.299,2.291c-0.262,1.893-1.281,3.518-2.529,4.939c-2,2.279-3.416,1.145-6.23,0.137
	c-4.535-1.621-9.209-3.652-13.512-0.4c-2.023,1.533-2.947,2.689-5.471,3.318c-2.078,0.52-4.063,1.26-5.445,3.188
	c-1.793,2.504-2.088,9.881-7.297,8.023c-1.842-0.654-2.744-4.008-3.744-5.455c-1.09-1.574-2.854-3.813-4.477-4.523
	c-2.557-1.129-10.729-1.297-12.463,0.564c-1.281,1.377-0.965,3.854-1.361,5.641c-0.537,2.428-1.678,3.057-3.383,4.609
	c-0.652,0.598-1.031,1.74-2,2.283c-1.102,0.619-2.164,0.344-3.318,0.668c-2.34,0.66-2.785,1.951-3.984,4
	c-1.369,2.34-1.855,2.965,1.555,3c2.365,0.025,4.834-0.221,7.188,0.002c2.336,0.221,3.916,1.469,6.064,2.318
	c2.072,0.816,4.4,1.361,6.432,1.938c2.275,0.646,4.41,1.736,6.514,2.391c0.949,0.293,1.924,0.793,2.986,0.607
	c1.438-0.248,1.58-2,3-2.271c3.064-0.592,1.945,3.08,2.313,4.887c0.49,2.4,2.148,4.742,1.645,7.313
	c-0.926,4.717-5.598,5.473-9.186,3.117c-4.221-2.768-7.855-4.979-12.996-5.742c-4.113-0.609-10.088-0.582-13.781,1.02
	c-5.666,2.455-0.217,6.639,3.238,7.906c3.188,1.168,6.658,0.77,10.031,0.77c1.373,0,3.168-0.318,4.492,0
	c1.264,0.309,1.912,1.422,3.215,1.545c2.412,4.334-7.646,4.895-9.971,4.15c-1.881-0.604-4.436-2.088-3.285,1.107
	c0.563,1.559,3.727,3.189,3.686,4.945c-0.051,2.201-3.924,1.232-5.637,1.75c-2.889,0.873-1.061,1.396-0.299,3.299
	c0.846,2.119,0.611,4.117-1.701,4.451c-2.639,0.383-3.115-1.57-4.939-2.506c-1.891-0.969-3.426-0.055-3.811,2.006
	c-0.41,2.197,0.969,2.646,1.293,4.459c2.689,1.99,3.357,5.545,6.76,6.805c3.791,1.406,8.064,1.832,11.947,3.23
	c1.262,0.455,4.471,1.555,5.193,2.826c1.279,2.256-1.266,3.518-3.201,3.436c-3.865-0.166-8.119-4.852-11.717-6.268
	c-2.389-0.941-3.83-1.701-6.031-3.238c-2.064-1.438-4.049-2.498-6.744-2.5c-2.092,0-4.129,0.547-4.25,3.002
	c-0.104,2.133,2.146,3.316,1.73,5.711c-4.219,0.344-5.512-4.051-9.188-3.416c-1.008,2.662-0.385,6.105-0.582,8.932
	c-4.695,0.963-4.23-3.934-6.406-5.713c0.109,2.318-1.086,4.598-1.588,6.697c-2.18,0.166-5.502-0.945-7.236-2.154
	c-1.813-1.264-1.125-3.955-1.281-6.281c-2.385,1.521-3.602,3.936-6.492,4.793c-2.365,0.701-5.426,1.352-7.92,1.145
	c-0.057-0.234-0.01-0.439-0.074-0.676c-1.164,0.107-4.479-0.404-4.969-1.588c-0.631-1.529,1.458-2.246,2.088-3.381
	c0.844-1.521,0.883-3.129,1.938-4.699c0.938-1.393,2.227-2.717,3.211-3.813c-3.515-0.264-7.831,0.752-11.176-0.361
	c-1.887-0.629-2.756-1.434-5.066-1.207c-1.695,0.166-3.518,0.848-5.389,0.732c-1.432-3,0.754-4.666,3.613-4.76
	c0.027-0.32,0.012-0.605,0-0.924c-2.447-0.273-4.203,1.674-6.164,0.137c-2.354-1.848-0.816-2.938,1.199-3.742
	c2.113-0.844,4.715-0.854,6.557-1.57c1.82-0.711,3.908-3.033,5.133-4.416c1.395-1.572,2.369-3.248,2.063-5.445
	c-0.412-2.939-2.32-2.912-4.625-4.068c-3.74-1.879-7.867-4.287-12.564-2.879c-3.053,0.916-5.4,4.625-7.678,6.631
	c-1.207,1.061-3.416,1.844-4.346,3.576c-0.787,1.467-0.127,4.281-1.414,5.314c-3.254,2.611-4.695-2.988-5.193-5.189
	c-0.293-1.299-1.191-4.029-0.635-5.303c0.721-1.648,3.586-2.422,4.855-3.762c1.785-1.881,2.016-4.381,3.449-6.303
	c1.354-1.813,4.193-3.338,6.281-4.092c2.686-0.971,6.102-0.678,9.063-0.678c7.275,0,11.898-1.625,11.27-9.961
	c-1.889,0.369-2.545,6.275-5.908,5.209c-3.291-1.041,2.971-7.291-2.268-6.146c-0.285,0.771-0.557,1.23-0.574,2.111
	c-2.211,0.25-3.861-1.352-4.756-3.168c-1.516-0.309-5.227,1.719-4.721-1.307c0.26-1.543,3.012-2.961,3.523-4.488
	c1.809-5.377-4.857-7.332-8.762-4.566c-1.777,1.26-2.781,3.059-4.25,4.572c-1.461,1.512-3,2.502-4.193,4.266
	c-2.385,3.521-1.988,8.025-4.002,11.529c-1.311,2.279-2.328,5.09-2.342,7.662c-4.221,0.758-6.172-1.721-9.955-2.648
	c-2.348-0.578-3.971-0.471-3.318-3.557c0.381-1.813,1.92-3.559,2.873-5.207c1.619-2.801,3.213-7.346,3.688-10.563
	c0.23-1.561,0.1-3.479,0.807-4.932c0.965-1.982,3.764-3.438,5.342-4.936c2.051-1.943,3.846-4.354,6.615-5.316
	c4.318-1.498,6.301-5.037,10.244-7.242c5.244-2.934,2.666-6.398-2.514-7.33c-4.727-0.852-7.711,2.168-10.994,4.336
	c-1.463,0.967-3.303,1.637-4.744,2.688c-0.992,0.729-3.41,2.445-4.768,2.006c-1.688-0.545-2.449-3.84-1.494-5.285
	c0.746-1.131,3.189-1.049,3.957-2.523c1.729-3.336-4.203-7.586-6.943-8.207c-4.314-0.977-9.021-0.994-13.508-0.994
	c-3.43,0-6.645-0.279-9.639-0.305c-1.398-0.014-2.059-0.418-3.619-0.701c-1.977-0.359-2.994,0.875-4.492,1.006
	c-2.863,0.25-5.463-2.051-8-3.041c-1.793-0.701-8.557-2.979-9.795-0.752c-2.246,0.141-4.254,0.953-6.199,1.063
	c-2.117,0.117-4.904-1.848-6.574-0.088c-2.1,2.215,0.529,3.615,2.258,4.639c2.045,1.211,2.723,1.664,3.873,3.883
	c0.855,1.652,2.496,3.734,1.693,6.053c-0.916,2.645-3.814,1.896-5.756,0.43c-4.168-3.148-8.373-2.48-10.063,3.066
	c-0.697,2.297-1.951,5.518-3.895,6.791c-3.934,8.498,9.861,3.652,10.986,10.611c0.193,0.105,0.4,0.154,0.623,0.146
	c0.445,3.373,1.92,6.369,2.391,9.656c4.693,3.701,11.838,5.203,16.414,9.084c2.297,4.053-1.068,8.439-4.719,9.697
	c-2.063,0.711-3.391,1.23-3.994,3.5c-0.766,2.873,0.676,3.836-2.627,5.213c-1.746,0.729-3.889,1.006-5.305,2.104
	c-1.938,1.506-1.803,2.902-4.551,3.199c-4.252,0.461-10.332-1.482-14.285-0.021c-0.063,0.02-0.127,0.037-0.189,0.057
	c-0.213,1.328-4.051,4.232-5.494,4.006c-1.143,1.938-11.184-0.58-13.541-0.807c-5.328-0.514-10.084,0.309-15.182-1.482
	c-2.549-0.895-2.49-2.658-4.51-3.814c-1.48-0.854-5.111-0.99-6.867-1.189c-3.086-0.35-10.42,0.557-11.955-2.732
	c-1.047-2.24,1.25-5.008,2.982-5.561c0.301-1.83,3.281-3.441,4.658-4.645c1.598-1.393,3.264-3.078,4.563-4.943
	c2.352-3.369,5.396-6.467,5.309-10.619c-0.205-9.604-1.197-21.154,1.248-30.492c0.852-3.248,2.441-6.383,2.75-9.764
	c0.33-3.609-0.662-6.969-0.311-10.555c0.273-2.795,0.678-6.148,0.057-8.936c-0.641-2.869-3.822-4.492-2.701-7.963
	c1.375-0.803,2.641-5.137,2.988-6.754c2.432-0.43,5.582,1.479,8.441,1.174c0.795-3.453-4.309-10.734-6.293-13.227
	c-1.57-1.975-3.412-3.871-5.129-5.721c-1.643-1.768-3.916-2.348-5.629-3.889c-1.613-1.449-2.629-3.52-4.473-4.828
	c-1.174-0.832-4.313-1.84-5.693-2.195c-2.67-0.688-4.363,0.225-6.262-2.057c-0.957-1.146-2.256-4.715-4.564-4.07
	c-1.133,0.316-1.791,2.896-2.605,3.842c-0.68,0.785-1.92,1.133-2.521,1.73c-2.127,2.127-1.943,4.467-1.805,7.449
	c0.113,2.43,0.256,4.928,0.5,7.25c0.246,2.328,1.781,5.012-1.045,5.254c-1.896,0.164-6.393-2.941-8.072-3.949
	c-1.832-1.096-3.645-2.381-5.578-3.373c-1.891-0.971-3.32-1.594-4.373-3.676c-0.811-1.607-0.775-4.197-2.668-5.018
	c-1.717-0.746-4.473,0.459-5.379,1.756c-1.857,2.656,1.127,4.199,2.053,6.068c1.166,2.354,0.572,4.652-0.879,6.508
	c-0.939,1.199-4.037,3.266-4.602,0.219c-0.279-0.004-0.646,0.016-0.92-0.002c-0.33,1.291-2.217,3.242-3.162,4.469
	c-1.23,1.596-2.33,3.719-3.807,5.051c-1.537,1.385-4.021,2.033-6.057,2.455c-1.869,0.391-3.613,1.688-5.51,1.488
	c-4.441-0.469-7.117-4.209-10.26-7.061c-1.572-1.432-3.797-2.602-4.443-4.945c-0.4-1.451-0.234-5.494,0.943-6.262
	c2.377-1.547,7.025,1.23,6.713-3.439c-4.01-1.879-3.715-4.271-3.988-8.012c-1.08-0.313-2.002-0.107-2.26,0.938
	c-0.844,0.25-1.139,0.639-1.5,1.492c-2.432,0.191-4.174-1.875-6.422-1.424c-0.201,1.633,0.166,3.891-0.273,5.473
	c-0.205,0.736-1.287,1.252-1.271,1.99c0.02,1.021,1.418,1.654,1.961,2.174c2.762,2.641,4.143,6.811-1.162,7.418
	c-0.094,2.525,3.516,2.885,3.717,5.406c0.221,2.764-3.426,3.313-5.469,3.594c-0.512,2.506,3.424,4.436,4.789,6.102
	c1.904,2.324,1.916,4.277,1.924,7.307c0.01,3.734-1.707,10.957-5.965,11.787c-2.789,5.184,3.119,12.32-1.992,16.506
	c-0.535,3.146-7.979,6.918-10.563,8.195c-1.547,0.766-3.375,2.354-5.48,2.773c-2.752,0.551-5.762,0.547-8.5,1.1
	c-1.838,0.369-4.662,1.246-6.748,0.637c-1.926-0.561-1.891-2.574-3.309-3.691c-2.27-1.791-2.664,0.859-5.193,1.193
	c-2.482,0.328-3.971-0.863-5.799-1.699c-3.928-1.799-8.182-3.639-12.15-5.354c-1.592-0.689-3.41-1.492-4.787-2.195
	c-2.113-1.08-3.09-2.854-4.762-4.561c-1.766-1.801-3.688-1.172-5.516-2.625c-1.863-1.484-1.256-3.322-1.475-5.576
	c-0.355-3.688,0.779-8.609-0.93-12c-0.445-0.885-1.814-1.658-2.232-2.471c-0.414-0.799-0.707-2.752-0.893-3.727
	c-1.441-0.76-1.049-7.383-0.465-9.299c0.943-3.09,3.871-4.711,5.215-7.227c1.416-2.654,3.318-7.152-1.701-5.27
	c-1.377,0.518-2.15,1.777-3.764,1.02c-1.104-0.52-2.271-3.135-2.543-4.236c-1.678-1.033-1.824-1.57-3.963-1.355
	c-1.648,0.166-2.086,0.898-3.807-0.127c-2.574-1.533-3.875-4.754-5.438-7.055c-1.906-2.813-2.057-5.037-0.799-8.305
	c0.805-2.086,3.682-5.484,5.264-6.732c0.436-1.932-0.689-4.176-1.955-5.467c-2.395-2.439-6.436,0.98-8.244-1.996
	c-0.641-1.051-0.186-2.842-0.047-3.957c-2.445-0.535-4.73-1.404-6.947-2.299c-2.262-0.914-2.809-1.617-4.264-3.738
	c-1.105-1.605-1.762-2.533-1.557-4.555c0.262-2.588,1.029-3.393-1.008-5.377c-1.596-1.559-3.445-2.791-3.938-5.063
	c-0.5-2.307,0.898-3.174,1.506-5.246c0.641-2.189,0.309-4.717,0.494-7.012c0.195-2.402,0.863-4.674,0.75-7.207
	c-0.111-2.459-0.684-4.818,0.568-6.975c1.328-2.281,2.326-3.158,2.932-5.818c0.539-2.371,1.541-3.428,2.563-5.674
	c0.832-1.83,2.906-5.553,2.98-7.287c0.535-0.285,0.389-0.352,0.75-0.746c2.963-1.684,6.584-4.019,9.396-6.343
	c3.061-2.528,4.848-6.196,8.492-8.271c1.676-0.953,4.008-0.627,5.813-1.426c1.953-0.863,3.664-2.213,5.623-2.65
	c1.633-0.362,5.422-0.198,5.383-2.604c-0.031-1.917-3.375-2.659-4.998-3c-1.35-0.283-2.654-0.325-3.977-0.538
	c-0.682-2.332,1.855-2.559,2.236-4.206c0.486-2.103-1.203-2.527-2.213-3.818c-2.303-2.945-2.33-7.337-0.834-10.762
	c0.604-1.383,1.188-2.77,2.348-3.916c1.207-1.194,3.174-1.602,3.881-3.328c0.58-1.416-0.434-2.647-0.285-4.011
	c0.213-1.928,1.33-2.444,2.471-3.909c2.129-2.741,3.031-6.561,5.93-8.699c1.443-1.063,3.043-1.069,3.705-3.075
	c0.688-2.091,0.033-2.982,1.563-4.729c2.117-2.418,4.4-5.044,7.475-5.97c3.439-1.036,7.986,0.783,8.744,4.419
	c1.283,0.325,2.512-0.343,2.986-1.412c2.352-0.134,4.48-0.491,5.658,1.763c0.826,1.582,1.141,3.604,1.744,5.252
	c1.031,2.807,1.275,5.014,3.068,6.941c0.799,0.858,3.387,3.785,4.693,3.518c4.285-0.879,0.92-23.303-0.738-26.018
	c-3.08-5.051-8.719,1.021-12.406-2.306c-1.686-1.52-1.439-3.681-4.051-4.194c-2.518-0.495-3.924,1.346-6.25,1.5
	c-4.629,0.311-8.146-2.287-9.529-6.236c-0.773-2.202-0.551-4.174-1.936-6.006c-1.197-1.588-2.301-2.313-2.535-4.451
	c-0.395-3.593-0.773-7.805-0.25-11.307c0.496-3.314,2.172-5.879,3.029-8.959c1.441-0.451,3.586-3.398,4.971-4.736
	c1.729-1.666,2.98-3.229,4.002-5.316c1.568-3.209,4.631-5.386,6.77-8.183c1.252-1.639,4.037-3.459,4.229-5.556
	c0.219-2.356,0.438-3.615,1.445-5.611c1.854-3.667,5.486-6.008,7.803-9.145c5.166-6.992,11.656-11.357,20.504-11.806
	c3.904-0.196,9.051,1.751,11.879,4.574c2.094,2.087,5.916,6.353,9.439,4.555c2.82-1.438,2.693-8.172,4.236-10.762
	c1.063-1.785,2.678-3.396,4.934-3.305c2.297,0.092,3.594,2.216,6.006,2.248c3.922,0.051,4.309-4.28,3.074-7.056
	c-0.818-1.84-5.41-6.463-4.463-8.637c0.68-1.558,3.143-1.057,4.398-1.197c1.877-0.209,1.855-0.049,2.732-2.11
	c1.49-3.507,2.516-4.588,6.469-4.081c0.221-1.665,0.961-2.897,1.35-4.419c0.229-0.896,0.285-2.809,0.939-3.513
	c3.105-3.348,4.096,3.763,5.705,4.519c2.762,1.297,3.148-3.551,2.555-5.705c-0.619-2.238-3.357-3.877-4.049-6.514
	c-0.205-0.11-0.441-0.011-0.664-0.066c-1.244-3.187-4.445-4.272-2.195-8.437c1.277-2.364,11.113,5.684,13.641,4.972
	c2.623-0.74,3.1-4.593,3.264-7.073c0.186-2.79,0.125-4.298,1.943-6.487c1.822-2.192,3.816-3.366,4.6-6.157
	c1.99-1.009,3.766-1.19,5.451-2.72c1.598-1.448,3.148-2.95,4.68-4.381c1.604-1.497,3.076-3.385,3.77-5.479
	c0.402-1.219-0.029-2.307,0.857-3.437c1.117-1.426,2.77-2.771,3.996-4.215c1.398-1.646,3.734-3.195,5.953-3.324
	c1.57-0.092,2.615,0.783,4.256,0.519c1.561-0.252,1.453-0.814,2.551-1.693c4.918-3.939,9.828-4.36,15.656-3.275
	c0.902,1.906,3.818,2.308,5.543,3.521c1.518,1.064,3.07,2.563,4.813,3.645c1.85,1.146,3.746,1.815,5.926,2.306
	c2.002,0.449,4.115,1.488,5.738,1.832c3.604,0.764,8.504-3.301,11.725-4.339c2.529-0.815,2.916-1.598,3.6-4.493
	c0.592-2.51-0.535-3.564-0.805-6c-0.514-4.637,4.313-5.312,6.504-8.299c1.219-1.66,1.494-3.228,3.551-4.146
	c1.768-0.789,4.096-0.725,5.949-1.307c3.773-1.185,8.076-0.554,11.621-2.568c3.195-1.815,5.744-4.321,7.916-7.145
	c1.824-0.591,1.977,1.194,3.457,0.963c2.088-0.328,0.801-1.621,1.928-2.574c2.309-1.954,5.066,0.524,6.518,1.832
	c1.811,1.633,4.078,2.858,6.861,2.756c1.404-0.053,3.463-0.438,4.688-1.002c3.818-1.75,11.121-2.979,14.693,0.549
	c1.463,1.447,2.811,4.207,4.744,5.037C347.155,11.185,347.034,7.401,349.35,5.648z"/>
</svg>
