<?xml version="1.0" encoding="utf-8"?>
<!-- Generator: Adobe Illustrator 16.0.0, SVG Export Plug-In . SVG Version: 6.00 Build 0)  -->
<!DOCTYPE svg PUBLIC "-//W3C//DTD SVG 1.1//EN" "http://www.w3.org/Graphics/SVG/1.1/DTD/svg11.dtd">
<svg version="1.1" id="Layer_1" xmlns="http://www.w3.org/2000/svg" xmlns:xlink="http://www.w3.org/1999/xlink" x="0px" y="0px"
	 width="817.46px" height="740.117px" viewBox="0 0 817.46 740.117" enable-background="new 0 0 817.46 740.117"
	 xml:space="preserve">
<path id="vesturland" fill="#181EB9" d="M367.859,416.214c-0.835-3.923-4.854-9.817-8.39-3.546
	c-1.804,3.199,1.393,7.848,0.397,11.296c-3.197,11.087-18.259-5.541-22.549-7.435c-7.858-3.471-17.059-7.04-25.614-4.397
	c-3.654,1.13-6.96,3.298-10.93,2.534c-4.316-0.828-7.435-4.322-10.934-6.665c-5.686-3.807-8.873-1.637-14.201,1.069
	c-5.43,2.758-12.259-0.543-17.737-1.829c-6.977-1.64-14.046-3.106-20.624-6.041c-8.207-3.663-15.426-8.947-24.237-11.235
	c-8.433-2.188-18.935-4.527-27.667-3.971c-9.225,0.589-7.307,7.736-10.552,14.077c-2.892,5.649-10.691,7.569-16.489,5.748
	c-6.46-2.03-10.699-8.227-17.306-10.253c-6.791-2.083-16.596-0.974-22.711,2.63c-4.18,2.462-5.114,6.753-6.844,10.938
	c-2.22,5.37-5.206,10.565-6.13,16.377c-0.542,3.406-0.719,8.24-4.301,9.94c-4.989,2.364-11.389-1.526-16.614-1.533
	c-7.179-0.007-14.101,2.534-21.121,3.688c-6.789,1.115-12.073-3.154-17.521-6.615c-5.532-3.516-13.297-6.443-17.353-11.781
	c-4.06-5.344-4.148-13.262-5.702-19.554c-3.362-13.62-13.134-23.892-18.147-36.834c-2.356-6.082-6.47-16.686-3.606-23.215
	c2.334-5.322,8.058-1.972,12.445-2.011c8.22-0.072,12.172-8.816,16.704-14.265c6.064-7.287,16.886-7.865,25.439-10.066
	c10.356-2.665,12.409,10.813,20.004,14.616c4.403,2.202,9.267,3.397,13.718,5.543c4.688,2.259,9.096,4.521,14.271,5.486
	c3.063,0.571,10.918,2.355,13.782,0.405c2.385-1.626,0.893-3.883,1.176-6.479c0.421-3.867,2.646-6.349,6.556-6.828
	c6.133-0.754,12.476,2.979,17.241-2.816c3.521-4.28,4.354-10.371,7.879-14.768c5.513-6.872,19.758,0.005,26.373,2.159
	c3.352,1.091,6.998,3.133,6.83-1.334c-0.157-4.188-4.5-8.49-0.015-12.108c2.833-2.285,8.298-1.81,10.583,1.042
	c3.068,3.83-2.145,17.358,0.798,18.825c2.748,1.37,5.003-5.637,7.198-5.894c3.118-0.363,1.872,5.239,1.995,7.564
	c0.267,5.042,2.023,6.749,7.051,7.523c8.585,1.324,18.924-0.032,18.764-10.553c-0.12-7.882-3.909-15.272-4.488-23.058
	c-0.911-12.231,4.174-19.674,16.752-17.369c6.745,1.236,13.397,2.727,20.192,3.718c-3.966,6.267-8.242,12.281-12.438,18.392
	c-3.328,4.847-6.934,10.184-6.548,16.333c0.279,4.463,7.958,24.686,14.87,20.133c8.055-5.304-4.882-16.57-0.713-23.685
	c2.968-5.063,13.119-5.697,17.384-2.478c4.084,3.085,2.837,9.472,3.218,13.984c0.432,5.112,3.205,3.25,4.896,0.119
	c1.792-3.314,2.7-6.891,0.518-10.212c-3.884-5.91-13.7-6.368-11.354-15.589c2.819-11.081,15.557-23.731,26.596-14.058
	c3.028,2.654,4.021,6.871,8.459,7.615c5.003,0.839,11.702-3.416,16.392-4.949c5.916-1.935,12.015-3.762,17.149-7.406
	c6.438-4.569-0.563-7.011-5.419-7.927c-3.54-0.667-7.521-0.278-10.963-1.21c-2.393-0.648-2.92,0.018-1.506-1.839
	c1.765-2.316,8.198-3.724,10.793-4.928c3.805-1.768,7.688-3.635,10.979-6.277c4.836-3.886,7.772-9.653,12.682-13.468
	c5.148-4.003,7.402,0.021,10.631,4.364c5.771,7.765,6.484,13.874-1.209,20.738c-1.174,1.047-9.451,5.722-9.492,7.128
	c-0.036,1.251,3.955-0.014,5.277-0.153c11.959-1.265,10.603,6.204,15.139,14.5c1.185,2.165,3.818,5.759,6.287,6.607
	c9.631,3.315,4.875-13.331,6.826-17.793c2.81-6.429,13.664-15.15,20.406-17.129c9.676-2.841,20.068,3.813,30.266,1.484
	c7.314-1.671,14.166-6.247,21.818-6.452c5.59-0.149,9.031,3.514,12.949,6.872c5.051,4.33,9.34,2.356,15.057,4.55
	c3.672,1.407,3.455,4.549,5.93,7.027c2.984,2.992,7.313,1.791,11.088,2.227c3.006,0.345,5.863,2.951,8.73,2.95
	c6.887-0.003,0.865-8.227,8.082-7.835c9.025,0.488,17.221,6.688,26.059,8.564c11.992,2.548,24.186,2.974,36.402,2.912
	c6.357-0.032,14.961,3.813,20.986,0.334c4.877-2.817,3.229-10.178,2.941-14.834c-0.262-4.229-1.086-5.577-5.111-7.229
	c-2.848-1.166-7.604-1.639-6.834-5.624c0.512-2.642,4.494-4.941,6.379-6.542c3.094-2.631,5.721-5.351,7.551-9.026
	c1.938-3.883,3.088-7.818,5.611-11.418c2.633-3.756,5.076-7.167,7.037-11.344c2.324-4.959,5.959-9.559,7.855-14.662
	c2.086-5.613-1.143-10.594-1.732-16.109c-0.486-4.522,0.781-8.841-3.18-12.093c-3.969-3.26-9.361-3.279-14.211-3.069
	c-10.82,0.469-8.98,19.478-15.27,26.094c-6.717,7.066-16.027,12.086-23.785,17.938c-8.707,6.57-17.826,12.149-28.922,13.366
	c-11.92,1.308-20.553-4.566-31.281-8.319c-10.541-3.687-22.293-1.802-32.584-6.033c-9.164-3.768-14.783-13.207-23.924-16.751
	c-5.861-2.272-13.029,1.559-19.146,1.731c-6.107,0.174-12.373-0.361-17.104,4.295c-4.23,4.163-8.559,13.227-16.168,9.861
	c-9.252-4.092,4.364-11.411,7.188-14.005c5.563-5.104-4.992-8.752-6.229-13.842c-1.687-6.935,8.459-3.747,10.043-8.221
	c2.541-7.178-16.338-2.146-18.479-1.058c-3.391,1.729-6.787,4.2-8.334,7.801c-0.953,2.22-0.844,4.71-1.979,6.876
	c-1.347,2.564-10.164,10.72-12.066,5.737c-1.608-4.219,6.701-14.639,9.525-17.271c4.52-4.212,10.207-7.438,15.94-9.684
	c5.545-2.171,13.781,0.135,18.078-4.145c6.709-6.679,4.074-22.009,14.209-25.044c5.557-1.664,15.125-0.103,17.027-7.01
	c1.025-3.736,0.189-7.288,2.953-10.579c2.85-3.392,16.27-1.428,14.896-7.603c-0.723-3.253-5.344-3.279-2.334-6.315
	c3.512-3.539,11.035-4.016,15.703-4.524c6.293-0.687,10.967-4.34,16.736-6.876c6.049-2.659,11.549-5.042,17.156-8.42
	c7.832-4.72,17.648-7.359,24.857-13.137c6.75-5.408,10.729-13.276,19.641-15.72c7.857-2.155,15.463-5.497,21.395-11.694
	c5.779-6.034,6.822-13.567,17.141-11.265c10.314,2.303,20.486-0.513,29.566-5.479c8.268-4.522,14.881-12.279,24.438-13.606
	c7.785-1.081,14.623,0.896,22.354,2.069c7.33,1.113,14.621,1.84,21.99,2.7c6.174,0.722,12.604,1.582,18.74,0.125
	c5.893-1.399,11.84-5.587,17.16-8.502c2.453-1.343,5.631-2.891,7.691-4.648c3.133-2.673,13.084-15.023,16.295-6.1
	c1.514,4.206,1.307,8.556,3.383,12.603c2.475,4.817,3.525,6.732,7.646,10.206c1.924,1.622,1.621,3.028,2.896,4.979
	c1.797,2.742,7.885,0.755,7.322,5.198c-0.498,3.921-5.527,4.408-5.512,8.274c0.02,4.147,5.064,7.762,5.982,12.012
	c1.119,5.174-0.639,10.65-0.58,15.86c0.092,8.089,1.953,15.795,0.826,23.92c-0.777,5.61-5.492,12.152-4.834,17.727
	c0.449,3.669,9.42,8.975,5.561,11.877c1.406,5.262,3.465,10.412,5.664,15.393c3.391,7.673,3.756,15.481,8.16,23.032
	c2.941,5.041,5.285,9.121,5.123,15.133c-0.176,6.566-2.215,12.831-1.406,19.471c0.6,4.93,3.469,9.357,3.922,14.222
	c0.436,4.669-1.803,9.246-2.588,13.784c-1.063,6.137-0.328,12.211-0.699,18.372c-0.316,5.217-2.184,9.306-3.742,14.177
	c-2.982,9.303,0.813,19.004,3.225,28.125c2.67,10.109,7.154,17.771,5.613,28.438c-0.803,5.555-0.945,10.351,0.115,15.896
	c0.908,4.755,2.514,9.188-0.227,13.636c-6,9.748-21.383,12.786-29.914,19.979c-5.104,4.302-8.967,18.269-11.367,24.622
	c-1.402,3.707-3.246,8.07-2.434,12.125c1.061,5.266,3.701,9.805,4.486,15.428c2.947,21.098,8.658,42.302,13.16,63.144
	c5.717,26.477,11.326,53.002,17.311,79.42c5.277,23.288,10.119,46.697,15.104,70.053c2.41,11.303,4.953,22.592,7.242,33.918
	c0.012,0.05,0.15,0.7,0.139,0.704s-90.416,28.296-90.574,28.345c-2.508,0.785-7.459-0.664-10.207-0.879
	c-6.832-0.534-16.988-4.326-22.504,1.396c-3.08,3.197-3.951,9.849-10.145,8.68c-6.479-1.225-2.271-4.045,0.93-5.757
	c4.615-2.467,8.051-5.062,2.477-9.695c-6.027-5.013-12.707-0.63-19.16,0.398c-8.322,1.329-12.965-3.854-20.039-6.925
	c-12.182-5.285-28.904,4.544-37.641,12.819c-5.154,4.885-11.113,9.085-15.93,14.289c-4.311,4.655-7.539,10.389-12.521,14.405
	c-5.219,4.211-11.855,6.318-17.59,9.725c-8.346,4.96-17.436,8.591-27.32,8.394c-5.91-0.118-9.85-2.096-14.322-5.775
	c-4.336-3.565-6.574-5.283-12.086-4.725c-4.045,0.411-7.568,1.796-4.072-4.048c2.617-4.371,8.643-6.337,11.902-10.176
	c4.619-5.438,12.748-7.22,16.348-12.843c3.883-6.066,3.018-7.955,10.855-9.074c4.283-0.609,10.201-0.877,13.963-3.164
	c3.717-2.259,3.9-7.264,0.021-9.438c-6.061-3.396-16.184,5.376-23.125,5.153c-6.867-0.22-11.277-4.938-12.027-11.433
	c-0.857-7.445,6.131-12.788,7.508-19.817c2.355-12.033,8.215-21.478,12.361-32.851c3.605-9.887,9.025-13.136,18.045-17.908
	c9.777-5.176,17.492-6.594,28.199-8.668c2.428-0.471,9.09-1.147,10.031-4.017c1.432-4.379-5.6-3.221-6.635-6.509
	c-1.033-3.283,4.4-7.82,6.117-10.505c3.498-5.466,6.721-13.641-3.27-12.188c-6.502,0.943-9.064,5.945-14.021,9.222
	c-6.109,4.035-11.1,3.225-14.688,10.396c-3.254,6.5-6.92,3.486-12.588,5.552c-2.678,0.977-5.879,3.829-8.184,5.598
	c-4.057,3.113-9.291,6.617-14.18,2.951c-7.988-5.993,5.131-13.982,4.412-20.341c-0.871-7.702-7.951,0.681-9.053,4.259
	c-3.008,9.771-5.572,20.215-8.148,30.152c-1.449,5.596-1.803,12.726-5.541,17.399c-6.387,7.988-25.352,12.963-34.027,6.491
	c-6.551-4.885-8.229-15.941-6.453-23.523c1.391-5.933,0.193-7.615-1.227-12.991c-2.01-7.604,3.938-3.429,6.436-7.351
	c2.305-3.615-3.623-9.337-5.529-11.807c-2.959-3.834-0.602-5.755-2.076-9.666c-1.771-4.705-6.002-4.058-9.035-1.414
	c-1.479,1.292-2.453,4.229-4.23,5.021c-2.674,1.186-10.422-0.026-11.85-2.813c-1.939-3.791,0.641-7.244,0.336-10.908
	c-0.346-4.185-3.396-7.438-3.965-11.438c-0.479-3.373,1.334-7.149,0.346-10.496c-2.879-9.725-2.379-15.746,2.525-24.608
	c2.938-5.302,10.637-16.753,4.154-22.148c-7.225-6.014-8.803,8.536-14.404,9.44c-10.127,1.634,1.797-12.479,3.111-15.226
	c2.096-4.38,3.346-7.903,6.979-11.32c3.428-3.223,6.668-4.9,8.012-9.651c1.396-4.935,7.711-14.047,4.791-18.807
	c-1.963-3.198-8.281-3.823-11.611-4.443c-3.49-0.647-7.936-1.582-10.963,1.021c-4.584,3.935-0.643,7.87,1.791,11.817
	c2.301,3.735,2.033,9.673-3.818,8.735c-5.16-0.824-9.779-8.316-10.801-12.862c-1.439-6.4,1.471-12.361,4.854-17.611
	c1.527-2.367,8.438-8.978,7.414-12.15c-1.613-5.008-28.629-5.358-33.172-3.71c-6.856,2.488-8.131,11.164-13.854,15.064
	C380.177,435.84,369.714,424.922,367.859,416.214z"/>
<circle fill="#D00049" cx="582.73" cy="597.751" r="11.5"/>
<circle fill="#D00049" cx="660.73" cy="380.291" r="11.5"/>
<circle fill="#D00049" cx="689.518" cy="267.559" r="11.5"/>
<circle fill="#D00049" cx="771.518" cy="568.291" r="11.5"/>
<circle fill="#D00049" cx="602.518" cy="638.559" r="11.5"/>
<circle fill="#D00049" cx="453.893" cy="131.254" r="11.5"/>
<circle fill="#D00049" cx="191.23" cy="356.559" r="11.5"/>
<circle fill="#D00049" cx="735.23" cy="514.559" r="11.5"/>
<circle fill="#D00049" cx="641.23" cy="621.059" r="11.5"/>
</svg>
