<?xml version="1.0" encoding="utf-8"?>
<!-- Generator: Adobe Illustrator 16.0.0, SVG Export Plug-In . SVG Version: 6.00 Build 0)  -->
<!DOCTYPE svg PUBLIC "-//W3C//DTD SVG 1.1//EN" "http://www.w3.org/Graphics/SVG/1.1/DTD/svg11.dtd">
<svg version="1.1" id="Layer_1" xmlns="http://www.w3.org/2000/svg" xmlns:xlink="http://www.w3.org/1999/xlink" x="0px" y="0px"
	 width="859.536px" height="664.582px" viewBox="0 0 859.536 664.582" enable-background="new 0 0 859.536 664.582"
	 xml:space="preserve">
<path id="vestfirdir" fill="#15793D" d="M859.512,374.851c-0.301-9.081-3.444-19.168-10.862-19.695
	c-2.9-0.206-5.868,0.943-8.67,1.526c-5.398,1.123-11.104,1.601-16.563,2.569c-2.241,0.398-9.343,1.746-8.405-2.666
	c0.675-3.176,4.619-3.968,7.249-4.446c3.742-0.684,7.122-1.472,10.199-3.877c8.188-6.402-1.507-11.495-8.376-8.859
	c-4.747,1.821-8.121,4.472-13.425,4.797c-3.969,0.242-7.995,0.139-11.911,0.926c-3.751,0.756-6.935,2.816-10.598,3.797
	c-2.013,0.538-7.053,2.604-8.843,1.087c-0.979-0.829-3.176-7.748-3.177-9.03c-0.001-4.175,10.051-4.647,13.157-5.273
	c5.851-1.179,11.78-2.1,17.482-3.91c5.182-1.646,10.095-4.063,15.363-5.446c6.273-1.646,12.729-2.056,19.167-2.541
	c2.667-0.202,10.229,0.195,11.001-3.444c0.743-3.509-5.515-8.618-7.572-10.7c-3.31-3.348-7.123-7.689-11.63-9.43
	c-7.81-3.014-16.059,5.604-23.674,6.674c-8.769,1.232-12.686-9.213-15.185-15.848c-0.758-2.012-5.257-6.506-5.014-8.324
	c0.853-6.31,16.009,9.998,16.718,0.774c0.313-4.071-3.247-8.873-5.119-12.204c-1.876-3.337-2.19-7.987-4.527-10.965
	c-2.881-3.673-9.22-0.497-12.908-0.062c-2.1,0.248-4.357,0.299-5.914,1.936c-3.771,3.962-0.341,9.367,1.792,13.047
	c3.097,5.338,2.837,11.171-0.357,16.456c-2.663,4.403-8.105,10.454-13.185,11.979c-2.313,0.694-3.892,0.207-3.387-2.436
	c0.746-3.906,6.276-6.676,8.26-10.263c2.554-4.615,2.937-8.982,0.265-13.688c-2.438-4.295-6.527-7.677-9.637-2.269
	c-1.606,2.798-2.962,7.572-7.157,6.732c-3.346-0.67-5.783-4.996-6.221-8.127c-0.473-3.389,2.158-6.291,0.834-9.655
	c-1.725-4.377-4.63-6.943-2.08-11.718c1.768-3.31,5.766-7.12,2.147-10.707c-1.925-1.909-7.527-2.61-8.044-5.587
	c-0.632-3.639,3.651-3.826,5.475-4.93c1.865-1.131,1.613-3.733,2.409-5.5c1.018-2.257,3.511-3.787,3.907-6.336
	c1.188-7.676-6.984-5.202-10.116-9.701c-3.776-5.426,4.443-6.517,5.728-10.243c1.61-4.675-4.069-2.617-6.103-2.07
	c-5.412,1.457-10.292-1.574-15.124-3.583c-3.055-1.27-6.192-1.493-9.31-2.439c-4.791-1.454-5.549-6.296-8.288-9.833
	c-3.173-4.093-7.009-7.186-12.256-4.799c-3.259,1.482-5.672,4.486-8.688,6.373c-3.054,1.911-8.872,3.044-4.813-2.179
	c4.598-5.918,11.438-8.188,17.834-11.475c-0.442-2.259-0.406-4.301,0.442-6.454c0.479-1.21,2.377-3.311,1.8-4.7
	c-1.417-3.409-7.757-0.335-8.533-5.444c-0.498-3.291,2.626-10.228-0.865-12.715c-2.594-1.847-7.045,1.688-8.948,3.308
	c-2.648,2.253-3.98,2.719-7.532,2.822c-5.035,0.146-11.834,4.967-14.956-1.5c-1.705-3.533-0.643-8.123,0.117-11.759
	c0.304-1.456,1.934-5.298,0.087-5.279c-3.528,0.036-6.166,11.675-7.482,14.074c-1.252,2.279-3.908,5.827-6.56,6.588
	c-5.337,1.533,0.897-10.546,0.897-11.998c0.002-8.442-7.29-3.984-10.375-0.137c-3.013,3.755-8.868,8.058-12.947,2.589
	c-4.063-5.448,4.479-11.042,5.967-15.773c1.837-5.846-5.164-8.108-5.583-13.185c-0.383-4.635,7.988-4.388,10.489-7.236
	c3.499-3.984,0.316-9.979-4.568-10.441c-3.501-0.331-11,2.629-8.976-3.679c0.554-1.725,2.817-4.038,2.4-5.959
	c-0.398-1.837-2.779-2.39-4.144-3.345c-4.673-3.274-3.862-9.492-8.162-13.026c-5.558-4.568-17.048-6.185-19.213-13.782
	c-0.987-3.465-2.12-6.897-3.083-10.367c-1.329-4.792-0.119-9.741-0.953-14.584c-0.809-4.691-3.22-8.824-6.714-12.03
	c-2.249-2.064-7.373-6.943-10.861-5.831c-4.695,1.498,1.823,7.639,3.217,9.462c4.797,6.275,3.615,16.668-6.313,14.547
	c-3.379-0.722-7.498-1.964-9.919-4.574c-2.606-2.811-2.153-7.12-4.443-10.117c-2.346-3.071-6.115-4.643-8.165-8.031
	c-1.812-2.995-3.218-4.858-7.084-4.377c-4.95,0.616-4.528,5.111-4.035,8.988c0.617,4.843-1.417,6.962-4.982,9.936
	c-3.68,3.066-4.992,6.268-7.509,10.114c-2.456,3.752-6.792,3.751-10.847,2.865c-3.769-0.824-6.855-2.338-7.287-6.417
	c-0.341-3.234,0.563-6.355-2.079-8.895c-5.202-5.001-14.11-2.491-19.499-7.864c-3.18-3.171-5.342-7.04-9.144-9.619
	c-4.703-3.19-10.357-3.992-15.85-4.755c-2.501-0.348-7.915-1.768-9.584,0.917c-1.434,2.305,1.771,3.73,3.346,4.833
	c2.438,1.708,4.165,3.076,3.614,6.292c-0.503,2.941-2.741,6.351-5.349,7.816c-6.726,3.78-14.104-3.979-20.756-0.889
	c-7.363,3.421,2.142,9.792-1.162,12.338c-2.002,1.541-5.431-1.724-6.493-3.041c-3.707-4.586-8.117-12.142-15.095-11.36
	c-2.345,0.263-4.353,1.807-4.344,4.311c0.01,2.91,2.685,4.33,4.272,6.314c4.536,5.674,5.185,17.91,13.286,20.335
	c2.6,0.777,5.942-1.484,8.295,0.168c5.241,3.683,0.295,15.304-3.025,18.77c-2.1,2.19-5.209,3.21-7.574,5.099
	c-1.998,1.595-4.665,5.561-7.548,5.297c-2.855-0.263-4.572-3.593-6.734-5.113c-2.696-1.896-6.069-2.745-8.893-4.444
	c-3.139-1.889-6.989-5.055-10.475-1.977c-3.113,2.748-0.999,8.681,0.989,11.522c6.508,9.303,18.386,12.369,26.72,19.507
	c4.11,3.521,7.721,7.549,12.9,9.547c5.634,2.172,10.808,0.879,16.232-1.17c5.285-1.996,11.472-3.23,16.328-6.144
	c4.42-2.652,4.726-7.59,6.869-11.783c3.396-6.639,10.561-9.64,16.654-13.253c3.599-2.134,10.053-4.07,7.589,2.934
	c-1.607,4.575-5.392,3.623-9.292,4.431c-3.681,0.763-3.067,4.842-4.486,8.008c-1.335,2.979-5.001,8.541-2.354,11.706
	c3.852,4.599,17.356-1.907,21.08-4.088c3.944-2.31,7.834-5.705,10.559-9.398c3.587-4.859,4.25-11.43,9.584-14.953
	c3.34-2.206,7.6-2.995,11.548-2.884c1.529,0.043,7.236,0.221,7.51,2.574c0.414,3.573-12.926,5.276-15.243,7.415
	c-3.914,3.612-0.921,10.831-3.354,15.513c-2.421,4.66-11.045,9.766-8.424,15.788c2.783,6.396,13.705,8.373,19.755,8.804
	c8.245,0.588,18.51-2.543,24.092-8.951c3.532-4.056,3.527-12.055,7.845-15.188c3.991-2.897,4.732,3.881,5.621,6.466
	c0.812,2.364,4.501,6.165,3,8.485c-1.078,1.667-4.643,2.492-6.288,3.474c-2.309,1.377-3.605,3.933-5.823,5.407
	c-1.849,1.228-4.16,1.941-6.156,2.907c-2.938,1.421-8.738,3.979-7.594,8.215c0.723,2.671,5.514,2.713,7.617,3.3
	c3.958,1.105,8.063,1.85,12.186,1.655c3.518-0.166,30.711-8.167,29.626-2.098c-0.595,3.33-10.608,6.354-13.132,7.25
	c-5.497,1.953-10.9,1.88-16.522,2.588c-4.305,0.542-7.928,6.537-12.613,5.06c-2.332-0.735-6.439-5.274-6.82,0.342
	c-0.173,2.553,6.204,16.618-2.356,13.297c-6.454-2.505-4.897-12.648-10.301-15.289c-1.855-0.907-3.213,0.958-4.989,1.445
	c-4.047,1.109-12.454-1.055-15.839-3.51c-3.892-2.822-7.852-6.395-11.413-9.645c-4.382-3.997-9.973-1.808-15.46-2.777
	c-5.142-0.908-15.344,0.255-18.654,5.029c-1.222,1.76,0.141,4.474-1.528,5.845c-1.949,1.601-6.637-0.244-8.964-0.022
	c-4.967,0.472-11.828,2.844-14.895,6.981c-3.914,5.28-1.54,12.853,0.821,18.25c4.796,10.956,13.283,20.78,22.353,28.457
	c8.275,7.007,18.044,9.936,27.484,14.836c10.721,5.565,21.896,11.338,32.089,17.801c6.479,4.107,11.854,9.631,17.663,14.58
	c5.398,4.599,13.128,10.825,20.629,10.878c6.05,0.041,11.825-8.59,17.786-6.39c3.623,1.337,2.226,4.659-0.387,6.38
	c-3.958,2.609-8.526,4.541-12.581,7.118c-4.789,3.044-3.181,5.494-2.239,10.287c1.185,6.026-5.411,4.876-6.628,9.45
	c-1.93,7.261,8.441,11.745,12.323,16.559c5.873,7.28,9.906,16.553,10.226,25.982c0.132,3.908-1.823,7.384-1.324,11.315
	c0.748,5.895,2.914,11.521,2.908,17.548c-0.004,2.722-0.929,4.267-1.396,6.882c-1.265,7.084,0.234,16.182-4.203,22.39
	c-2.88,4.027-5.546,7.395-7.162,12.18c-1.438,4.259-2.296,9.073-6.022,12.008c-2.973,2.341-6.347,3.193-8.736,6.346
	c-2.979,3.926-4.666,8.615-8.077,12.266c-3.339,3.574-8.331,6.162-12.461,8.834c-2.095,1.354-5.676,4.084-8.187,4.38
	c-3.857,0.456-2.768-3.376-0.911-4.919c2.387-1.983,5.438-2.891,7.968-4.624c4.365-2.993,7.212-7.341,10.676-11.246
	c3.315-3.738,7.425-6.956,9.567-11.574c4.763-10.267,9.134-21.443,11.176-32.633c0.709-3.885,1.741-8.211,0.764-12.137
	c-1.109-4.456-2.922-8.352-2.284-13.153c0.782-5.906-0.672-11.869-8.057-11.424c-5.959,0.359-4.026-5.264-3.91-9.746
	c0.055-2.051-0.146-13.221-4.563-9.615c-1.741,1.422-2.066,5.379-2.52,7.377c-0.931,4.108-1.932,8.165-3.355,12.138
	c-4.984,13.887-11.913,26.945-16.764,40.907c-1.072,3.084-11.605,35.057-15.701,31.24c-2.866-2.671,1.217-13.373,2.118-16.133
	c2.634-8.067,6.479-15.646,9.899-23.39c6.597-14.928,10.087-30.849,9.389-47.218c-0.3-7.006-2.382-13.767-6.053-19.736
	c-3.642-5.922-10.161-10.12-12.543-16.63c-1.104-3.018-3.049-5.873-3.519-9.085c-0.536-3.655,0.853-7.65,1.356-11.259
	c-2.324-0.384-2.23,1.098-2.699,2.701c-0.66,2.253-0.577,2.735-3.171,3.386c-3.005,0.755-6.271,0.82-8.7-1.387
	c-1.83-1.662-3.223-7.603-6.546-5.843c-3.705,1.961-4.599,10.968-5.222,14.455c-2.134,11.928-2.1,24.069-2.899,36.122
	c-0.413,6.227-0.889,12.656-2.891,18.611c-1.469,4.367-3.98,8.271-5.949,12.416c-2.367,4.988-4.079,10.618-7.395,15.092
	c-1.95,2.633-5.446,4.986-6.396,0.351c-1.068-5.215,2.737-11.413,4.979-15.817c2.731-5.372,5.055-10.564,5.749-16.61
	c0.677-5.894,0.838-11.762,1.873-17.623c0.557-3.147,3.193-10.702,0.475-13.481c-6.773-6.924-12.064,17.359-13.121,19.943
	c-4.454,10.9-16.624,14.288-22.601,23.783c-1.895,3.01-3.151,6.442-5.947,8.805c-2.751,2.323-4.462,1.786-3.464-1.919
	c1.419-5.267,4.244-8.986,7.854-12.963c3.673-4.047,8.313-7.192,11.583-11.595c4.688-6.313,8.222-14.059,11.538-21.158
	c3.514-7.524,5.589-16.218,4.377-24.55c-0.208-1.438-0.659-5.702-2.896-4.809c-1.939,0.776-2.313,6.586-2.676,8.228
	c-0.772,3.5-1.75,6.752-3.988,9.613c-1.904,2.436-4.516,4.318-5.733,7.246c-1.534,3.685-0.559,7.689-0.342,11.513
	c0.117,2.069,0.469,5.847-2.475,4.58c-3.146-1.354-3.636-8.274-3.598-10.991c0.089-6.296,3.618-11.833,4.932-17.878
	c0.52-2.394,1.246-23.134-4.429-18.326c-2.506,2.124-2.854,8.205-3.522,11.16c-0.875,3.864-1.837,7.743-4.186,11.01
	c-4.325,6.014-11.232,9.229-14.777,15.993c-0.757,1.443-2.125,8.111-3.462,8.777c-1.291,0.646-1.169-2.18-1.32-3.456
	c-1.377,1.392-5.316,6.235-7.726,4.896c-3.182-1.767,0.812-9.603,1.896-11.526c4.968-8.807,14.824-13.376,19.475-22.557
	c4.341-8.568,6.082-20.537,5.894-30.053c-0.147-7.482-7.272-24.436-17.511-18.139c-9.121,5.61-10.726,18.478-17.986,25.654
	c-4.121,4.073-9.411,1.992-11.731-2.951c-3.799-8.095,4.617-11.519,9.487-15.703c6.54-5.619,4.741-17.374,3.472-25.026
	c-1.429-8.616-10.021-16.265-18.005-18.82c-4.633-1.482-8.168-2.468-10.671-6.943c-2.774-4.96-4.364-10.459-8.892-14.245
	c-4.162-3.48-9.311-3.826-14.38-4.985c-6.859-1.568-13.095-4.869-19.659-7.293c-3.718-1.373-11.363-4.578-14.271-0.168
	c-1.66,2.517-0.261,5.84-3.17,7.629c-1.832,1.126-4.683,1.005-6.737,1.297c-3.127,0.446-6.208,1.081-9.101,2.39
	c-3.088,1.398-5.781,3.453-8.183,5.828c-2.234,2.209-7.24,5.706-7.19,9.229c0.047,3.312,4.075,4.617,6.7,5.36
	c4.083,1.157,8.426,1.118,12.598,1.769c9.698,1.515,13.938,6.684,18.161,15.027c3.641,7.193,8.741,10.396,14.817,15.254
	c1.604,1.282,7.873,8.387,2.032,7.743c-4.879-0.539-8.844-6.038-12.271-9.063c-4.44-3.919-6.968-9.01-10.984-13.275
	c-3.581-3.803-10.672-9.551-15.876-10.587c-5.357-1.066-6.521,5.683-11.406,6.73c-3.994,0.856-8.149-0.679-12.118-0.987
	c-2.146-0.166-8.322,0.103-9.612,1.932c-2.101,2.98,3.303,10.377,5.65,12.132c2.053,1.536,2.333,2.871,3.52,5.003
	c1.202,2.161,2.542,2.518,4.738,3.369c4.829,1.872,7.905,5.729,10.85,9.866c3.101,4.357,6.719,8.26,9.309,12.953
	c1.079,1.954,1.178,2.927,3.232,2.311c0.896-0.269,1.148-1.458,2.314-1.573c2.882-0.275,5.512,3.806,7.331,5.449
	c3.28,2.964,7.635,5.221,10.205,8.878c2.937,4.18,2.762,9.392,3.741,14.195c0.885,4.34,3.145,6.702,6.155,9.744
	c0.868,0.876,5.138,4.792,3.35,6.221c-1.125,0.898-5.553-1.675-6.572-2.28c-5.462-3.246-4.483-9.507-7.374-14.306
	c-1.883-3.126-4.669-5.534-8.298-6.322c-13.381-2.905-25.137-12.246-36.02-20.042c-11.521-8.253-26.869-19.145-41.827-13.747
	c-14.82,5.349-14.887,22.343-9.887,34.763c6.598,16.391,18.949,31.208,30.589,44.284c11.648,13.085,24.997,22.521,40.943,29.688
	c5.038,2.265,10.057,4.068,12.587,9.418c2.229,4.71,3.2,8.262,8.563,10.197c6.682,2.412,14.028,2.264,20.706,4.794
	c5.801,2.199,10.2,6.566,15.536,9.58c4.706,2.658,10.058,3.624,14.939,5.824c1.44,0.649,8.098,3.735,3.404,4.832
	c-4.16,0.973-9.457-0.311-13.349-1.662c-6.609-2.295-12.021-6.482-18.21-9.559c-6.037-2.998-12.84-2.822-19.331-4.074
	c-6.404-1.234-12.429-4.319-17.161-8.808c-4.133-3.921-7.429-9.608-13.917-9.214c-6.054,0.367-11.481,3.957-17.716,3.017
	c-5.524-0.832-7.75-5.531-10.154-9.973c-6.156-11.372-18.636-14.145-29.426-19.812c-4.648-2.439-9.867-5.802-15.364-5.111
	c-5.278,0.662-9.39,4.924-11.924,9.325c-4.757,8.264-3.667,17.348-1.284,26.16c2.138,7.907,3.521,17.29,7.91,24.305
	c2.896,4.628,6.707,8.613,10.03,12.925c5.557,7.208,8.421,15.832,17.036,20.162c3.675,1.848,7.707,2.762,11.526,4.24
	c4.069,1.575,7.732,3.852,11.454,6.097c8.357,5.04,14.9,6.185,24.479,5.847c5.509-0.194,10.908,0.573,16.378,1.081
	c8.488,0.787,16.835-0.685,25.303-0.734c5.251-0.03,10.922,0.984,16.079-0.321c8.122-2.061,19.69-16.63,28.715-9.849
	c9.79,7.357-12.761,11.747-13.929,15.04c-1.273,3.59,5.322,6.93,5.586,10.373c0.422,5.493-11.079,1.458-13.544,0.983
	c-9.255-1.784-19.144,0.262-28.25,1.991c-9.442,1.795-18.713,2.162-28.294,2.469c-4.768,0.15-15.066-0.213-13.496,7.132
	c1.258,5.883,6.545,12.524,10.626,16.753c3.05,3.159,6.737,5.361,10.809,6.959c2.637,1.034,5.367,1.82,8.106,2.536
	c2.971,0.776,5.858,2.214,8.982,2.23c3.448,0.021,7.01-1.146,10.411-1.639c3.882-0.563,14.764-3.717,18.025-0.854
	c3.028,2.658-6.49,4.408-8.393,4.934c-3.476,0.957-6.922,2.022-10.392,3.006c-5.508,1.562-10.442,3.255-16.127,4.064
	c-14.694,2.093,10.24,15.405,1.744,20.987c-9.403,6.179-13.759-8.335-19.244-12.379c-6.004-4.427-1.727,6.819-3.382,9.087
	c-3.01,4.123-4.662-6.552-7.612-5.86c-1.821,0.427-3.723,4.824-4.599,6.263c-1.582,2.596-2.84,5.187-3.955,8.01
	c-0.91,2.304-1.731,5.076-4.717,4.896c-3.197-0.194-5.462-4.151-5.876-7.012c-0.931-6.438,3.192-10.937,6.412-15.872
	c3.843-5.891,0.245-13.01-1.896-18.747c-9.159-24.553-36.438-35.056-57.123-47.257c-12.263-7.232-22.442-16.708-32.973-26.183
	c-9.059-8.15-25.271-24.721-39.107-20.063c-15.668,5.274-11.067,32.006-7.757,43.43c5.42,18.703,17.081,32.917,33.501,43.045
	c2.407,1.484,4.886,2.804,7.149,4.512c6.452,4.869,10.379,11.826,16.085,17.389c5.074,4.946,11.618,7.824,15.575,13.943
	c1.099,1.699,6.798,13.572,1.593,11.823c-2.958-0.993-6.148-6.262-8.328-8.386c-8.052-7.847-18.504-15.181-28.25-20.743
	c-8.423-4.809-18.932-9.056-28.683-9.761c-10.467-0.759-6.523,8.37-3.264,14.416c9.247,17.15,25.22,28.727,34.825,45.452
	c3.382,5.89,6.657,11.712,12.861,15.036c2.94,1.576,6.184,2.476,9.473,2.944c1.994,0.285,5.358-0.263,7.168,0.58
	c3.497,1.629-3.194,4.973-5.05,6c-6.15,3.405-13.612,4.897-19.824,0.802c-6.133-4.045-8.369-11.102-11.505-17.333
	c-2.946-5.852-7.452-8.541-13.43-10.846c-7.957-3.068-16.399-5.491-23.282-10.731c-5.777-4.397-8.543-10.936-12.683-16.664
	c-4.197-5.807-10.776-9.254-16.686-13.047c-6.026-3.868-12.116-7.636-18.137-11.512c-3.917-2.521-9.646-7.055-11.083-0.385
	c-1.402,6.503-2.805,10.361-8.423,14.395c-6.334,4.546-8.161,8.494-7.209,16.391c0.855,7.101,3.081,16.021-4.781,19.916
	c-6.071,3.01-14.098,1.668-19.424,6.271c-4.147,3.585-5.742,8.646-10.582,11.776c-3.815,2.467-12.029,5.202-10.603,11.132
	c1.802,7.483,12.877,8.761,18.958,7.832c5.595-0.854,10.959-2.77,16.527-3.754c5.69-1.006,10.641,0.087,16.29,0.334
	c5.916,0.258,12.596,5.157,17.711-0.158c1.01-1.049,1.302-2.467,3.15-2.144c1.359,0.238,3.065,1.513,4.498,2
	c18.541,6.346,34.268,16.774,49.829,28.496c5.718,4.308,12.315,8.786,14.555,15.933c2.188,6.979,0.979,17.096,8.987,20.559
	c4.493,1.943,9.998,1.404,14.76,1.291c12.68-0.301,27.222,1.722,39.488-2.045c13.941-4.28,15.225-22.97,27.956-28.548
	c3.281-1.438,7.024-0.913,10.5-1.017c4.315-0.125,8.357-1.148,12.497-2.291c8.531-2.354,17.799-2.737,25.82-6.62
	c8.853-4.285,15.391-3.494,24.579-0.176c7.875,2.846,16.229,5.688,24.659,6.219c8.294,0.522,16.531-4.539,20.266-11.996
	c3.643-7.272-2.557-14.201-2.271-21.693c0.309-8.063,4.888-14.33,8.479-21.289c1.033-2.002,7.552-11.777,10.321-6.759
	c2.197,3.981-5.408,11.205-4.615,16.051c1.076,6.568,9.505,7.856,14.661,9.652c8.682,3.023,17.181,8.438,25.173,1.004
	c5.924-5.511,8.319-12.768,9.421-20.549c0.345-2.435,3.772-24.49,8.171-19.282c1.004,1.188,0.886,3.953,1.252,5.409
	c1.327,5.275,3.122,9.48,3.188,15.075c0.059,5.127,0.102,10.726,5.931,5.912c7.151-5.905,12.58-12.199,13.271-21.836
	c0.18-2.511-0.881-6.865,0.23-9.146c1.929-3.948,4.832,3.979,6.125,4.991c2.801,2.191,7.854,2.165,9.183,6.017
	c1.342,3.89-2.406,8.464-4.744,11.095c-4.725,5.318-9.477,10.604-13.611,16.403c-3.603,5.056-5.163,9.937,0.835,13.946
	c5.418,3.623,11.626,5.68,15.805,10.926c2.85,3.577,5.546,6.084,9.478,8.539c2.169,1.354,7.33,5.812,8.043,1.75
	c0.49-2.787-1.545-7.188-2.207-9.856c-2.093-8.428-3.573-15.413-3.384-24.171c0.102-4.698,0.28-9.23-0.663-13.871
	c-1.243-6.115-3.534-11.952-4.311-18.172c-0.304-2.42-1.476-16.505,4.52-12.693c3.057,1.941,5.247,9.045,9.553,8.551
	c4.224-0.484,6.075-7.552,9.349-9.716c4.616-3.054,4.03,3.427,3.034,6.217c-2.075,5.813-7.015,9.633-10.126,14.78
	c-3.348,5.541-2.619,11.87-1.637,17.988c1.005,6.254,1.915,12.75,3.724,18.83c1.495,5.031,4.826,12.35,10.122,14.446
	c4.855,1.924,5.673-4.064,5.938-7.414c0.459-5.814,1.506-11.227,2.711-16.956c0.982-4.672,1.728-9.356,1.883-14.137
	c0.094-2.867-3.346-23.111-1.269-24.396c2.703-1.673,6.005,14.682,6.32,16.695c1.688,10.728-4.876,27.956,1.849,37.167
	c2.66,3.646,5.938,3.998,8.618,0.378c4.928-6.659,3.805-22.656,3.414-30.413c-0.197-3.923-0.342-8.141-1.023-12.019
	c-1.289-7.32-4.692-18.522,1.108-24.76c3.518,3.823,5.094,13.637,6.898,18.707c3.908,10.974,6.851,25.256,6.482,36.959
	c-0.302,9.594-5.336,19.825-0.636,29.089c4.033,7.945,10.231-1.028,14.684-3.563c4.98-2.836,7.358-2.112,5.719-9.025
	c-0.607-2.56-5.7-11.762-3.803-14.141c4.361-5.47,7.023,6.838,7.832,9.196c0.453,1.322,1.718,7.014,3.184,7.568
	c3.227,1.223,4.441-5.16,5.995-7.288c3.097-4.241,7.792-6.926,11.396-10.688c2.925-3.054,5.663-11.885,7.939-4.416
	c2.095,6.872-2.771,10.214-7.164,13.694c-4.523,3.586-9.544,10.477-1.409,12.569c5.858,1.508,14.42-1.347,19.835-3.569
	c15.009-6.164,14.261-25.693,25.839-35.952c1.531-1.358,10.628-8.872,12.455-5.024c1.413,2.975-7.677,11.234-9.232,13.188
	c-7.445,9.343-8.51,24.345-18.756,30.979c-8.965,5.807-20.509,5.369-30.521,8.039c-7.172,1.912-27.151,12.709-18.564,22.836
	c3.943,4.652,11.27,2.666,15.699,6.768c2.893,2.678,4.446,6.391,7.148,9.198c6.448,6.702,22.348,14.851,30.083,6.226
	c3.717-4.146,2.322-10.808,6.056-15.771c5.149-6.845,12.198-13.246,12.583-22.395c0.216-5.113-3.857-11.184-1.576-16.079
	c0.799-1.717,2.252-1.312,4.006-0.951c1.944,0.398,2.862,0.746,4.001,2.213c2.536,3.275,1.344,8.046,2.619,11.791
	c1.287,3.785,4.425,6.525,4.812,10.685c0.24,2.587-1.31,5.799-0.102,8.278c1.881,3.862,5.518,3.943,7.577,0.492
	c2.467-4.136-2.263-15.54,2.538-18.102c5.61-2.993,11.283,9.26,13.119,12.692c1.646,3.078,2.947,5.743,5.458,8.229
	c2.633,2.605,5.303,4.828,4.688,8.952c-0.324,2.176-5.443,7.997-4.645,9.726c1,2.163,11.576-1.12,13.431-1.308
	c7.264-0.736,12.827,1.219,18.99,4.815c5.6,3.27,9.826,3.103,15.635,0.229c6.008-2.972,11.681-6.856,18.688-6.341
	c20.703,1.522,43.563,15.483,63.209,3.108c4.661-2.936,9.502-6.877,13.126-11.042c4.262-4.897,7.973-10.112,12.555-14.747
	c4.769-4.823,9.113-9.772,12.251-15.845c4.867-9.418,3.415-18.513,4.655-28.534c0.653-5.28,2.181-12.176-2.111-16.389
	c-4.646-4.562-15.979-2.788-20.929,0.585c-5.345,3.644-7.87,10.178-11.688,15.144c-2.239,2.912-5.508,5.899-9.25,6.593
	c-6.013,1.109-4.301-5.696-2.799-9.139c1.502-3.438,4.313-6.242,6.961-8.819c5.073-4.939,11.458-9.423,14.349-16.121
	c2.593-6.011,0.947-10.438-4.765-13.248c-5.228-2.573-10.973-7.737-16.907-8.107c-3.296-0.205-6.184,1.283-9.245,2.223
	c-3.545,1.087-6.803,0.991-10.422,0.292c-4.447-0.86-8.792-2.056-13.319-2.467c-1.582-0.144-6.549,0.612-7.813-0.544
	c-0.975-0.889-0.447-2.657-0.696-3.863c-0.438-2.123-1.729-3.462-2.854-5.223c-3.175-4.969-1.406-11.289-4.223-16.564
	c-1.151-2.16-5.591-5.177-5.951-7.416c-0.365-2.275,2.746-3.204,4.352-4.294c4.336-2.945,5.229-6.62,3.868-11.476
	c-1.189-4.243-2.237-11.227-5.125-14.585c-4.013-4.665-10.58-9.453-16.009-12.229c-1.457-0.745-7.276-2.458-6.615-4.652
	c0.647-2.149,8.391-2.949,10.141-3.183c3.72-0.496,6.491-0.128,9.284,2.45c2.261,2.09,4.925,4.011,6.698,6.562
	c2.069,2.979,3.271,6.764,4.778,10.058c3.541,7.733,7.154,15.438,11.041,23.004c1.924,3.744,3.99,8.153,8.363,9.329
	c4.574,1.229,9.298,1.764,13.901,3.114c6.648,1.951,14.634,4.33,21.396,1.538c5.538-2.285,6.766-7.42,9.424-12.185
	c3.146-5.634,8.652-8.695,13.763-12.299c4.14-2.919,6.716-5.377,1.604-8.6c-4.576-2.886-8.68-5.946-11.51-10.652
	c-1.091-1.813-1.886-3.961-4.262-4.157c-3.511-0.291-5.045,4.099-8.29,4.21c-5.516,0.189-5.858-5.306-2.683-8.271
	c3.743-3.494,7.564-3.696,12.463-3.666c6.198,0.037,9.878-3.413,14.064-7.519c4.036-3.956,7.206-7.11,9.533-12.357
	c2.177-4.905,5.229-9.268,6.811-14.425c1.536-5.01,6.607-11.355,4.994-16.884c-1.297-4.446-6.752-4.672-10.57-4.942
	c-4.914-0.349-2.58-3.432,0.145-5.248c3.567-2.378,7.9-3.249,9.979-7.469C858.992,384.469,859.676,379.81,859.512,374.851z"/>
</svg>
