<?xml version="1.0" encoding="utf-8"?>
<!-- Generator: Adobe Illustrator 16.0.0, SVG Export Plug-In . SVG Version: 6.00 Build 0)  -->
<!DOCTYPE svg PUBLIC "-//W3C//DTD SVG 1.1//EN" "http://www.w3.org/Graphics/SVG/1.1/DTD/svg11.dtd">
<svg version="1.1" id="Layer_1" xmlns:sketch="http://www.bohemiancoding.com/sketch/ns"
	 xmlns="http://www.w3.org/2000/svg" xmlns:xlink="http://www.w3.org/1999/xlink" x="0px" y="0px" width="32px" height="32px"
	 viewBox="0 0 32 32" enable-background="new 0 0 32 32" xml:space="preserve">
<desc></desc>
<g>
	<path d="M15.531,9.781c-2.485,0-4.5,2.014-4.5,4.505v16.495h9V14.286C20.031,11.798,18.012,9.781,15.531,9.781z M18.031,23.781h-5
		v-1h5V23.781z M18.031,21.781h-5v-1h5V21.781z M18.031,17.781h-5v-3.49c0-1.381,1.119-2.51,2.5-2.51c1.391,0,2.5,1.124,2.5,2.51
		V17.781z"/>
	<path d="M15.531,5.781c-4.694,0-8.5,3.806-8.5,8.5c0,2.597,1.165,4.922,3,6.48v-1.381c-1.241-1.339-2-3.13-2-5.1
		c0-4.142,3.358-7.5,7.5-7.5c4.143,0,7.5,3.358,7.5,7.5c0,1.969-0.759,3.761-2,5.1v1.381c1.836-1.559,3-3.884,3-6.48
		C24.031,9.587,20.226,5.781,15.531,5.781z"/>
</g>
</svg>
