<?xml version="1.0" encoding="utf-8"?>
<!-- Generator: Adobe Illustrator 16.0.0, SVG Export Plug-In . SVG Version: 6.00 Build 0)  -->
<!DOCTYPE svg PUBLIC "-//W3C//DTD SVG 1.1//EN" "http://www.w3.org/Graphics/SVG/1.1/DTD/svg11.dtd">
<svg version="1.1" id="Layer_1" xmlns:sketch="http://www.bohemiancoding.com/sketch/ns"
	 xmlns="http://www.w3.org/2000/svg" xmlns:xlink="http://www.w3.org/1999/xlink" x="0px" y="0px" width="52px" height="50.875px"
	 viewBox="14.625 11 52 50.875" enable-background="new 14.625 11 52 50.875" xml:space="preserve">
<desc></desc>
<g>
	<path d="M21.764,42.464c-1.665,1.845-1.52,4.689,0.328,6.358l12.244,11.054l6.032-6.681L28.123,42.142
		C26.277,40.476,23.426,40.622,21.764,42.464z M33.831,49.989l-3.35,3.712l-0.742-0.671l3.35-3.712L33.831,49.989z M32.347,48.649
		l-3.35,3.711l-0.742-0.671l3.35-3.711L32.347,48.649z M29.377,45.969l-3.349,3.711l-2.592-2.338
		c-1.024-0.926-1.112-2.513-0.188-3.537c0.932-1.032,2.509-1.104,3.538-0.175L29.377,45.969z"/>
	<path d="M18.795,39.783c-3.146,3.484-2.87,8.859,0.614,12.005c1.927,1.74,4.434,2.435,6.82,2.116l-1.025-0.926
		c-1.826,0.023-3.664-0.613-5.126-1.933c-3.074-2.776-3.317-7.518-0.541-10.593c2.775-3.075,7.519-3.316,10.593-0.541
		c1.461,1.318,2.283,3.083,2.445,4.902l1.025,0.924c0.072-2.406-0.873-4.828-2.8-6.569C27.315,36.024,21.94,36.299,18.795,39.783z"
		/>
</g>
<g>
	<path d="M49.867,16.604c-2.062,1.388-2.609,4.183-1.218,6.25l9.21,13.685l7.467-5.025l-9.21-13.684
		C54.728,15.766,51.925,15.219,49.867,16.604z M59.758,26.823l-4.147,2.791l-0.559-0.829l4.147-2.792L59.758,26.823z M58.641,25.164
		l-4.147,2.792l-0.559-0.829l4.149-2.792L58.641,25.164z M56.408,21.846l-4.148,2.792l-1.948-2.896
		c-0.771-1.145-0.474-2.706,0.673-3.478c1.153-0.776,2.701-0.464,3.476,0.686L56.408,21.846z"/>
	<path d="M47.634,13.286c-3.894,2.621-4.927,7.902-2.306,11.798c1.449,2.153,3.714,3.433,6.107,3.7l-0.771-1.145
		c-1.776-0.418-3.407-1.481-4.506-3.114c-2.313-3.438-1.402-8.097,2.034-10.41c3.438-2.313,8.097-1.402,10.41,2.035
		c1.099,1.634,1.47,3.544,1.188,5.348l0.77,1.146c0.653-2.318,0.321-4.897-1.129-7.051C56.811,11.697,51.529,10.665,47.634,13.286z"
		/>
</g>
<path fill="none" stroke="#000000" stroke-width="2" stroke-linecap="round" stroke-miterlimit="10" d="M45.444,25.287l-5.918,5.766
	 M39.583,26.673l-0.057,4.38l4.382,0.059"/>
<path fill="none" stroke="#000000" stroke-width="2" stroke-linecap="round" stroke-miterlimit="10" d="M30.856,38.868l6.124-5.547
	 M36.765,37.696l0.216-4.375l-4.376-0.219"/>
</svg>
