<?xml version="1.0" encoding="utf-8"?>
<!-- Generator: Adobe Illustrator 16.0.0, SVG Export Plug-In . SVG Version: 6.00 Build 0)  -->
<!DOCTYPE svg PUBLIC "-//W3C//DTD SVG 1.1//EN" "http://www.w3.org/Graphics/SVG/1.1/DTD/svg11.dtd">
<svg version="1.1" id="Layer_1" xmlns:sketch="http://www.bohemiancoding.com/sketch/ns"
	 xmlns="http://www.w3.org/2000/svg" xmlns:xlink="http://www.w3.org/1999/xlink" x="0px" y="0px" width="35.063px" height="27px"
	 viewBox="7.875 5 35.063 27" enable-background="new 7.875 5 35.063 27" xml:space="preserve">
<desc></desc>
<g>
	<path d="M34.711,9.542c-2.464-0.327-4.726,1.405-5.054,3.875L27.49,29.77l8.922,1.182L38.58,14.6
		C38.906,12.133,37.17,9.868,34.711,9.542z M35.35,23.75l-4.957-0.657l0.132-0.991l4.956,0.656L35.35,23.75z M35.612,21.767
		l-4.957-0.656l0.132-0.992l4.957,0.657L35.612,21.767z M36.138,17.802l-4.957-0.657l0.459-3.46c0.182-1.369,1.439-2.341,2.808-2.16
		c1.379,0.183,2.331,1.442,2.149,2.817L36.138,17.802z"/>
	<path d="M35.236,5.577c-4.654-0.617-8.927,2.656-9.543,7.31c-0.342,2.574,0.507,5.032,2.122,6.818l0.182-1.369
		c-1.055-1.49-1.571-3.366-1.313-5.318c0.544-4.106,4.313-6.994,8.42-6.45c4.106,0.544,6.994,4.314,6.45,8.42
		c-0.259,1.953-1.247,3.628-2.653,4.792l-0.181,1.369c2.024-1.304,3.483-3.456,3.825-6.03C43.162,10.466,39.89,6.194,35.236,5.577z"
		/>
</g>
<g>
	<path d="M12.657,14.6l2.168,16.352l8.921-1.182L21.58,13.417c-0.328-2.47-2.59-4.201-5.055-3.875
		C14.067,9.868,12.331,12.133,12.657,14.6z M15.756,22.758l4.957-0.656l0.131,0.991l-4.957,0.657L15.756,22.758z M15.493,20.775
		l4.957-0.657l0.133,0.992l-4.958,0.656L15.493,20.775z M14.64,14.342c-0.182-1.375,0.771-2.634,2.149-2.817
		c1.369-0.181,2.627,0.791,2.809,2.16l0.459,3.46l-4.958,0.657L14.64,14.342z"/>
	<path d="M16,5.577c4.654-0.617,8.927,2.656,9.542,7.31c0.342,2.574-0.506,5.032-2.121,6.818l-0.182-1.369
		c1.055-1.49,1.57-3.365,1.313-5.318c-0.545-4.106-4.314-6.994-8.42-6.45c-4.106,0.544-6.994,4.314-6.45,8.42
		c0.259,1.953,1.247,3.629,2.653,4.793l0.181,1.369c-2.024-1.304-3.483-3.456-3.825-6.03C8.075,10.466,11.347,6.194,16,5.577z"/>
</g>
</svg>
